const face = {"glyphs":{"0":{"ha":694,"x_min":65,"x_max":624,"o":"m 347 917 q 220 800 271 917 q 168 488 168 684 q 220 168 168 282 q 347 54 271 54 q 475 168 429 54 q 521 488 521 282 q 477 800 521 684 q 347 917 434 917 m 347 11 q 146 136 228 11 q 65 488 65 260 q 144 830 65 700 q 347 960 222 960 q 545 836 467 960 q 624 488 624 711 q 545 138 624 266 q 347 11 467 11 z "},"1":{"ha":694,"x_min":157,"x_max":553,"o":"m 396 966 l 396 141 q 423 76 396 98 q 499 54 450 54 l 553 54 l 553 22 l 157 22 l 157 54 l 206 54 q 285 76 260 54 q 309 141 309 98 l 309 798 q 296 833 309 819 q 255 846 282 846 l 157 846 l 157 879 l 206 879 q 312 901 271 879 q 374 966 353 922 l 396 966 z "},"2":{"ha":694,"x_min":71,"x_max":608,"o":"m 505 722 q 461 871 505 819 q 331 922 418 922 q 220 887 266 922 q 174 798 174 852 q 193 743 174 765 q 212 700 212 722 q 198 659 212 673 q 157 646 184 646 q 106 665 125 646 q 87 727 87 684 q 168 901 87 841 q 342 960 250 960 q 534 895 472 960 q 597 732 597 830 q 567 602 597 667 q 472 477 537 537 q 231 231 315 326 q 130 103 146 136 l 450 103 q 532 141 499 103 q 575 255 564 179 l 608 255 l 575 22 l 71 22 l 71 92 q 160 217 98 141 q 326 396 222 293 q 461 570 418 488 q 505 722 505 651 z "},"3":{"ha":694,"x_min":81,"x_max":608,"o":"m 608 271 q 532 90 608 168 q 320 11 456 11 q 152 65 222 11 q 81 190 81 119 q 103 247 81 222 q 146 271 125 271 q 193 247 179 271 q 206 206 206 222 q 195 160 206 179 q 184 125 184 141 q 225 71 184 92 q 315 49 266 49 q 461 106 412 49 q 510 282 510 163 q 458 439 510 380 q 266 499 407 499 l 266 537 q 426 589 374 537 q 477 732 477 640 q 437 865 477 808 q 309 922 396 922 q 228 903 271 922 q 184 841 184 884 q 195 787 184 798 q 206 760 206 776 q 195 716 206 732 q 157 700 184 700 q 117 716 136 700 q 98 776 98 732 q 168 909 98 857 q 331 960 239 960 q 505 892 439 960 q 570 749 570 825 q 529 610 570 667 q 401 526 488 553 q 564 412 521 483 q 608 271 608 342 z "},"4":{"ha":694,"x_min":49,"x_max":646,"o":"m 499 125 q 521 71 499 87 q 581 54 543 54 l 629 54 l 629 22 l 271 22 l 271 54 l 331 54 q 393 71 374 54 q 412 125 412 87 l 412 304 l 49 304 l 49 331 l 445 960 l 499 960 l 499 336 l 646 336 l 646 304 l 499 304 l 499 125 m 407 825 l 98 336 l 412 336 l 412 825 l 407 825 z "},"5":{"ha":694,"x_min":81,"x_max":608,"o":"m 374 618 q 543 540 477 618 q 608 331 608 461 q 540 98 608 184 q 331 11 472 11 q 157 68 233 11 q 81 206 81 125 q 100 263 81 239 q 152 288 119 288 q 195 266 184 288 q 206 228 206 244 q 190 176 206 195 q 174 136 174 157 q 225 71 174 92 q 336 49 277 49 q 469 119 423 49 q 515 320 515 190 q 475 496 515 429 q 353 564 434 564 q 250 543 293 564 q 168 450 206 521 l 119 456 l 146 949 l 591 949 l 575 868 l 184 868 l 163 510 q 269 602 217 586 q 374 618 320 618 z "},"6":{"ha":694,"x_min":65,"x_max":624,"o":"m 168 391 q 225 138 168 228 q 363 49 282 49 q 488 109 445 49 q 532 331 532 168 q 486 499 532 439 q 374 559 439 559 q 263 524 315 559 q 168 391 212 488 m 380 613 q 567 526 510 613 q 624 331 624 439 q 545 90 624 168 q 363 11 467 11 q 141 122 217 11 q 65 445 65 233 q 157 827 65 694 q 407 960 250 960 q 529 917 483 960 q 575 841 575 873 q 562 792 575 808 q 515 776 548 776 q 475 789 488 776 q 461 830 461 803 q 464 852 461 841 q 467 873 467 863 q 450 909 467 895 q 391 922 434 922 q 233 838 298 922 q 168 472 168 754 q 258 578 201 543 q 380 613 315 613 z "},"7":{"ha":694,"x_min":87,"x_max":613,"o":"m 613 911 q 431 551 499 727 q 363 244 363 374 q 366 182 363 222 q 369 87 369 141 q 355 27 369 43 q 309 11 342 11 q 263 30 282 11 q 244 98 244 49 q 290 353 244 201 q 537 868 336 505 l 266 868 q 171 830 206 868 q 119 716 136 792 l 87 722 l 125 949 l 613 949 l 613 911 z "},"8":{"ha":694,"x_min":60,"x_max":613,"o":"m 136 244 q 193 103 136 157 q 336 49 250 49 q 486 103 439 49 q 532 239 532 157 q 467 374 532 309 q 271 494 401 439 q 171 385 206 450 q 136 244 136 320 m 613 255 q 537 81 613 152 q 336 11 461 11 q 141 81 222 11 q 60 244 60 152 q 106 401 60 336 q 239 515 152 467 q 122 610 163 553 q 81 738 81 667 q 152 895 81 830 q 347 960 222 960 q 532 895 461 960 q 602 738 602 830 q 562 616 602 673 q 434 515 521 559 q 570 396 526 461 q 613 255 613 331 m 526 732 q 483 865 526 808 q 347 922 439 922 q 201 868 244 922 q 157 754 157 814 q 220 637 157 694 q 396 537 282 581 q 494 618 461 570 q 526 732 526 667 z "},"9":{"ha":694,"x_min":60,"x_max":618,"o":"m 152 662 q 198 480 152 543 q 315 418 244 418 q 456 494 396 418 q 515 635 515 570 q 472 844 515 765 q 331 922 429 922 q 195 849 239 922 q 152 662 152 776 m 298 369 q 125 437 190 369 q 60 656 60 505 q 130 873 60 787 q 331 960 201 960 q 543 852 467 960 q 618 537 618 743 q 529 160 618 309 q 282 11 439 11 q 160 43 212 11 q 109 130 109 76 q 122 174 109 152 q 168 195 136 195 q 212 171 201 195 q 222 114 222 146 q 228 79 222 92 q 239 60 233 65 q 258 52 244 54 q 288 49 271 49 q 445 157 385 49 q 515 521 505 266 q 434 412 488 456 q 298 369 380 369 z "}," ":{"ha":694,"x_min":0,"x_max":0,"o":""},"(":{"ha":694,"x_min":298,"x_max":629,"o":"m 629 1090 q 442 811 505 960 q 380 499 380 662 q 442 184 380 331 q 629 -92 505 38 l 602 -119 q 374 171 450 16 q 298 499 298 326 q 374 822 298 667 q 602 1118 450 977 l 629 1090 z "},")":{"ha":694,"x_min":60,"x_max":391,"o":"m 60 1090 l 87 1118 q 315 822 239 977 q 391 499 391 667 q 315 171 391 326 q 87 -119 239 16 l 60 -92 q 247 184 184 38 q 309 499 309 331 q 247 811 309 662 q 60 1090 184 960 z "},".":{"ha":694,"x_min":92,"x_max":255,"o":"m 174 5 q 117 27 141 5 q 92 87 92 49 q 117 146 92 125 q 174 168 141 168 q 231 144 206 168 q 255 87 255 119 q 231 27 255 49 q 174 5 206 5 z "},"G":{"ha":694,"x_min":38,"x_max":667,"o":"m 353 922 q 203 811 271 922 q 136 472 136 700 q 187 184 136 320 q 358 49 239 49 q 453 73 418 49 q 494 146 488 98 l 494 331 q 477 380 494 363 q 429 396 461 396 l 396 396 l 396 429 l 667 429 l 667 396 l 640 396 q 597 380 613 396 q 581 336 581 363 l 581 65 q 562 73 570 71 q 543 76 553 76 q 521 73 532 76 q 499 60 510 71 q 431 22 467 33 q 353 11 396 11 q 114 155 190 11 q 38 472 38 298 q 127 817 38 673 q 353 960 217 960 q 429 944 385 960 q 483 928 472 928 q 515 936 499 928 q 543 960 532 944 l 586 716 l 553 705 q 472 871 521 819 q 353 922 423 922 z "},"O":{"ha":694,"x_min":49,"x_max":656,"o":"m 152 488 q 209 149 152 255 q 353 43 266 43 q 499 144 445 43 q 553 488 553 244 q 507 803 553 684 q 353 922 461 922 q 206 814 260 922 q 152 488 152 705 m 656 488 q 570 138 656 266 q 353 11 483 11 q 138 141 228 11 q 49 488 49 271 q 133 830 49 700 q 353 960 217 960 q 575 822 494 960 q 656 488 656 684 z "},"a":{"ha":694,"x_min":60,"x_max":667,"o":"m 266 16 q 114 62 168 16 q 60 168 60 109 q 144 328 60 266 q 477 418 228 391 l 477 483 q 453 572 477 537 q 342 608 429 608 q 212 578 250 608 q 184 515 174 548 q 184 472 195 494 q 141 450 174 450 q 106 464 119 450 q 92 505 92 477 q 163 597 92 553 q 336 640 233 640 q 499 600 445 640 q 553 483 553 559 l 553 125 q 562 73 553 81 q 591 65 570 65 q 629 90 618 65 q 640 157 640 114 l 667 157 q 640 52 667 81 q 570 22 613 22 q 510 38 532 22 q 477 92 488 54 q 377 35 423 54 q 266 16 331 16 m 152 184 q 182 95 152 136 q 277 54 212 54 q 374 73 326 54 q 477 130 423 92 l 477 385 q 222 312 293 363 q 152 184 152 260 z "},"e":{"ha":694,"x_min":87,"x_max":613,"o":"m 521 358 q 480 540 526 477 q 358 602 434 602 q 225 537 277 602 q 174 358 174 472 l 521 358 m 174 326 q 231 117 174 179 q 380 54 288 54 q 499 95 450 54 q 570 195 548 136 l 597 184 q 524 68 581 125 q 369 11 467 11 q 165 92 244 11 q 87 326 87 174 q 165 551 87 461 q 358 640 244 640 q 537 570 461 640 q 613 326 613 499 l 174 326 z "},"m":{"ha":694,"x_min":16,"x_max":689,"o":"m 38 629 q 92 635 65 629 q 136 651 119 640 l 146 651 l 146 559 q 206 621 174 602 q 277 640 239 640 q 353 621 326 640 q 385 559 380 602 q 448 621 412 602 q 521 640 483 640 q 610 602 586 640 q 635 505 635 564 l 635 92 q 646 62 635 71 q 678 54 656 54 l 689 54 l 689 22 l 505 22 l 505 54 l 515 54 q 548 62 537 54 q 559 92 559 71 l 559 499 q 545 578 559 559 q 505 597 532 597 q 437 570 467 597 q 391 494 407 543 l 391 92 q 401 62 391 71 q 434 54 412 54 l 445 54 l 445 22 l 260 22 l 260 54 l 271 54 q 304 62 293 54 q 315 92 315 71 l 315 499 q 304 572 315 548 q 260 597 293 597 q 193 570 222 597 q 146 488 163 543 l 146 92 q 157 62 146 71 q 190 54 168 54 l 201 54 l 201 22 l 16 22 l 16 54 l 27 54 q 60 62 49 54 q 71 92 71 71 l 71 564 q 65 589 71 581 q 43 597 60 597 l 22 597 l 22 629 l 38 629 z "},"r":{"ha":694,"x_min":43,"x_max":635,"o":"m 277 461 q 393 594 331 548 q 521 640 456 640 q 605 616 575 640 q 635 559 635 591 q 621 515 635 532 q 581 499 608 499 q 540 515 553 499 q 532 559 526 532 q 526 586 532 575 q 494 597 521 597 q 388 543 450 597 q 277 391 326 488 l 277 98 q 290 65 277 76 q 326 54 304 54 l 445 54 l 445 22 l 43 22 l 43 54 l 152 54 q 190 65 179 54 q 201 98 201 76 l 201 548 q 190 583 201 570 q 152 597 179 597 l 49 597 l 49 629 l 92 629 q 182 637 130 629 q 260 656 233 646 l 277 656 l 277 461 z "},"s":{"ha":694,"x_min":114,"x_max":591,"o":"m 136 472 q 198 597 136 553 q 347 640 260 640 q 439 627 396 640 q 499 613 483 613 q 526 618 515 613 q 553 640 537 624 l 575 461 l 543 456 q 469 567 521 526 q 353 608 418 608 q 241 581 282 608 q 201 505 201 553 q 220 437 201 461 q 288 401 239 412 q 382 366 326 385 q 488 326 439 347 q 562 269 532 304 q 591 190 591 233 q 534 62 591 109 q 369 16 477 16 q 263 30 298 16 q 206 43 228 43 q 171 35 190 43 q 130 16 152 27 l 114 217 l 146 222 q 217 92 163 136 q 369 49 271 49 q 486 76 445 49 q 526 157 526 103 q 505 220 526 195 q 461 255 483 244 q 342 301 407 277 q 228 347 277 326 q 157 401 179 369 q 136 472 136 434 z "},"v":{"ha":694,"x_min":49,"x_max":635,"o":"m 353 16 l 320 16 l 136 548 q 114 583 130 570 q 76 597 98 597 l 49 597 l 49 629 l 282 629 l 282 597 l 260 597 q 220 581 228 597 q 222 526 212 564 l 353 146 l 363 146 l 494 521 q 496 578 510 559 q 450 597 483 597 l 439 597 l 439 629 l 635 629 l 635 597 l 624 597 q 572 578 591 597 q 537 521 553 559 l 353 16 z "},"x":{"ha":694,"x_min":49,"x_max":635,"o":"m 363 396 l 461 543 q 475 581 477 564 q 434 597 472 597 l 401 597 l 401 629 l 613 629 l 613 597 l 586 597 q 559 594 575 597 q 532 575 543 591 l 385 358 l 537 109 q 578 68 553 81 q 613 54 602 54 l 635 54 l 635 22 l 396 22 l 396 54 l 429 54 q 464 71 461 54 q 456 109 467 87 l 342 293 l 212 103 q 214 65 206 76 q 244 54 222 54 l 260 54 l 260 22 l 49 22 l 49 54 l 81 54 q 130 71 103 54 q 174 119 157 87 l 315 331 l 174 559 q 152 583 168 570 q 109 597 136 597 l 81 597 l 81 629 l 315 629 l 315 597 l 298 597 q 266 581 271 597 q 271 543 260 564 l 363 396 z "},"“":{"ha":1389,"x_min":586,"x_max":1302,"o":"m 977 1009 q 760 684 803 836 q 868 553 879 640 q 684 456 836 401 q 618 651 586 521 q 977 1009 738 911 m 1302 1009 q 1085 684 1150 857 q 1226 564 1226 673 q 1053 456 1194 423 q 955 640 933 499 q 1302 1009 1009 868 z "},"”":{"ha":1389,"x_min":87,"x_max":792,"o":"m 326 998 q 412 792 445 944 q 87 467 293 553 q 260 749 217 608 q 163 922 130 792 q 326 998 217 1031 m 673 1009 q 760 814 792 966 q 369 445 640 575 q 586 760 532 618 q 499 922 488 814 q 673 1009 553 1053 z "},"、":{"ha":1389,"x_min":109,"x_max":499,"o":"m 109 174 q 467 22 369 174 q 391 -130 499 -119 q 304 -65 326 -130 q 109 174 250 54 z "},"。":{"ha":1389,"x_min":54,"x_max":477,"o":"m 195 250 q 445 130 391 293 q 304 -109 477 -54 q 76 33 130 -141 q 195 250 54 195 m 174 174 q 152 -11 98 87 q 347 -33 239 -109 q 380 141 423 33 q 174 174 304 250 z "},"一":{"ha":1389,"x_min":76,"x_max":1335,"o":"m 119 521 l 1291 521 q 1291 456 1335 488 l 119 456 q 119 521 76 488 z "},"万":{"ha":1389,"x_min":65,"x_max":1345,"o":"m 109 1020 l 1302 1020 q 1302 955 1345 987 l 477 955 l 477 694 l 1063 694 q 1194 586 1204 694 q 998 -163 1215 -109 q 575 -76 825 -217 q 618 -22 553 -11 q 987 -98 857 -152 q 1128 564 1139 -22 q 1063 629 1139 629 l 477 629 q 130 -163 456 76 q 87 -119 76 -174 q 412 629 391 109 l 412 955 l 109 955 q 109 1020 65 987 z "},"三":{"ha":1389,"x_min":22,"x_max":1356,"o":"m 195 977 l 1194 977 q 1194 911 1237 944 l 195 911 q 195 977 152 944 m 217 477 l 1150 477 q 1150 412 1194 445 l 217 412 q 217 477 163 445 m 65 -43 l 1302 -43 q 1302 -109 1356 -76 l 65 -109 q 65 -43 22 -76 z "},"上":{"ha":1389,"x_min":22,"x_max":1367,"o":"m 673 1053 l 673 597 l 1194 597 q 1194 532 1237 564 l 673 532 l 673 -87 l 1324 -87 q 1324 -152 1367 -119 l 65 -152 q 65 -87 22 -119 l 608 -87 l 608 1053 q 673 1053 640 1096 z "},"中":{"ha":1389,"x_min":152,"x_max":1248,"o":"m 716 1085 l 716 846 l 1128 846 q 1237 738 1248 846 l 1237 304 q 1118 184 1248 174 l 716 184 l 716 -174 q 651 -174 684 -228 l 651 184 l 260 184 q 152 293 152 174 l 152 738 q 260 846 163 836 l 651 846 l 651 1085 q 716 1085 684 1139 m 651 781 l 282 781 q 217 716 217 781 l 217 315 q 282 250 217 239 l 651 250 l 651 781 m 1107 781 l 716 781 l 716 250 l 1096 250 q 1172 326 1183 239 l 1172 716 q 1107 781 1183 781 z "},"为":{"ha":1389,"x_min":65,"x_max":1248,"o":"m 553 1085 q 618 1085 586 1128 l 618 770 l 1128 770 q 1237 662 1248 770 l 1215 43 q 1042 -184 1215 -174 q 727 -130 890 -184 q 760 -65 705 -65 q 1020 -119 890 -119 q 1150 54 1150 -119 l 1172 640 q 1107 705 1183 705 l 618 705 q 130 -184 629 141 q 98 -130 65 -184 q 553 705 564 174 l 119 705 q 119 770 65 738 l 553 770 l 553 1085 m 293 1042 q 456 857 391 977 q 412 814 467 803 q 250 998 326 933 q 293 1042 239 1063 m 781 553 q 1020 141 922 358 q 966 109 1020 76 q 727 510 846 358 q 781 553 716 575 z "},"举":{"ha":1389,"x_min":33,"x_max":1367,"o":"m 553 1042 q 608 1085 553 1107 q 760 879 684 998 q 705 846 770 814 q 553 1042 629 955 m 1096 1074 q 1150 1031 1161 1096 q 998 781 1096 922 l 1291 781 q 1291 716 1335 749 l 955 716 q 1335 434 1118 543 q 1302 380 1367 380 q 879 716 1020 521 l 477 716 q 109 358 380 499 q 76 412 33 358 q 401 716 336 553 l 109 716 q 109 781 65 749 l 911 781 q 1096 1074 1031 955 m 260 1074 q 456 868 380 977 q 412 825 467 814 q 217 1020 326 922 q 260 1074 206 1074 m 716 597 l 716 434 l 1085 434 q 1085 369 1128 401 l 716 369 l 716 174 l 1237 174 q 1237 109 1280 141 l 716 109 l 716 -174 q 651 -174 684 -228 l 651 109 l 152 109 q 152 174 109 141 l 651 174 l 651 369 l 304 369 q 304 434 260 391 l 651 434 l 651 597 q 716 597 684 640 z "},"之":{"ha":1389,"x_min":54,"x_max":1335,"o":"m 608 1096 q 727 857 684 966 q 662 836 716 803 q 543 1063 618 944 q 608 1096 543 1128 m 119 803 l 1096 803 q 1194 684 1259 803 q 391 43 944 315 q 781 -87 575 -98 l 1291 -87 q 1291 -152 1335 -119 l 781 -152 q 336 0 575 -174 q 109 -130 250 54 q 65 -87 54 -141 q 315 76 174 76 q 1118 694 857 326 q 1063 738 1161 738 l 119 738 q 119 803 76 770 z "},"九":{"ha":1389,"x_min":54,"x_max":1313,"o":"m 564 1074 l 564 836 l 857 836 q 998 705 1009 836 l 987 -54 q 1063 -119 987 -130 l 1128 -119 q 1237 206 1248 -130 q 1302 206 1270 250 q 1139 -184 1313 -195 l 1074 -184 q 922 -54 922 -206 l 933 705 q 868 770 944 770 l 564 770 q 119 -184 597 130 q 87 -130 54 -184 q 499 770 532 152 l 130 770 q 130 836 87 803 l 499 836 l 499 1074 q 564 1074 532 1118 z "},"乡":{"ha":1389,"x_min":76,"x_max":1248,"o":"m 684 1074 q 738 1031 749 1096 q 336 662 564 814 l 803 673 q 1053 944 955 803 q 1107 901 1118 966 q 369 293 781 488 q 1074 358 760 326 q 1183 586 1150 467 q 1248 564 1237 618 q 1009 174 1194 358 q 141 -184 716 -98 q 130 -119 76 -174 q 1031 293 760 -22 q 239 217 445 228 q 206 282 141 228 q 738 608 477 391 l 239 597 q 239 662 174 597 q 684 1074 521 846 z "},"乾":{"ha":1389,"x_min":33,"x_max":1324,"o":"m 401 1074 l 401 987 l 608 987 q 608 922 662 955 l 401 922 l 401 792 l 477 792 q 608 673 618 792 l 608 434 q 477 304 618 293 l 401 304 l 401 152 l 618 152 q 618 87 673 119 l 401 87 l 401 -163 q 336 -163 369 -228 l 336 87 l 98 87 q 98 152 33 119 l 336 152 l 336 304 l 250 304 q 119 412 119 293 l 119 662 q 250 792 119 792 l 336 792 l 336 922 l 98 922 q 98 987 43 955 l 336 987 l 336 1074 q 401 1074 369 1128 m 770 1085 q 836 1074 814 1128 l 792 955 l 1270 955 q 1270 890 1313 922 l 770 890 q 684 727 716 781 q 629 760 629 705 q 770 1085 727 933 m 477 727 l 260 727 q 184 651 184 727 l 184 575 l 543 575 l 543 662 q 477 727 553 727 m 705 651 l 1096 651 q 1194 543 1270 651 q 770 54 846 206 q 890 -109 705 -119 l 1161 -109 q 1248 109 1259 -119 q 1313 109 1280 163 q 1172 -174 1324 -184 l 901 -174 q 705 65 629 -184 q 1107 543 792 250 q 1085 586 1161 586 l 705 586 q 705 651 662 618 m 543 510 l 184 510 l 184 434 q 260 369 184 358 l 467 369 q 543 434 553 358 l 543 510 z "},"了":{"ha":1389,"x_min":119,"x_max":1302,"o":"m 163 1053 l 1107 1053 q 1215 944 1302 1042 q 749 629 1020 781 q 738 564 694 597 q 922 228 901 412 q 629 -174 955 -141 q 401 -109 510 -184 q 434 -43 369 -43 q 608 -109 521 -109 q 857 228 890 -98 q 673 532 836 401 q 716 684 597 597 q 1128 955 944 814 q 1063 987 1183 987 l 163 987 q 163 1053 119 1020 z "},"产":{"ha":1389,"x_min":65,"x_max":1302,"o":"m 1009 857 q 1074 836 1063 890 q 944 586 1009 684 l 1248 586 q 1248 521 1302 553 l 315 521 q 250 434 250 521 q 119 -184 260 65 q 65 -152 65 -217 q 184 456 195 76 q 293 586 184 586 l 510 586 q 391 825 477 662 q 445 857 391 868 q 586 586 532 716 l 857 586 q 1009 857 944 694 m 206 955 l 694 955 q 618 1085 662 1009 q 684 1107 640 1128 q 770 955 749 998 l 1226 955 q 1226 890 1280 922 l 206 890 q 206 955 152 922 z "},"人":{"ha":1389,"x_min":33,"x_max":1356,"o":"m 738 1063 l 738 803 q 1324 -130 901 195 q 1280 -184 1356 -195 q 716 662 890 109 q 98 -174 629 174 q 65 -119 33 -174 q 673 846 651 260 l 673 1063 q 738 1063 705 1107 z "},"令":{"ha":1389,"x_min":11,"x_max":1367,"o":"m 640 1074 q 749 1074 694 1118 q 1324 640 1031 781 q 1302 586 1367 597 q 727 998 998 716 q 662 998 694 1031 q 65 586 456 749 q 33 640 11 586 q 640 1074 445 825 m 618 803 q 803 586 749 673 q 749 543 825 510 q 564 760 694 629 q 618 803 553 825 m 195 456 l 1096 456 q 1183 358 1259 445 q 749 -43 1096 228 q 879 -119 803 -76 q 846 -174 911 -174 q 445 43 618 -43 q 488 98 423 109 q 684 -11 586 43 q 1074 336 987 228 q 1042 391 1118 391 l 195 391 q 195 456 152 423 z "},"会":{"ha":1389,"x_min":11,"x_max":1367,"o":"m 640 1063 q 760 1063 694 1118 q 1345 618 1031 803 q 1313 564 1367 564 q 738 987 1053 694 q 662 987 694 1031 q 76 564 347 684 q 43 618 11 564 q 640 1063 369 781 m 358 662 l 1053 662 q 1053 597 1107 629 l 358 597 q 358 662 304 629 m 152 391 l 1248 391 q 1248 326 1302 358 l 586 326 q 358 -43 456 109 q 391 -76 326 -87 q 1096 -43 673 -65 q 998 174 1042 98 q 1053 206 998 228 q 1204 -163 1150 22 q 1139 -174 1183 -228 q 1118 -98 1128 -130 q 347 -141 629 -130 q 282 -43 228 -141 q 510 326 401 141 l 152 326 q 152 391 109 358 z "},"传":{"ha":1389,"x_min":22,"x_max":1367,"o":"m 304 1074 q 369 1063 347 1128 q 271 694 336 868 l 271 -174 q 206 -174 239 -228 l 206 564 q 76 369 163 467 q 33 412 22 358 q 304 1074 250 705 m 825 1063 l 792 890 l 1237 890 q 1237 825 1291 857 l 781 825 l 738 629 l 1313 629 q 1313 564 1367 597 l 727 564 l 694 445 q 749 391 673 380 l 1226 391 q 1270 282 1335 391 q 987 -43 1204 174 q 1128 -141 1063 -87 q 1074 -184 1139 -206 q 608 87 922 -76 q 640 141 575 130 q 922 -11 781 76 q 1183 326 1270 326 l 716 326 q 618 412 586 315 l 662 564 l 336 564 q 336 629 282 597 l 673 629 l 716 825 l 401 825 q 401 890 347 857 l 727 890 l 760 1074 q 825 1063 803 1128 z "},"余":{"ha":1389,"x_min":33,"x_max":1345,"o":"m 1074 673 q 1074 608 1128 640 l 716 608 l 716 434 l 1215 434 q 1215 369 1270 391 l 716 369 l 716 -54 q 586 -184 727 -184 q 401 -130 477 -174 q 434 -65 369 -65 q 586 -119 510 -109 q 651 -43 662 -119 l 651 369 l 163 369 q 163 434 109 391 l 651 434 l 651 608 l 293 608 q 293 673 239 640 l 1074 673 m 727 998 q 651 998 694 1042 q 109 651 423 770 q 76 705 33 651 q 618 1063 401 825 q 760 1063 684 1118 q 1302 716 1063 803 q 1280 651 1345 662 q 727 998 1009 760 m 401 271 q 456 239 456 304 q 119 -87 326 65 q 76 -33 54 -98 q 401 271 271 98 m 922 239 q 977 282 911 304 q 1280 -43 1161 109 q 1226 -87 1291 -119 q 922 239 1107 54 z "},"作":{"ha":1389,"x_min":43,"x_max":1367,"o":"m 586 1074 q 651 1063 629 1128 q 618 933 640 1020 l 1313 933 q 1313 868 1367 901 l 770 868 l 770 564 l 1215 564 q 1215 499 1259 532 l 770 499 l 770 174 l 1237 174 q 1237 109 1291 141 l 770 109 l 770 -174 q 705 -174 738 -228 l 705 868 l 608 868 q 423 467 532 618 q 369 499 369 434 q 586 1074 521 716 m 391 1053 q 293 716 347 836 l 293 -163 q 228 -163 260 -228 l 228 586 q 109 412 174 477 q 65 456 43 391 q 326 1074 260 705 q 391 1053 380 1128 z "},"你":{"ha":1389,"x_min":33,"x_max":1313,"o":"m 543 1063 q 608 1053 586 1118 q 575 901 597 987 l 1194 901 q 1302 781 1313 901 q 1248 608 1291 694 q 1183 629 1194 575 q 1183 836 1291 836 l 890 836 l 890 -65 q 727 -174 879 -184 q 608 -141 662 -163 q 640 -76 575 -76 q 825 -54 814 -152 l 825 836 l 553 836 q 401 575 488 673 q 358 618 347 564 q 543 1063 488 781 m 575 532 q 640 521 618 586 q 412 -22 575 239 q 358 11 347 -54 q 575 532 510 260 m 1074 521 q 1139 543 1085 575 q 1302 -11 1248 293 q 1237 -33 1291 -87 q 1074 521 1183 271 m 336 1063 q 271 727 315 890 l 271 -174 q 206 -174 239 -217 l 206 575 q 87 380 163 467 q 43 423 33 369 q 271 1074 228 684 q 336 1063 315 1118 z "},"使":{"ha":1389,"x_min":33,"x_max":1356,"o":"m 304 1053 q 250 705 293 890 l 250 -174 q 184 -174 217 -217 l 184 521 q 87 336 141 412 q 33 369 33 315 q 239 1053 217 684 q 304 1053 271 1096 m 857 1063 l 857 955 l 1291 955 q 1291 890 1335 922 l 857 890 l 857 738 l 1161 738 q 1270 629 1280 738 l 1270 412 q 1161 304 1280 293 l 857 304 q 760 0 846 130 q 1313 -109 998 -119 q 1313 -174 1356 -141 q 716 -54 966 -184 q 336 -174 553 -163 q 336 -109 293 -141 q 651 -22 521 -98 q 401 228 532 76 q 456 271 401 293 q 705 33 575 119 q 792 304 792 163 l 488 304 q 380 412 380 293 l 380 629 q 488 738 380 738 l 792 738 l 792 890 l 380 890 q 380 955 336 922 l 792 955 l 792 1063 q 857 1063 825 1118 m 792 673 l 510 673 q 445 608 445 673 l 445 434 q 510 369 445 358 l 792 369 l 792 673 m 1139 673 l 857 673 l 857 369 l 1139 369 q 1204 434 1215 358 l 1204 608 q 1139 673 1215 673 z "},"倍":{"ha":1389,"x_min":22,"x_max":1367,"o":"m 825 1096 q 879 944 857 1020 l 1270 944 q 1270 879 1324 911 l 1139 879 q 1063 586 1107 716 l 1324 586 q 1324 521 1367 553 l 336 521 q 336 586 282 553 l 618 586 q 532 879 597 684 l 380 879 q 380 944 336 911 l 803 944 q 760 1074 792 998 q 825 1096 781 1128 m 1074 879 l 597 879 q 684 586 662 694 l 987 586 q 1074 879 1042 727 m 597 369 l 1074 369 q 1226 217 1237 369 l 1226 -22 q 1074 -174 1237 -184 l 597 -174 q 445 -22 445 -184 l 445 217 q 597 369 445 369 m 1053 304 l 618 304 q 510 206 510 304 l 510 0 q 618 -109 510 -119 l 1053 -109 q 1161 0 1172 -119 l 1161 195 q 1053 304 1172 304 m 326 1063 q 260 727 304 890 l 260 -174 q 195 -174 228 -217 l 195 575 q 76 380 152 467 q 33 423 22 369 q 260 1074 217 684 q 326 1063 304 1118 z "},"停":{"ha":1389,"x_min":22,"x_max":1324,"o":"m 738 1063 q 803 1096 738 1128 q 857 977 825 1063 l 1259 977 q 1259 911 1302 944 l 391 911 q 391 977 347 944 l 781 977 q 738 1063 770 1009 m 597 825 l 1074 825 q 1194 705 1204 825 l 1194 662 q 1063 543 1204 532 l 564 543 q 456 651 456 532 l 456 705 q 597 825 456 825 m 1063 760 l 586 760 q 521 694 521 760 l 521 673 q 575 608 521 597 l 1053 608 q 1128 673 1139 597 l 1128 694 q 1063 760 1139 760 m 477 456 l 1226 456 q 1324 358 1324 456 q 1291 184 1324 282 q 1226 217 1226 141 q 1215 391 1291 391 l 488 391 q 423 326 423 391 l 423 195 q 358 195 391 152 l 358 336 q 477 456 358 456 m 499 282 l 1172 282 q 1172 217 1215 250 l 868 217 l 868 -43 q 684 -174 879 -206 q 532 -119 618 -163 q 564 -65 510 -65 q 803 -43 825 -174 l 803 217 l 499 217 q 499 282 456 250 m 326 1063 q 260 727 304 890 l 260 -174 q 195 -174 228 -217 l 195 575 q 76 380 152 467 q 33 423 22 369 q 260 1074 217 684 q 326 1063 304 1118 z "},"偶":{"ha":1389,"x_min":22,"x_max":1291,"o":"m 315 1074 q 250 716 304 911 l 250 -174 q 184 -174 217 -228 l 184 586 q 76 412 141 488 q 22 456 22 391 q 250 1074 217 727 q 315 1074 282 1128 m 792 987 l 575 987 q 510 922 510 987 l 510 825 l 792 825 l 792 987 m 1085 987 l 857 987 l 857 825 l 1150 825 l 1150 922 q 1085 987 1161 987 m 792 760 l 510 760 l 510 662 q 575 597 510 586 l 792 597 l 792 760 m 1150 760 l 857 760 l 857 597 l 1085 597 q 1150 662 1161 586 l 1150 760 m 857 412 l 1172 412 q 1280 304 1291 412 l 1280 -87 q 1118 -184 1270 -206 q 933 -141 1020 -174 q 966 -76 901 -76 q 1215 -54 1226 -174 l 1215 282 q 1150 347 1226 347 l 857 347 l 857 152 l 1031 163 l 966 260 q 1020 293 977 315 q 1183 11 1118 163 q 1118 -11 1172 -54 l 1063 98 q 499 65 792 76 q 499 130 456 98 l 792 141 l 792 347 l 510 347 q 445 282 445 347 l 445 -163 q 380 -163 412 -217 l 380 304 q 488 412 380 412 l 792 412 l 792 532 l 553 532 q 445 640 445 521 l 445 944 q 553 1053 456 1053 l 1107 1053 q 1215 944 1226 1053 l 1215 640 q 1107 532 1226 521 l 857 532 l 857 412 z "},"兔":{"ha":1389,"x_min":33,"x_max":1313,"o":"m 499 1096 q 553 1063 553 1118 l 532 1031 l 846 1031 q 955 944 977 1031 q 836 749 911 836 l 1063 749 q 1172 640 1183 749 l 1172 401 q 1063 293 1183 282 l 760 293 l 760 -43 q 825 -109 760 -119 l 1139 -109 q 1248 119 1259 -130 q 1313 119 1280 163 q 1150 -174 1313 -206 l 803 -174 q 694 -65 694 -184 l 694 293 l 673 293 q 98 -184 488 -76 q 76 -119 33 -174 q 597 293 445 -11 l 326 293 q 217 401 217 282 l 217 640 q 347 749 239 749 l 749 749 q 868 922 825 814 q 825 966 890 966 l 488 966 q 130 694 326 781 q 98 749 76 694 q 499 1096 347 868 m 651 684 l 347 684 q 282 618 282 684 l 282 423 q 347 358 282 347 l 618 358 q 651 684 662 521 m 1042 684 l 716 684 q 684 358 716 488 l 1042 358 q 1107 423 1118 347 l 1107 618 q 1042 684 1118 684 m 890 250 q 1096 -11 987 141 q 1031 -43 1085 -76 q 836 206 933 98 q 890 250 836 271 z "},"入":{"ha":1389,"x_min":65,"x_max":1345,"o":"m 510 998 q 543 1063 477 1063 q 803 760 727 998 q 1324 -119 1009 163 q 1280 -174 1345 -184 q 727 770 933 141 q 130 -163 597 260 q 87 -109 65 -174 q 684 846 532 282 q 510 998 640 955 z "},"关":{"ha":1389,"x_min":54,"x_max":1335,"o":"m 998 1063 q 1063 1031 1063 1096 q 955 857 1009 933 l 1215 857 q 1215 792 1270 825 l 716 792 l 716 510 l 1259 510 q 1259 445 1324 477 l 738 445 q 1302 -109 933 11 q 1280 -174 1335 -174 q 694 391 890 -43 q 119 -174 608 0 q 98 -109 54 -163 q 640 445 564 54 l 109 445 q 109 510 54 477 l 651 510 l 651 792 l 163 792 q 163 857 109 814 l 467 857 q 369 1031 423 944 q 434 1063 380 1096 q 543 857 510 933 l 868 857 q 998 1063 933 955 z "},"内":{"ha":1389,"x_min":141,"x_max":1259,"o":"m 651 1085 q 716 1085 684 1128 l 716 825 l 1107 825 q 1248 684 1259 825 l 1248 -76 q 1150 -174 1259 -184 q 879 -119 1085 -184 q 911 -54 836 -54 q 1183 -65 1204 -163 l 1183 684 q 1107 760 1194 760 l 716 760 l 716 662 q 1096 217 922 434 q 1053 163 1128 141 q 705 575 890 369 q 282 130 608 293 q 260 195 217 141 q 651 727 662 434 l 651 760 l 293 760 q 206 673 206 760 l 206 -174 q 141 -174 163 -228 l 141 662 q 293 825 141 825 l 651 825 l 651 1085 z "},"再":{"ha":1389,"x_min":11,"x_max":1367,"o":"m 87 1042 l 1270 1042 q 1270 977 1324 1009 l 694 977 l 694 825 l 1085 825 q 1194 716 1204 814 l 1194 260 l 1324 260 q 1324 195 1367 228 l 1194 195 l 1194 -22 q 1063 -174 1204 -184 q 857 -130 987 -184 q 879 -54 814 -76 q 1053 -109 1020 -119 q 1128 -22 1139 -119 l 1128 195 l 239 195 l 239 -152 q 174 -152 206 -217 l 174 195 l 65 195 q 65 260 11 228 l 174 260 l 174 716 q 282 825 184 814 l 629 825 l 629 977 l 87 977 q 87 1042 43 1009 m 629 760 l 304 760 q 239 694 239 760 l 239 553 l 629 553 l 629 760 m 1063 760 l 694 760 l 694 553 l 1128 553 l 1128 694 q 1063 760 1139 760 m 629 488 l 239 488 l 239 260 l 629 260 l 629 488 m 1128 488 l 694 488 l 694 260 l 1128 260 l 1128 488 z "},"军":{"ha":1389,"x_min":11,"x_max":1367,"o":"m 217 760 l 456 760 l 499 890 q 564 879 553 944 l 521 760 l 1128 760 q 1128 694 1172 727 l 499 694 q 358 391 456 575 l 673 391 l 673 629 q 738 629 694 673 l 738 391 l 1172 391 q 1172 326 1215 358 l 738 326 l 738 130 l 1313 130 q 1313 65 1356 98 l 738 65 l 738 -184 q 673 -184 705 -228 l 673 65 l 54 65 q 54 130 11 87 l 673 130 l 673 326 l 336 326 q 293 412 239 315 q 434 694 358 521 l 217 694 q 217 760 174 727 m 109 922 q 217 1042 109 1042 l 1172 1042 q 1259 727 1367 1042 q 1194 749 1204 694 q 1183 977 1270 977 l 228 977 q 174 911 174 977 l 174 760 q 109 760 141 705 l 109 922 z "},"冠":{"ha":1389,"x_min":54,"x_max":1367,"o":"m 206 1042 l 1172 1042 q 1270 749 1367 1031 q 1204 760 1226 694 q 1150 977 1280 977 l 228 977 q 163 911 163 977 l 163 738 q 98 738 130 673 l 98 922 q 206 1042 98 1042 m 1139 846 l 1139 673 l 1291 673 q 1291 608 1345 640 l 1139 608 l 1139 141 q 814 33 1150 -54 q 836 98 781 87 q 1074 141 1085 22 l 1074 608 l 727 608 q 727 673 673 640 l 1074 673 l 1074 846 q 1139 846 1107 901 m 228 825 l 662 825 q 662 760 716 792 l 228 760 q 228 825 174 792 m 141 564 l 727 564 q 727 499 781 532 l 575 499 l 575 -11 q 651 -87 575 -98 l 1150 -87 q 1248 98 1248 -98 q 1313 98 1280 141 q 1161 -152 1313 -163 l 640 -152 q 510 -33 510 -163 l 510 499 l 358 499 q 109 -184 380 43 q 65 -141 54 -195 q 293 499 315 76 l 141 499 q 141 564 87 532 m 825 499 q 955 195 901 369 q 890 174 944 130 q 770 467 846 315 q 825 499 770 521 z "},"冼":{"ha":1389,"x_min":54,"x_max":1356,"o":"m 879 1074 l 879 857 l 1226 857 q 1226 792 1270 825 l 879 792 l 879 510 l 1313 510 q 1313 445 1356 477 l 1009 445 l 1009 -22 q 1074 -98 1009 -109 l 1161 -98 q 1259 184 1270 -119 q 1324 184 1291 228 q 1161 -163 1345 -195 l 1074 -163 q 944 -22 944 -174 l 944 445 l 727 445 q 369 -184 738 -54 q 336 -119 304 -184 q 662 445 673 -11 l 401 445 q 401 510 358 477 l 814 510 l 814 792 l 586 792 q 467 575 521 640 q 412 618 412 553 q 586 1020 521 760 q 651 1009 629 1053 q 608 857 640 944 l 814 857 l 814 1074 q 879 1074 846 1118 m 174 1031 q 326 640 260 857 q 260 608 315 586 q 109 987 206 792 q 174 1031 119 1053 m 358 488 q 109 -163 271 87 q 54 -119 54 -184 q 293 510 217 141 q 358 488 336 543 z "},"击":{"ha":1389,"x_min":22,"x_max":1356,"o":"m 716 1042 l 716 846 l 1194 846 q 1194 781 1237 814 l 716 781 l 716 543 l 1313 543 q 1313 477 1356 510 l 716 477 l 716 -87 l 1085 -87 q 1150 -22 1161 -98 l 1150 304 q 1215 304 1183 347 l 1215 -43 q 1107 -152 1226 -163 l 271 -152 q 152 -43 152 -163 l 152 326 q 217 326 184 369 l 217 -22 q 282 -87 217 -98 l 651 -87 l 651 477 l 65 477 q 65 543 22 510 l 651 543 l 651 781 l 206 781 q 206 846 152 814 l 651 846 l 651 1042 q 716 1042 684 1085 z "},"分":{"ha":1389,"x_min":33,"x_max":1367,"o":"m 803 1063 q 868 1085 814 1118 q 1356 521 1085 716 q 1302 477 1367 456 q 803 1063 1020 662 m 510 1063 q 575 1042 564 1107 q 98 477 434 662 q 65 532 33 477 q 510 1063 380 727 m 304 586 l 1031 586 q 1150 467 1150 586 q 1118 11 1150 217 q 944 -184 1085 -174 q 640 -119 803 -184 q 662 -54 608 -65 q 933 -119 825 -119 q 1053 22 1031 -109 q 1085 456 1085 293 q 1020 521 1085 521 l 608 521 q 119 -184 575 0 q 87 -130 54 -184 q 543 521 510 54 l 304 521 q 304 586 260 543 z "},"列":{"ha":1389,"x_min":54,"x_max":1302,"o":"m 1020 1053 l 1020 98 q 955 98 987 43 l 955 1053 q 1020 1053 987 1096 m 1302 1053 l 1302 -65 q 966 -141 1291 -239 q 998 -76 922 -76 q 1237 -22 1259 -174 l 1237 1053 q 1302 1053 1270 1096 m 130 1053 l 890 1053 q 890 987 933 1020 l 423 987 l 412 814 l 716 814 q 825 716 825 814 q 109 -174 825 -87 q 98 -109 54 -152 q 553 87 391 -65 q 271 434 456 228 q 152 315 228 380 q 98 358 87 293 q 358 987 358 575 l 130 987 q 130 1053 76 1020 m 684 749 l 401 749 q 315 499 380 640 q 608 141 488 282 q 760 684 760 391 q 684 749 760 749 z "},"剑":{"ha":1389,"x_min":22,"x_max":1302,"o":"m 445 1053 q 532 1053 488 1096 q 911 651 705 890 q 857 608 922 597 q 510 977 694 792 q 477 977 488 998 q 87 586 336 792 q 54 640 22 586 q 445 1053 336 868 m 1302 1053 l 1302 -76 q 998 -141 1280 -239 q 1020 -76 955 -98 q 1237 -54 1226 -163 l 1237 1053 q 1302 1053 1270 1107 m 1042 987 l 1042 98 q 977 98 1009 43 l 977 987 q 1042 987 1009 1031 m 206 618 l 770 618 q 770 553 825 586 l 206 553 q 206 618 152 586 m 770 445 q 836 434 814 488 q 662 -11 760 195 l 846 11 q 857 -54 911 -22 l 119 -130 q 119 -65 65 -98 l 586 -22 q 770 445 716 260 m 391 412 q 456 423 412 467 q 532 98 499 271 q 467 87 510 33 q 391 412 434 260 m 228 391 q 336 54 293 217 q 271 43 315 -11 q 163 369 217 228 q 228 391 184 434 z "},"剩":{"ha":1389,"x_min":33,"x_max":1313,"o":"m 792 1085 q 803 1020 836 1063 q 510 966 673 987 l 510 825 l 879 825 q 879 760 922 792 l 510 760 l 510 293 q 857 -22 705 141 q 814 -76 879 -76 q 510 206 640 98 l 510 -174 q 445 -174 477 -217 l 445 195 q 109 -141 304 0 q 76 -87 54 -141 q 445 304 304 76 l 445 760 l 98 760 q 98 825 54 792 l 445 825 l 445 966 q 152 933 315 944 q 141 998 98 955 q 792 1085 456 1009 m 1302 1020 l 1302 -54 q 987 -119 1313 -228 q 1020 -54 966 -65 q 1237 -33 1259 -152 l 1237 1020 q 1302 1020 1270 1063 m 1074 977 l 1074 152 q 1009 152 1042 109 l 1009 977 q 1074 977 1042 1020 m 271 239 l 271 358 q 98 228 195 293 q 54 282 33 217 q 271 456 184 369 l 271 543 l 98 543 q 98 608 54 575 l 271 608 l 271 716 q 336 716 304 760 l 336 239 q 271 239 304 195 m 684 716 l 684 532 q 857 684 781 597 q 901 629 922 694 q 684 456 825 543 l 684 315 q 738 260 684 250 q 836 434 846 239 q 901 434 868 477 q 727 195 922 174 q 618 304 618 195 l 618 716 q 684 716 651 760 z "},"加":{"ha":1389,"x_min":43,"x_max":1280,"o":"m 358 1074 l 358 879 l 564 879 q 684 760 694 879 l 684 -22 q 347 -152 662 -250 q 369 -87 304 -98 q 618 -11 608 -174 l 618 749 q 553 814 629 814 l 358 814 l 358 662 q 98 -163 369 217 q 43 -130 43 -184 q 293 662 304 250 l 293 814 l 98 814 q 98 879 43 846 l 293 879 l 293 1074 q 358 1074 326 1128 m 901 987 l 1150 987 q 1270 868 1280 987 l 1270 -43 q 1150 -163 1280 -174 l 922 -163 q 792 -54 792 -174 l 792 857 q 901 987 792 987 m 1139 922 l 922 922 q 857 857 857 922 l 857 -43 q 922 -98 857 -109 l 1139 -98 q 1204 -33 1215 -109 l 1204 846 q 1139 922 1215 922 z "},"动":{"ha":1389,"x_min":22,"x_max":1324,"o":"m 911 1063 q 977 1063 944 1128 l 977 825 l 1204 825 q 1313 716 1324 825 q 1270 -76 1324 65 q 966 -130 1215 -239 q 987 -65 933 -76 q 1215 -33 1183 -152 q 1248 694 1259 130 q 1183 760 1259 760 l 977 760 q 727 -184 987 130 q 673 -141 662 -206 q 911 760 922 152 l 749 760 q 749 825 684 792 l 911 825 l 911 1063 m 184 922 l 618 922 q 618 857 673 890 l 184 857 q 184 922 130 890 m 76 597 l 684 597 q 684 532 727 564 l 380 532 q 228 -11 347 250 q 586 54 401 11 q 488 326 553 174 q 553 347 499 380 q 684 -98 640 141 q 618 -109 662 -152 q 597 -11 608 -76 q 152 -87 347 -65 q 141 -22 109 -76 q 315 532 260 152 l 76 532 q 76 597 22 553 z "},"励":{"ha":1389,"x_min":22,"x_max":1324,"o":"m 716 749 l 412 749 l 412 575 l 608 575 q 716 467 727 575 l 705 87 q 380 -152 727 -239 q 401 -87 347 -98 q 640 76 651 -152 l 651 467 q 586 510 662 510 l 412 510 q 217 -163 380 22 q 174 -119 163 -184 q 347 749 369 152 l 195 749 q 195 814 163 781 l 716 814 q 716 749 760 781 m 195 1009 l 738 1009 q 738 944 781 966 l 206 944 q 152 890 152 944 l 152 347 q 87 -184 163 11 q 33 -152 22 -228 q 87 336 98 -11 l 87 890 q 195 1009 87 1009 m 944 1085 q 1009 1085 977 1128 l 1009 792 l 1183 792 q 1313 684 1324 792 q 1280 -76 1324 -11 q 977 -163 1204 -239 q 987 -98 922 -119 q 1215 -54 1161 -163 q 1248 684 1259 0 q 1183 727 1259 727 l 1009 727 q 770 -184 1020 195 q 716 -152 716 -217 q 944 727 955 239 l 770 727 q 770 792 727 760 l 944 792 l 944 1085 z "},"化":{"ha":1389,"x_min":33,"x_max":1335,"o":"m 803 1063 l 803 564 q 1183 901 1074 749 q 1237 857 1237 922 q 803 488 1074 651 l 803 -43 q 890 -109 803 -119 l 1161 -109 q 1248 239 1259 -130 q 1313 239 1280 282 q 1172 -174 1335 -184 l 879 -174 q 738 -65 738 -184 l 738 456 q 434 304 532 336 q 412 369 380 304 q 738 532 586 434 l 738 1063 q 803 1063 770 1118 m 358 1063 q 423 1063 391 1118 q 304 684 380 846 l 304 -163 q 239 -163 271 -228 l 239 575 q 87 391 163 456 q 43 434 33 380 q 358 1063 282 684 z "},"千":{"ha":1389,"x_min":33,"x_max":1367,"o":"m 1194 1074 q 1204 1009 1259 1063 q 727 933 1020 966 l 727 543 l 1313 543 q 1313 477 1367 510 l 727 477 l 727 -163 q 662 -163 694 -217 l 662 477 l 87 477 q 87 543 33 510 l 662 543 l 662 933 q 184 911 423 911 q 184 977 130 944 q 1194 1074 781 977 z "},"南":{"ha":1389,"x_min":43,"x_max":1345,"o":"m 640 1074 q 705 1074 684 1128 l 694 955 l 1302 955 q 1302 890 1345 922 l 684 890 l 662 760 l 1107 760 q 1237 618 1248 760 l 1237 -76 q 901 -141 1248 -217 q 933 -76 857 -76 q 1172 -43 1183 -141 l 1172 618 q 1096 694 1183 694 l 293 694 q 217 618 217 694 l 217 -174 q 152 -174 184 -217 l 152 608 q 282 760 152 760 l 597 760 l 618 890 l 87 890 q 87 955 43 922 l 629 955 l 640 1074 m 293 456 l 792 456 q 879 640 846 564 q 944 618 933 684 q 868 456 911 543 l 1074 456 q 1074 391 1128 423 l 716 391 l 716 195 l 1107 195 q 1107 130 1150 163 l 716 130 l 716 -163 q 651 -163 684 -217 l 651 130 l 293 130 q 293 195 239 163 l 651 195 l 651 391 l 293 391 q 293 456 250 423 m 412 608 q 467 651 401 673 q 553 510 521 586 q 499 477 553 445 q 412 608 456 553 z "},"卡":{"ha":1389,"x_min":43,"x_max":1367,"o":"m 694 1085 l 694 933 l 1194 933 q 1194 868 1237 901 l 694 868 l 694 586 l 1324 586 q 1324 521 1367 553 l 694 521 l 694 391 q 1204 141 1031 250 q 1172 87 1237 87 q 694 315 966 206 l 694 -184 q 629 -184 662 -228 l 629 521 l 87 521 q 87 586 43 553 l 629 586 l 629 1085 q 694 1085 662 1128 z "},"即":{"ha":1389,"x_min":119,"x_max":1259,"o":"m 239 1063 l 521 1063 q 640 944 651 1063 l 640 477 q 521 369 651 358 l 184 369 l 184 22 q 239 -43 184 -54 q 521 109 380 0 q 434 228 456 206 q 488 282 434 304 q 694 -54 618 98 q 640 -98 705 -119 q 553 43 608 -43 q 217 -109 282 -119 q 119 -11 119 -130 l 119 944 q 239 1063 119 1063 m 901 1063 l 1128 1063 q 1248 944 1259 1063 l 1248 22 q 922 -54 1259 -130 q 944 11 890 0 q 1183 33 1194 -54 l 1183 933 q 1118 998 1194 998 l 911 998 q 857 933 857 998 l 857 -174 q 792 -174 825 -228 l 792 944 q 901 1063 792 1063 m 510 998 l 250 998 q 184 933 184 998 l 184 749 l 575 749 l 575 933 q 510 998 586 998 m 575 684 l 184 684 l 184 434 l 510 434 q 575 499 586 423 l 575 684 z "},"历":{"ha":1389,"x_min":33,"x_max":1324,"o":"m 271 1063 l 1280 1063 q 1280 998 1324 1031 l 293 998 q 228 933 228 998 l 228 380 q 98 -130 239 76 q 43 -98 33 -163 q 163 380 163 98 l 163 944 q 271 1063 163 1063 m 738 944 q 727 716 738 825 l 1128 716 q 1248 608 1259 716 l 1237 87 q 998 -163 1226 -141 q 770 -119 868 -174 q 803 -54 738 -65 q 977 -98 879 -109 q 1172 109 1161 -87 l 1183 597 q 1118 651 1194 651 l 727 651 q 336 -163 694 119 q 304 -109 271 -163 q 662 651 629 184 l 315 651 q 315 716 271 684 l 662 716 q 673 944 673 825 q 738 944 705 987 z "},"原":{"ha":1389,"x_min":54,"x_max":1335,"o":"m 228 1063 l 1291 1063 q 1291 998 1335 1031 l 792 998 l 760 846 l 1118 846 q 1226 738 1237 846 l 1226 412 q 1118 304 1237 293 l 825 304 l 825 -43 q 673 -195 836 -206 q 499 -152 618 -206 q 532 -87 467 -98 q 662 -130 640 -141 q 760 -43 770 -141 l 760 304 l 445 304 q 336 412 336 293 l 336 749 q 445 846 336 846 l 694 846 l 727 998 l 250 998 q 184 933 184 998 l 184 347 q 109 -174 195 54 q 54 -141 54 -195 q 119 347 130 119 l 119 955 q 228 1063 119 1063 m 1096 781 l 467 781 q 401 716 401 781 l 401 618 l 1161 618 l 1161 716 q 1096 781 1172 781 m 1161 553 l 401 553 l 401 434 q 467 369 401 358 l 1096 369 q 1161 434 1172 358 l 1161 553 m 488 239 q 543 206 543 260 q 282 -141 456 22 q 228 -98 206 -163 q 488 239 391 43 m 1042 239 q 1291 -109 1194 65 q 1237 -141 1291 -163 q 987 195 1128 33 q 1042 239 977 260 z "},"口":{"ha":1389,"x_min":130,"x_max":1248,"o":"m 250 1020 l 1128 1020 q 1237 901 1248 1020 l 1237 11 q 1118 -130 1248 -141 l 239 -130 q 130 0 130 -141 l 130 901 q 250 1020 130 1020 m 1096 955 l 260 955 q 195 901 195 955 l 195 11 q 250 -65 195 -76 l 1118 -65 q 1172 11 1183 -76 l 1172 890 q 1096 955 1183 955 z "},"可":{"ha":1389,"x_min":54,"x_max":1367,"o":"m 109 1020 l 1313 1020 q 1313 955 1367 987 l 1172 955 l 1172 -43 q 911 -195 1172 -206 q 618 -130 781 -184 q 651 -65 575 -76 q 1107 -22 1107 -217 l 1107 955 l 109 955 q 109 1020 54 987 m 304 781 l 803 781 q 911 662 922 781 l 911 260 q 792 152 922 141 l 304 152 q 195 260 195 141 l 195 673 q 304 781 195 781 m 781 716 l 326 716 q 260 662 260 716 l 260 282 q 326 217 260 206 l 792 217 q 846 282 857 206 l 846 640 q 781 716 857 716 z "},"号":{"ha":1389,"x_min":11,"x_max":1367,"o":"m 369 1063 l 1053 1063 q 1172 944 1183 1063 l 1172 781 q 1053 673 1183 662 l 369 673 q 260 781 260 662 l 260 955 q 369 1063 260 1063 m 1107 933 q 1042 998 1118 998 l 391 998 q 326 944 326 998 l 326 803 q 391 738 326 727 l 1042 738 q 1107 792 1118 727 l 1107 933 m 54 564 l 1313 564 q 1313 499 1367 532 l 412 499 l 401 380 q 456 336 401 326 l 1053 336 q 1183 206 1183 336 q 998 -174 1172 -119 q 532 -119 814 -217 q 553 -54 499 -76 q 987 -109 825 -152 q 1118 206 1107 -54 q 1053 271 1118 271 l 456 271 q 336 369 326 260 l 347 499 l 54 499 q 54 564 11 532 z "},"合":{"ha":1389,"x_min":11,"x_max":1356,"o":"m 760 1053 q 1324 640 998 803 q 1291 586 1356 586 q 727 987 977 727 q 673 987 705 1020 q 76 586 456 727 q 43 640 11 586 q 640 1053 423 781 q 760 1053 694 1107 m 293 640 l 1096 640 q 1096 575 1150 608 l 293 575 q 293 640 239 608 m 336 423 l 1042 423 q 1172 304 1183 423 l 1172 -43 q 1042 -163 1183 -174 l 358 -163 q 217 -33 217 -174 l 217 293 q 336 423 217 423 m 1042 358 l 358 358 q 282 293 282 358 l 282 -22 q 358 -98 282 -109 l 1042 -98 q 1107 -33 1118 -109 l 1107 293 q 1042 358 1118 358 z "},"名":{"ha":1389,"x_min":11,"x_max":1313,"o":"m 575 1074 q 618 1031 629 1085 l 553 966 l 1020 966 q 1161 814 1204 966 q 640 401 1085 586 l 1172 401 q 1302 282 1313 401 l 1302 -54 q 1139 -184 1313 -195 l 456 -184 q 336 -54 336 -195 l 336 315 q 65 282 217 293 q 76 347 11 315 q 684 488 488 391 q 304 760 532 618 q 109 640 217 705 q 87 705 43 640 q 575 1074 380 868 m 1020 901 l 488 901 q 358 803 412 846 q 749 521 564 662 q 1096 846 1053 673 q 1020 901 1118 901 m 1161 336 l 488 336 q 401 260 401 336 l 401 -43 q 477 -119 401 -130 l 1161 -119 q 1237 -43 1248 -130 l 1237 260 q 1161 336 1248 336 z "},"向":{"ha":1389,"x_min":152,"x_max":1270,"o":"m 629 1085 q 694 1063 684 1118 q 608 911 662 987 l 1150 911 q 1259 803 1270 911 l 1259 -22 q 1139 -184 1270 -184 q 955 -141 1096 -195 q 977 -76 922 -87 q 1194 -33 1204 -184 l 1194 781 q 1128 846 1204 846 l 304 846 q 217 781 217 846 l 217 -163 q 152 -163 184 -206 l 152 803 q 282 911 152 911 l 521 911 q 629 1085 586 987 m 477 662 l 890 662 q 1020 553 1031 662 l 1020 163 q 890 54 1031 43 l 477 54 q 369 163 369 43 l 369 553 q 477 662 369 662 m 868 597 l 499 597 q 434 532 434 597 l 434 184 q 499 119 434 109 l 868 119 q 955 184 966 109 l 955 532 q 868 597 966 597 z "},"喜":{"ha":1389,"x_min":54,"x_max":1356,"o":"m 684 1096 q 749 1096 716 1139 l 749 987 l 1291 987 q 1291 922 1335 955 l 749 922 l 749 814 l 1270 814 q 1270 749 1313 781 l 163 749 q 163 814 109 781 l 684 814 l 684 922 l 119 922 q 119 987 65 955 l 684 987 l 684 1096 m 336 673 l 1096 673 q 1204 575 1215 673 l 1204 499 q 1096 412 1215 401 l 1042 412 q 998 282 1031 358 l 1313 282 q 1313 217 1356 250 l 98 217 q 98 282 54 250 l 445 282 q 401 412 434 336 l 336 412 q 228 499 228 401 l 228 586 q 336 673 228 673 m 1074 608 l 358 608 q 293 564 293 608 l 293 521 q 358 477 293 467 l 1053 477 q 1139 521 1150 467 l 1139 553 q 1074 608 1150 608 m 977 412 l 467 412 q 510 282 488 369 l 922 282 q 977 412 966 369 m 271 130 l 1139 130 q 1248 22 1259 130 l 1248 -65 q 1139 -174 1259 -184 l 271 -174 q 163 -65 163 -184 l 163 22 q 271 130 163 130 m 1118 65 l 293 65 q 228 0 228 65 l 228 -43 q 293 -109 228 -119 l 1118 -109 q 1183 -43 1194 -119 l 1183 0 q 1118 65 1194 65 z "},"喷":{"ha":1389,"x_min":76,"x_max":1356,"o":"m 206 977 l 271 977 q 380 868 391 977 l 380 98 q 271 -22 391 -33 l 206 -22 q 76 87 76 -33 l 76 868 q 206 977 76 977 m 228 911 q 141 846 141 911 l 141 109 q 228 43 141 33 q 315 109 326 33 l 315 846 q 228 911 326 911 m 629 521 l 1128 521 q 1237 412 1248 521 l 1237 87 q 1172 87 1204 33 l 1172 391 q 1107 456 1183 456 l 651 456 q 586 391 586 456 l 586 65 q 521 65 553 11 l 521 412 q 629 521 521 521 m 911 369 l 911 271 q 499 -184 933 -109 q 488 -119 445 -163 q 846 271 868 -65 l 846 369 q 911 369 879 423 m 966 76 q 1270 -130 1139 -33 q 1226 -184 1280 -184 q 933 11 1074 -76 q 966 76 911 65 m 836 738 l 836 911 l 499 911 q 499 977 456 944 l 836 977 l 836 1085 q 901 1085 868 1128 l 901 977 l 1237 977 q 1237 911 1280 944 l 901 911 l 901 738 l 1063 738 l 1063 846 q 1128 846 1096 890 l 1128 738 l 1302 738 q 1302 673 1356 705 l 1128 673 l 1128 586 q 1063 586 1096 532 l 1063 673 l 694 673 l 694 586 q 629 586 662 532 l 629 673 l 456 673 q 456 738 412 705 l 629 738 l 629 846 q 694 846 662 890 l 694 738 l 836 738 z "},"四":{"ha":1389,"x_min":141,"x_max":1259,"o":"m 250 1020 l 1139 1020 q 1248 911 1259 1020 l 1248 -43 q 1139 -152 1259 -163 l 250 -152 q 141 -43 141 -163 l 141 911 q 250 1020 141 1020 m 510 955 l 271 955 q 206 890 206 955 l 206 -22 q 271 -87 206 -98 l 1118 -87 q 1183 -22 1194 -98 l 1183 217 l 922 217 q 814 326 814 206 l 814 955 l 575 955 l 575 532 q 260 152 575 250 q 250 217 206 174 q 510 532 521 315 l 510 955 m 1118 955 l 879 955 l 879 347 q 944 282 879 271 l 1183 282 l 1183 890 q 1118 955 1194 955 z "},"国":{"ha":1389,"x_min":119,"x_max":1259,"o":"m 250 1053 l 1107 1053 q 1248 922 1259 1053 l 1248 -43 q 1118 -163 1259 -174 l 250 -163 q 119 -43 119 -174 l 119 922 q 250 1053 119 1053 m 1096 987 l 260 987 q 184 911 184 987 l 184 -33 q 260 -98 184 -109 l 1107 -98 q 1183 -33 1194 -109 l 1183 911 q 1096 987 1194 987 m 304 879 l 1063 879 q 1063 814 1118 846 l 705 814 l 705 510 l 1053 510 q 1053 445 1107 477 l 705 445 l 705 76 l 1096 76 q 1096 11 1150 43 l 271 11 q 271 76 217 43 l 640 76 l 640 445 l 326 445 q 326 510 271 477 l 640 510 l 640 814 l 304 814 q 304 879 250 846 m 868 401 q 1020 163 966 260 q 966 130 1020 98 q 814 369 901 239 q 868 401 814 423 z "},"在":{"ha":1389,"x_min":11,"x_max":1356,"o":"m 553 1074 q 618 1063 608 1128 l 586 955 l 1270 955 q 1270 890 1335 922 l 575 890 q 315 456 477 629 l 315 -174 q 250 -174 282 -228 l 250 401 q 76 282 174 326 q 43 336 11 271 q 510 890 358 521 l 98 890 q 98 955 43 922 l 521 955 l 553 1074 m 792 738 q 857 738 825 792 l 857 456 l 1226 456 q 1226 391 1280 423 l 857 391 l 857 -87 l 1313 -87 q 1313 -152 1356 -119 l 380 -152 q 380 -87 326 -119 l 792 -87 l 792 391 l 445 391 q 445 456 391 412 l 792 456 l 792 738 z "},"地":{"ha":1389,"x_min":22,"x_max":1324,"o":"m 901 1096 l 901 781 l 1128 836 q 1259 716 1259 857 q 1248 336 1259 532 q 987 282 1237 206 q 1009 347 955 336 q 1183 358 1183 293 q 1194 705 1194 521 q 1128 770 1194 770 l 901 716 l 901 130 q 836 130 868 76 l 836 694 l 618 640 l 618 0 q 727 -109 629 -119 l 1053 -109 q 1248 195 1259 -130 q 1313 195 1280 250 q 1074 -174 1324 -184 l 716 -174 q 553 0 553 -184 l 553 629 l 412 597 q 401 662 347 618 l 553 694 l 553 955 q 618 955 586 1020 l 618 705 l 836 760 l 836 1096 q 901 1096 868 1139 m 228 1063 q 293 1063 260 1107 l 293 760 l 423 760 q 423 694 477 727 l 293 694 l 293 65 q 456 195 391 130 q 499 141 521 206 q 109 -109 304 -33 q 76 -43 43 -109 q 228 33 130 -22 l 228 694 l 76 694 q 76 760 22 727 l 228 760 l 228 1063 z "},"坊":{"ha":1389,"x_min":11,"x_max":1367,"o":"m 857 1085 q 933 911 901 1009 l 1324 911 q 1324 846 1367 879 l 781 846 l 781 629 l 1128 629 q 1259 488 1270 629 q 1237 54 1270 293 q 977 -195 1194 -163 q 705 -141 814 -195 q 738 -87 684 -87 q 966 -130 857 -130 q 1172 76 1139 -98 q 1194 477 1204 293 q 1118 564 1204 564 l 781 564 q 434 -152 792 -11 q 401 -98 358 -152 q 716 586 738 54 l 716 846 l 467 846 q 467 911 423 879 l 857 911 q 792 1053 825 998 q 857 1085 803 1118 m 239 1053 q 304 1053 271 1107 l 304 781 l 477 781 q 477 716 521 749 l 304 716 l 304 163 q 488 282 412 228 q 521 228 543 282 q 87 -11 315 76 q 76 54 33 11 q 239 130 130 76 l 239 716 l 54 716 q 54 781 11 749 l 239 781 l 239 1053 z "},"坤":{"ha":1389,"x_min":22,"x_max":1302,"o":"m 250 1074 q 315 1074 282 1128 l 315 738 l 456 738 q 456 673 499 705 l 315 673 l 315 109 l 434 195 q 467 130 499 195 q 98 -98 293 11 q 76 -33 22 -87 q 250 76 174 22 l 250 673 l 76 673 q 76 738 33 705 l 250 738 l 250 1074 m 857 1085 q 922 1085 890 1139 l 922 890 l 1172 890 q 1291 770 1302 890 l 1291 239 q 1172 130 1302 119 l 922 130 l 922 -174 q 857 -174 890 -228 l 857 130 l 629 130 q 510 260 510 119 l 510 760 q 629 890 510 890 l 857 890 l 857 1085 m 857 825 l 640 825 q 575 760 575 825 l 575 543 l 857 543 l 857 825 m 1161 825 l 922 825 l 922 543 l 1226 543 l 1226 770 q 1161 825 1237 825 m 857 477 l 575 477 l 575 260 q 640 195 575 184 l 857 195 l 857 477 m 1226 477 l 922 477 l 922 195 l 1161 195 q 1226 260 1237 184 l 1226 477 z "},"复":{"ha":1389,"x_min":22,"x_max":1367,"o":"m 293 1085 q 358 1063 347 1128 l 326 987 l 1248 987 q 1248 922 1291 955 l 293 922 q 119 716 217 803 q 76 770 54 694 q 293 1085 228 922 m 369 836 l 1042 836 q 1150 738 1161 836 l 1150 510 q 1031 401 1161 391 l 477 401 l 423 315 l 1031 315 q 1128 195 1204 315 q 814 -22 998 43 q 1335 -119 1074 -98 q 1324 -184 1367 -152 q 738 -65 1020 -163 q 76 -184 467 -174 q 76 -119 22 -152 q 673 -22 369 -119 q 358 228 510 65 q 98 76 250 130 q 76 141 33 87 q 401 401 315 239 l 358 401 q 250 510 250 401 l 250 705 q 369 836 250 836 m 1020 770 l 380 770 q 315 705 315 770 l 315 651 l 1085 651 l 1085 705 q 1020 770 1096 770 m 1085 586 l 315 586 l 315 532 q 412 467 315 456 l 1020 467 q 1085 532 1096 456 l 1085 586 m 977 250 l 434 250 q 738 11 564 109 q 1042 195 933 87 q 977 250 1096 250 z "},"外":{"ha":1389,"x_min":33,"x_max":1356,"o":"m 966 1096 l 966 651 q 1335 260 1183 456 q 1291 217 1356 195 q 966 564 1118 423 l 966 -174 q 901 -174 933 -217 l 901 1096 q 966 1096 933 1139 m 629 998 q 749 901 749 1009 q 109 -184 749 130 q 65 -130 33 -195 q 553 326 423 65 q 239 564 423 445 q 282 618 228 618 q 586 391 434 521 q 684 868 673 586 q 618 933 684 933 l 347 933 q 98 434 271 651 q 43 477 33 412 q 315 1085 239 727 q 380 1074 358 1118 l 358 998 l 629 998 z "},"夫":{"ha":1389,"x_min":43,"x_max":1356,"o":"m 651 1074 q 716 1074 684 1118 l 716 868 l 1215 868 q 1215 803 1259 836 l 716 803 q 705 456 716 575 l 1259 456 q 1259 391 1302 423 l 814 391 q 1313 -119 987 -33 q 1291 -184 1356 -163 q 749 391 901 -65 l 694 391 q 119 -184 597 -43 q 98 -119 43 -184 q 629 391 521 0 l 130 391 q 130 456 76 423 l 640 456 q 651 803 651 564 l 174 803 q 174 868 119 836 l 651 868 l 651 1074 z "},"头":{"ha":1389,"x_min":54,"x_max":1367,"o":"m 770 1063 l 760 477 l 1324 477 q 1324 412 1367 445 l 803 412 q 1324 -163 1118 76 q 1280 -206 1345 -217 q 749 380 1053 22 q 119 -206 597 -76 q 98 -141 54 -195 q 684 412 564 0 l 98 412 q 98 477 54 445 l 694 477 l 705 1063 q 770 1063 738 1107 m 347 1031 q 597 814 477 944 q 553 760 608 760 q 304 977 445 879 q 347 1031 282 1031 m 184 825 q 456 608 315 738 q 412 553 467 553 q 141 770 282 673 q 184 825 130 825 z "},"奖":{"ha":1389,"x_min":11,"x_max":1367,"o":"m 434 1085 q 499 1085 467 1128 l 499 380 q 434 380 467 326 l 434 1085 m 890 1042 l 1172 1042 q 1291 933 1302 1042 q 629 412 1194 445 q 629 477 586 445 q 987 575 846 488 q 694 836 846 716 q 564 738 640 781 q 532 792 510 738 q 857 1096 727 933 q 911 1063 922 1118 l 890 1042 m 184 1031 q 347 803 282 911 q 293 770 347 738 q 130 998 217 879 q 184 1031 119 1053 m 1150 977 l 846 977 q 749 879 792 922 q 1042 618 879 770 q 1226 922 1172 727 q 1150 977 1226 977 m 347 694 q 391 640 423 705 q 130 391 271 499 q 87 445 65 380 q 347 694 228 553 m 651 369 q 716 369 684 423 l 716 293 l 1324 293 q 1324 228 1367 260 l 770 228 q 1313 -130 944 -65 q 1291 -195 1367 -174 q 705 206 879 -109 q 119 -184 575 -87 q 98 -119 54 -163 q 640 228 521 -33 l 65 228 q 65 293 11 260 l 651 293 l 651 369 z "},"如":{"ha":1389,"x_min":43,"x_max":1302,"o":"m 369 1074 l 347 879 l 608 879 q 705 781 716 879 q 532 130 716 423 q 727 -33 640 33 q 684 -87 749 -98 q 488 76 597 -11 q 98 -195 304 -109 q 76 -130 43 -184 q 434 119 304 -22 q 174 347 239 293 q 163 445 130 380 q 271 814 250 662 l 87 814 q 87 879 43 846 l 282 879 l 304 1074 q 369 1074 336 1118 m 901 987 l 1183 987 q 1291 879 1291 987 l 1291 -33 q 1183 -141 1302 -141 l 901 -141 q 792 -33 792 -163 l 792 879 q 901 987 792 987 m 1161 922 l 922 922 q 857 857 857 922 l 857 -11 q 922 -76 857 -87 l 1161 -76 q 1226 -11 1237 -87 l 1226 857 q 1161 922 1237 922 m 586 814 l 336 814 q 239 445 315 673 q 239 380 217 401 q 477 174 304 326 q 640 760 651 445 q 586 814 640 814 z "},"完":{"ha":1389,"x_min":22,"x_max":1378,"o":"m 673 1085 q 727 955 705 1020 l 1204 955 q 1270 651 1378 955 q 1204 673 1226 618 q 1204 890 1291 890 l 217 890 q 152 825 152 890 l 152 694 q 87 694 119 651 l 87 846 q 195 955 87 955 l 651 955 q 608 1063 640 1009 q 673 1085 629 1118 m 250 694 l 1118 694 q 1118 629 1161 662 l 250 629 q 250 694 206 662 m 87 423 l 1313 423 q 1313 358 1356 391 l 922 358 l 922 -54 q 987 -119 922 -130 l 1194 -119 q 1259 141 1270 -130 q 1324 141 1291 184 q 1194 -184 1335 -206 l 966 -184 q 857 -76 857 -195 l 857 358 l 543 358 q 76 -184 575 -109 q 54 -119 22 -174 q 477 358 510 -54 l 87 358 q 87 423 43 391 z "},"定":{"ha":1389,"x_min":33,"x_max":1367,"o":"m 651 1107 q 738 955 716 1042 l 1172 955 q 1226 651 1356 944 q 1172 684 1172 618 q 1150 890 1270 879 l 250 890 q 184 825 184 890 l 184 651 q 119 651 152 597 l 119 846 q 228 955 119 955 l 662 955 q 597 1063 640 1009 q 651 1107 586 1128 m 271 716 l 1096 716 q 1096 651 1150 684 l 705 651 l 705 369 l 1183 369 q 1183 304 1237 336 l 705 304 l 705 -43 q 1324 -109 922 -119 q 1324 -174 1367 -141 q 304 174 564 -206 q 87 -195 239 -43 q 33 -163 33 -228 q 282 543 293 163 q 347 532 326 597 q 326 260 347 423 q 640 -22 456 54 l 640 651 l 271 651 q 271 716 217 684 z "},"家":{"ha":1389,"x_min":54,"x_max":1367,"o":"m 684 1096 l 716 966 l 1172 966 q 1237 651 1367 966 q 1172 673 1183 608 q 1172 901 1270 901 l 239 901 q 174 836 174 901 l 174 662 q 109 662 141 608 l 109 846 q 228 966 109 966 l 651 966 l 618 1074 q 684 1096 629 1128 m 911 412 q 1335 -43 1085 22 q 1313 -109 1367 -109 q 846 369 1031 -43 l 781 326 q 814 87 825 195 q 629 -195 825 -141 q 369 -163 521 -228 q 401 -98 347 -109 q 618 -130 521 -152 q 749 174 760 -98 q 109 -152 564 0 q 98 -87 54 -130 q 738 250 553 76 q 684 369 716 304 q 152 98 499 195 q 130 152 98 109 q 651 434 521 282 q 575 543 618 488 q 174 369 380 412 q 163 434 119 391 q 662 705 456 499 l 260 705 q 260 770 206 738 l 1085 770 q 1085 705 1128 738 l 738 705 q 618 586 716 662 q 749 391 705 477 q 1009 640 922 488 q 1063 597 1063 651 q 911 412 998 488 z "},"局":{"ha":1389,"x_min":87,"x_max":1270,"o":"m 282 1063 l 1118 1063 q 1237 955 1248 1063 l 1237 890 q 1118 781 1248 770 l 239 781 l 239 651 l 1128 651 q 1259 543 1270 651 l 1259 22 q 716 -141 1248 -260 q 738 -76 673 -87 q 1194 43 1183 -195 l 1194 532 q 1118 586 1204 586 l 239 586 q 152 -163 250 206 q 87 -141 98 -206 q 174 651 195 195 l 174 955 q 282 1063 174 1063 m 1107 998 l 304 998 q 239 933 239 998 l 239 846 l 1107 846 q 1172 901 1183 836 l 1172 944 q 1107 998 1183 998 m 499 456 l 901 456 q 1009 347 1020 456 l 1009 130 q 879 0 1020 -11 l 521 0 q 391 119 391 -11 l 391 358 q 499 456 391 456 m 879 391 l 510 391 q 456 326 456 391 l 456 141 q 521 65 456 54 l 879 65 q 944 130 955 54 l 944 326 q 879 391 955 391 z "},"展":{"ha":1389,"x_min":11,"x_max":1367,"o":"m 260 1053 l 1172 1053 q 1280 944 1291 1053 l 1280 846 q 1172 749 1291 738 l 987 749 q 1020 705 1031 738 l 1020 597 l 1302 597 q 1302 532 1345 564 l 1020 532 l 1020 358 l 1335 358 q 1335 293 1367 326 l 770 293 q 922 76 814 174 q 1248 250 1128 141 q 1291 195 1324 260 q 977 22 1172 87 q 1324 -130 1150 -109 q 1313 -195 1367 -174 q 694 293 857 -119 l 488 293 l 488 -54 q 749 0 488 -174 q 781 -65 814 0 q 423 -98 445 -260 l 423 293 l 260 293 q 260 358 217 326 l 543 358 l 543 532 l 282 532 q 282 597 228 564 l 543 597 l 543 705 q 575 749 543 738 l 217 749 l 217 315 q 87 -174 228 43 q 33 -130 11 -206 q 152 315 163 43 l 152 944 q 260 1053 152 1042 m 1150 987 l 282 987 q 217 922 217 987 l 217 814 l 1150 814 q 1215 868 1226 803 l 1215 922 q 1150 987 1226 987 m 955 705 q 987 749 955 738 l 575 749 q 608 705 618 738 l 608 597 l 955 597 l 955 705 m 955 532 l 608 532 l 608 358 l 955 358 l 955 532 z "},"山":{"ha":1389,"x_min":119,"x_max":1259,"o":"m 662 1031 q 727 1031 694 1074 l 727 -76 l 1118 -76 q 1183 -11 1194 -87 l 1183 901 q 1248 901 1215 944 l 1248 -33 q 1139 -141 1259 -152 l 228 -141 q 119 -33 119 -152 l 119 901 q 184 901 152 944 l 184 -11 q 250 -76 184 -87 l 662 -76 l 662 1031 z "},"州":{"ha":1389,"x_min":54,"x_max":1248,"o":"m 380 1063 l 380 488 q 152 -206 401 54 q 119 -152 98 -206 q 315 488 326 87 l 315 1063 q 380 1063 347 1107 m 1248 1063 l 1248 -174 q 1183 -174 1215 -228 l 1183 1063 q 1248 1063 1215 1096 m 814 1020 l 814 -87 q 749 -87 781 -130 l 749 1020 q 814 1020 781 1063 m 922 825 q 1139 184 1063 477 q 1074 174 1118 130 q 857 803 987 467 q 922 825 868 857 m 228 803 q 109 174 239 412 q 54 206 54 141 q 163 803 174 445 q 228 803 195 846 m 532 803 q 684 184 629 510 q 618 174 651 130 q 467 781 564 499 q 532 803 488 836 z "},"已":{"ha":1389,"x_min":87,"x_max":1324,"o":"m 130 1031 l 1042 1031 q 1150 922 1161 1031 l 1150 575 q 1009 445 1161 434 l 195 445 l 195 0 q 282 -98 195 -109 l 1085 -98 q 1237 228 1259 -130 q 1302 228 1270 271 q 1096 -163 1324 -195 l 260 -163 q 130 -33 141 -174 l 130 640 q 195 640 163 705 l 195 510 l 998 510 q 1085 586 1096 499 l 1085 901 q 1020 966 1096 966 l 130 966 q 130 1031 87 998 z "},"布":{"ha":1389,"x_min":0,"x_max":1356,"o":"m 629 1063 q 684 1031 684 1085 q 597 868 640 944 l 1313 868 q 1313 803 1356 836 l 575 803 q 401 564 499 662 l 738 564 l 738 716 q 803 716 770 770 l 803 564 l 1139 564 q 1248 456 1259 564 l 1248 54 q 977 -22 1259 -119 q 998 43 944 33 q 1183 65 1194 -43 l 1183 434 q 1118 499 1194 499 l 803 499 l 803 -174 q 738 -174 770 -228 l 738 499 l 401 499 l 380 488 l 380 -43 q 315 -43 347 -98 l 315 477 q 65 293 206 369 q 43 358 0 293 q 499 803 347 543 l 130 803 q 130 868 87 836 l 532 868 q 629 1063 575 955 z "},"年":{"ha":1389,"x_min":54,"x_max":1335,"o":"m 391 1074 q 456 1063 445 1128 l 423 977 l 1270 977 q 1270 911 1313 944 l 781 911 l 781 608 l 1248 608 q 1248 543 1291 575 l 781 543 l 781 217 l 1291 217 q 1291 152 1335 184 l 781 152 l 781 -184 q 716 -184 749 -228 l 716 152 l 109 152 q 109 217 54 184 l 293 217 l 293 488 q 391 608 293 597 l 716 608 l 716 911 l 391 911 q 130 586 293 727 q 87 640 54 575 q 391 1074 304 836 m 716 217 l 716 543 l 412 543 q 358 477 358 543 l 358 217 l 716 217 z "},"并":{"ha":1389,"x_min":33,"x_max":1335,"o":"m 456 1085 q 575 825 521 966 l 836 825 q 977 1074 911 933 q 1042 1042 1031 1107 q 922 825 987 922 l 1259 825 q 1259 760 1313 792 l 998 760 l 998 412 l 1291 412 q 1291 347 1335 380 l 998 347 l 998 -184 q 933 -184 966 -228 l 933 347 l 477 347 q 228 -195 499 -11 q 184 -152 163 -206 q 412 347 434 43 l 87 347 q 87 412 33 380 l 412 412 l 412 760 l 152 760 q 152 825 98 792 l 499 825 q 391 1053 445 955 q 456 1085 401 1118 m 933 760 l 477 760 l 477 412 l 933 412 l 933 760 z "},"庆":{"ha":1389,"x_min":65,"x_max":1335,"o":"m 760 1096 q 825 955 814 998 l 1280 955 q 1280 890 1335 922 l 315 890 q 239 814 239 890 l 239 434 q 119 -174 250 65 q 65 -141 65 -206 q 174 434 184 109 l 174 825 q 293 955 174 955 l 749 955 q 694 1063 727 1020 q 760 1096 705 1118 m 738 836 q 803 836 770 890 q 792 597 803 705 l 1280 597 q 1280 532 1335 564 l 836 532 q 1302 -130 998 33 q 1270 -184 1335 -184 q 781 499 933 -11 q 282 -195 694 76 q 250 -141 217 -195 q 716 532 662 141 l 304 532 q 304 597 260 564 l 727 597 q 738 836 738 684 z "},"引":{"ha":1389,"x_min":98,"x_max":1226,"o":"m 141 1074 l 727 1074 q 836 966 846 1063 l 836 781 q 716 662 846 651 l 293 662 q 228 597 228 662 l 228 445 q 293 380 228 369 l 727 380 q 836 271 846 369 q 749 -119 846 -43 q 467 -184 662 -206 q 184 -109 293 -163 q 217 -54 163 -54 q 694 -76 586 -174 q 770 250 781 -22 q 705 315 770 315 l 271 315 q 163 434 163 304 l 163 608 q 271 727 174 727 l 705 727 q 770 792 781 716 l 770 944 q 705 1009 781 1009 l 141 1009 q 141 1074 98 1042 m 1226 1053 l 1226 -184 q 1161 -184 1194 -228 l 1161 1053 q 1226 1053 1194 1096 z "},"张":{"ha":1389,"x_min":76,"x_max":1367,"o":"m 738 1042 l 738 499 l 1313 499 q 1313 434 1356 467 l 998 434 q 1345 -119 1053 43 q 1302 -174 1367 -184 q 933 434 977 0 l 738 434 l 738 -76 q 944 0 749 -184 q 987 -54 1009 22 q 814 -184 911 -141 q 673 -87 673 -228 l 673 434 l 553 434 q 553 499 510 467 l 673 499 l 673 1042 q 738 1042 705 1096 m 119 1042 l 391 1042 q 499 933 510 1042 l 499 738 q 391 629 510 618 l 228 629 q 163 564 163 629 l 163 434 q 228 369 163 358 l 401 369 q 510 260 521 369 l 510 0 q 336 -184 521 -174 q 130 -119 260 -184 q 152 -54 98 -65 q 445 11 456 -195 l 445 239 q 380 304 456 304 l 206 304 q 98 401 98 293 l 98 597 q 206 694 109 694 l 369 694 q 434 760 445 684 l 434 911 q 369 977 445 977 l 119 977 q 119 1042 76 1009 m 1139 1020 q 1194 977 1215 1042 q 825 564 1074 705 q 792 629 749 564 q 1139 1020 1020 760 z "},"录":{"ha":1389,"x_min":54,"x_max":1367,"o":"m 250 477 q 488 282 380 380 q 445 228 510 217 q 206 423 315 347 q 250 477 184 477 m 575 293 q 629 250 651 326 q 141 -130 434 11 q 109 -65 65 -130 q 575 293 412 76 m 1118 499 q 1172 456 1194 521 q 955 271 1063 347 q 911 326 879 260 q 1118 499 1031 401 m 998 608 l 1009 760 l 304 760 q 304 825 260 792 l 1009 825 l 1020 922 q 944 977 1031 977 l 260 977 q 260 1042 217 1009 l 944 1042 q 1085 911 1107 1042 l 1063 608 l 1313 608 q 1313 543 1367 575 l 749 543 l 749 423 q 1324 -65 966 87 q 1302 -130 1367 -119 q 749 315 955 11 l 749 -65 q 618 -184 760 -195 q 456 -141 543 -174 q 488 -76 434 -87 q 684 -43 705 -174 l 684 543 l 98 543 q 98 608 54 575 l 998 608 z "},"形":{"ha":1389,"x_min":33,"x_max":1335,"o":"m 1161 1074 q 1215 1031 1215 1085 q 749 684 1042 803 q 716 738 705 684 q 1161 1074 998 857 m 98 1031 l 792 1031 q 792 966 846 998 l 640 966 l 640 532 l 814 532 q 814 467 857 499 l 640 467 l 640 -163 q 575 -163 608 -217 l 575 467 l 293 467 q 130 -184 304 0 q 76 -152 65 -217 q 228 467 239 54 l 76 467 q 76 532 33 499 l 228 532 l 228 966 l 98 966 q 98 1031 54 998 m 575 966 l 293 966 l 293 532 l 575 532 l 575 966 m 1237 727 q 1291 684 1302 738 q 749 271 1074 380 q 716 326 694 271 q 1237 727 1042 445 m 1335 315 q 770 -174 1118 -54 q 749 -109 716 -174 q 1280 358 1085 11 q 1335 315 1335 369 z "},"影":{"ha":1389,"x_min":33,"x_max":1345,"o":"m 260 1063 l 629 1063 q 738 955 749 1063 l 738 781 q 629 673 749 662 l 456 673 q 488 586 477 629 l 803 586 q 803 521 857 553 l 87 521 q 87 586 33 553 l 423 586 q 391 673 412 618 l 260 673 q 152 770 152 662 l 152 955 q 260 1063 152 1063 m 1161 1053 q 1215 1009 1226 1085 q 846 716 1096 846 q 814 781 781 716 q 1161 1053 1053 901 m 608 998 l 282 998 q 217 933 217 998 l 217 901 l 673 901 l 673 933 q 608 998 684 998 m 673 836 l 217 836 l 217 803 q 282 738 217 727 l 608 738 q 673 792 684 727 l 673 836 m 1237 738 q 1291 694 1302 760 q 846 293 1118 434 q 814 358 781 293 q 1237 738 1085 499 m 260 434 l 629 434 q 738 347 749 434 l 738 271 q 640 184 749 174 l 499 184 l 499 -43 q 282 -174 521 -228 q 304 -109 239 -119 q 434 -43 445 -163 l 434 184 l 260 184 q 152 271 163 174 l 152 347 q 260 434 163 434 m 673 326 q 618 369 684 369 l 282 369 q 217 326 217 369 l 217 304 q 282 250 217 239 l 629 250 q 673 304 684 239 l 673 326 m 1291 347 q 1345 304 1345 369 q 836 -163 1150 0 q 803 -98 770 -163 q 1291 347 1096 54 m 239 119 q 293 87 293 141 q 174 -109 260 0 q 119 -65 109 -130 q 239 119 195 11 m 586 87 q 640 130 575 152 q 749 -87 705 33 q 684 -109 749 -152 q 586 87 662 -54 z "},"得":{"ha":1389,"x_min":33,"x_max":1367,"o":"m 673 1063 l 1096 1063 q 1215 955 1226 1063 l 1215 705 q 1096 586 1226 575 l 673 586 q 564 694 564 575 l 564 955 q 673 1063 564 1063 m 1085 998 l 694 998 q 629 933 629 998 l 629 868 l 1150 868 l 1150 944 q 1085 998 1161 998 m 1150 803 l 629 803 l 629 716 q 694 651 629 640 l 1085 651 q 1150 716 1161 640 l 1150 803 m 640 195 q 857 -11 749 109 q 803 -54 868 -76 q 597 141 716 43 q 640 195 575 206 m 532 423 q 532 488 488 456 l 1248 488 q 1248 423 1291 456 l 1150 423 l 1150 293 l 1324 293 q 1324 228 1367 260 l 1150 228 l 1150 -65 q 868 -163 1161 -228 q 879 -87 825 -119 q 1085 -43 1107 -163 l 1085 228 l 467 228 q 467 293 412 260 l 1085 293 l 1085 423 l 532 423 m 358 1107 q 423 1085 401 1139 q 119 673 304 814 q 76 727 65 662 q 358 1107 271 901 m 445 825 q 499 792 499 846 q 347 521 456 673 l 347 -174 q 282 -174 315 -217 l 282 445 q 87 282 174 326 q 54 336 33 282 q 445 825 315 521 z "},"徽":{"ha":1389,"x_min":33,"x_max":1356,"o":"m 629 1074 l 629 836 l 738 836 q 803 901 814 825 l 803 1031 q 868 1031 836 1074 l 868 879 q 760 770 879 760 l 456 770 q 347 879 347 760 l 347 1031 q 412 1031 380 1074 l 412 890 q 467 836 412 825 l 564 836 l 564 1074 q 629 1074 597 1118 m 239 1031 q 304 1020 282 1074 q 119 673 250 825 q 65 705 65 640 q 239 1031 195 868 m 1020 1053 l 1020 922 l 1313 922 q 1313 857 1356 890 l 1259 857 q 1161 184 1270 521 q 1356 -141 1248 0 q 1302 -174 1356 -195 q 1128 98 1183 -22 q 944 -174 1042 -65 q 890 -141 890 -195 q 1085 174 1009 0 q 966 564 1020 326 q 890 369 944 456 q 836 401 836 347 q 955 1053 966 684 q 1020 1053 987 1096 m 1194 857 l 1020 857 q 998 705 1009 727 q 1118 282 1063 423 q 1194 857 1194 553 m 260 694 q 326 684 304 738 q 239 477 293 575 l 239 -174 q 174 -174 206 -217 l 174 369 q 87 260 141 315 q 43 304 33 250 q 260 694 206 521 m 445 130 q 510 109 499 174 q 358 -152 434 -54 q 304 -109 293 -174 q 445 130 391 11 m 369 684 l 868 684 q 868 618 911 651 l 521 618 q 553 575 564 608 q 434 423 521 510 l 586 434 q 694 575 651 510 q 749 543 738 597 q 467 239 640 380 l 770 260 l 716 358 q 770 391 716 412 q 901 130 846 271 q 836 109 890 54 l 792 206 l 651 195 l 651 -98 q 456 -163 662 -217 q 467 -98 412 -119 q 586 -76 597 -141 l 586 184 l 358 163 q 326 217 293 163 q 521 369 467 315 l 380 358 q 358 434 304 358 q 499 618 445 521 l 369 618 q 369 684 315 651 m 705 119 q 760 152 705 174 q 868 -87 825 33 q 803 -109 846 -152 q 705 119 781 -43 z "},"心":{"ha":1389,"x_min":65,"x_max":1324,"o":"m 716 1074 q 868 250 846 553 q 803 239 836 195 q 651 1053 781 521 q 716 1074 673 1107 m 499 977 l 499 43 q 618 -109 499 -119 l 911 -109 q 1042 195 1063 -141 q 1107 195 1074 239 q 933 -174 1128 -195 l 618 -174 q 434 33 434 -184 l 434 977 q 499 977 467 1020 m 260 879 q 130 -65 271 434 q 65 -43 76 -98 q 195 890 206 477 q 260 879 239 933 m 1128 911 q 1324 0 1259 499 q 1259 -11 1302 -54 q 1063 890 1215 401 q 1128 911 1085 944 z "},"必":{"ha":1389,"x_min":43,"x_max":1335,"o":"m 521 1020 q 575 1053 521 1085 q 792 477 716 760 q 727 456 770 412 q 521 1020 662 716 m 1031 1031 q 445 0 987 250 q 553 -54 456 -65 l 933 -54 q 1042 250 1063 -65 q 1107 250 1074 304 q 955 -119 1128 -141 l 532 -119 q 380 -22 391 -130 q 109 -98 260 -76 q 98 -33 43 -76 q 380 43 239 -11 l 380 922 q 445 922 423 977 l 445 76 q 966 1031 922 315 q 1031 1031 998 1074 m 239 803 q 130 109 228 391 q 65 130 76 76 q 174 803 163 445 q 239 803 206 846 m 1161 803 q 1335 87 1280 434 q 1270 76 1313 22 q 1096 781 1204 423 q 1161 803 1107 846 z "},"态":{"ha":1389,"x_min":22,"x_max":1367,"o":"m 662 1074 q 727 1074 705 1118 l 705 933 l 1291 933 q 1291 868 1335 901 l 749 868 q 1324 510 966 575 q 1313 445 1367 467 q 684 846 890 532 q 76 445 510 532 q 54 510 22 456 q 618 868 467 586 l 119 868 q 119 933 76 890 l 640 933 l 662 1074 m 608 618 q 662 662 608 673 q 803 434 760 543 q 749 401 803 391 q 608 618 684 521 m 499 347 l 499 -22 q 586 -109 499 -119 l 890 -109 q 998 130 1009 -130 q 1063 130 1031 174 q 911 -174 1085 -195 l 564 -174 q 434 -43 434 -195 l 434 347 q 499 347 467 391 m 651 336 q 705 380 640 401 q 879 11 814 195 q 814 -22 868 -43 q 651 336 770 119 m 217 326 q 282 315 260 369 q 130 -152 239 33 q 65 -119 76 -184 q 217 326 184 87 m 1107 347 q 1324 -98 1259 109 q 1259 -119 1313 -163 q 1053 304 1194 87 q 1107 347 1053 358 z "},"恭":{"ha":1389,"x_min":0,"x_max":1356,"o":"m 499 1063 l 499 933 l 890 933 l 890 1063 q 955 1063 922 1118 l 955 933 l 1237 933 q 1237 868 1291 901 l 955 868 l 955 629 l 1280 629 q 1280 564 1335 597 l 933 564 q 1335 228 1085 369 q 1302 174 1356 174 q 846 564 1042 304 l 553 564 q 65 195 358 315 q 43 260 0 206 q 467 564 315 380 l 87 564 q 87 629 33 597 l 434 629 l 434 868 l 130 868 q 130 933 76 901 l 434 933 l 434 1063 q 499 1063 467 1118 m 890 868 l 499 868 l 499 629 l 890 629 l 890 868 m 608 488 q 673 488 640 543 l 673 -76 q 553 -184 684 -184 q 326 -130 467 -184 q 358 -65 293 -65 q 608 -65 618 -163 l 608 488 m 803 347 q 944 -65 922 43 q 879 -87 933 -130 q 738 326 825 119 q 803 347 760 380 m 944 326 q 998 358 944 380 q 1259 -43 1150 163 q 1194 -65 1248 -109 q 944 326 1085 130 m 412 336 q 477 304 467 358 q 174 -87 380 98 q 130 -33 109 -87 q 412 336 326 152 z "},"戏":{"ha":1389,"x_min":43,"x_max":1335,"o":"m 857 1074 q 868 760 857 933 l 1280 760 q 1280 694 1335 727 l 868 694 q 966 195 890 412 q 1150 586 1085 391 q 1215 553 1204 608 q 998 119 1139 347 q 1194 -119 1096 -87 q 1248 174 1259 -141 q 1313 174 1280 217 q 1204 -195 1324 -195 q 944 76 1085 -195 q 629 -174 825 -54 q 597 -119 564 -184 q 911 141 792 0 q 803 694 825 401 l 608 694 q 608 760 575 727 l 803 760 q 792 1074 792 933 q 857 1074 825 1118 m 1020 1085 q 1226 857 1107 1009 q 1172 814 1237 792 q 977 1031 1053 966 q 1020 1085 966 1085 m 119 901 l 445 901 q 564 792 575 901 q 434 260 553 488 q 597 -22 521 130 q 543 -54 608 -87 q 391 206 477 65 q 98 -152 271 0 q 54 -109 43 -163 q 347 260 228 65 q 141 575 250 412 q 195 618 141 640 q 391 315 304 456 q 499 781 488 532 q 434 836 510 836 l 119 836 q 119 901 76 857 z "},"成":{"ha":1389,"x_min":22,"x_max":1324,"o":"m 836 836 q 933 260 857 510 q 1096 651 1053 456 q 1161 640 1139 694 q 966 184 1107 412 q 1194 -119 1085 -65 q 1248 184 1259 -119 q 1313 184 1280 239 q 1259 -174 1324 -109 q 1161 -184 1226 -206 q 911 141 1031 -109 q 477 -152 749 -33 q 456 -87 412 -141 q 879 206 705 22 q 770 836 792 467 l 293 836 q 206 749 206 836 l 206 597 l 488 597 q 618 456 629 597 l 597 141 q 239 98 575 -76 q 271 163 206 163 q 532 152 532 22 l 553 445 q 467 532 564 532 l 206 532 l 206 401 q 76 -174 217 22 q 22 -141 22 -206 q 141 401 152 87 l 141 760 q 293 901 141 901 l 770 901 l 760 1074 q 825 1074 792 1128 l 836 901 l 1172 901 l 1096 1020 q 1150 1063 1096 1074 q 1313 770 1237 933 q 1259 738 1313 705 q 1204 836 1226 792 l 836 836 z "},"所":{"ha":1389,"x_min":54,"x_max":1367,"o":"m 662 1085 q 673 1020 716 1063 q 293 955 532 977 q 228 890 228 955 l 228 760 l 521 760 q 629 651 640 760 l 629 369 q 521 260 640 250 l 228 260 q 119 -184 228 11 q 65 -141 54 -206 q 163 326 174 54 l 163 901 q 260 1020 163 1009 q 662 1085 467 1031 m 1248 1085 q 1259 1020 1302 1063 q 890 966 1085 977 q 825 901 825 966 l 825 673 l 1324 673 q 1324 608 1367 640 l 1172 608 l 1172 -184 q 1107 -184 1139 -228 l 1107 608 l 825 608 l 825 434 q 564 -184 846 43 q 521 -130 488 -195 q 760 434 781 87 l 760 911 q 879 1031 760 1031 q 1248 1085 1085 1042 m 499 694 l 228 694 l 228 326 l 499 326 q 564 391 575 315 l 564 629 q 499 694 575 694 z "},"扇":{"ha":1389,"x_min":43,"x_max":1302,"o":"m 705 1107 q 781 977 760 1042 l 1161 977 q 1270 868 1280 977 l 1270 749 q 1161 651 1280 640 l 250 651 l 250 369 q 109 -195 271 54 q 54 -152 43 -217 q 184 369 195 65 l 184 846 q 315 977 184 977 l 716 977 q 662 1063 694 1020 q 705 1107 651 1118 m 1139 911 l 315 911 q 250 846 250 911 l 250 716 l 1139 716 q 1204 781 1215 705 l 1204 846 q 1139 911 1215 911 m 315 543 l 640 543 q 749 434 760 543 l 749 -98 q 640 -217 760 -217 q 456 -163 532 -206 q 477 -98 423 -109 q 684 -87 694 -206 l 684 412 q 618 477 694 477 l 315 477 q 315 543 271 510 m 825 543 l 1161 543 q 1291 423 1302 543 l 1291 -87 q 1194 -217 1302 -195 q 1009 -174 1118 -228 q 1031 -109 966 -119 q 1226 -76 1237 -206 l 1226 412 q 1161 477 1237 477 l 825 477 q 825 543 781 510 m 304 -43 q 586 217 467 65 q 640 174 651 239 q 326 -109 499 -11 q 304 -43 260 -109 m 1150 228 q 1204 184 1215 250 q 890 -87 1074 33 q 857 -22 825 -87 q 1150 228 1020 76 m 347 391 q 401 423 347 445 q 521 228 467 336 q 467 195 521 174 q 347 391 401 304 m 879 380 q 933 423 868 445 q 1074 228 1020 304 q 1020 184 1085 163 q 879 380 955 282 z "},"执":{"ha":1389,"x_min":33,"x_max":1324,"o":"m 336 1074 l 336 792 l 510 792 q 510 727 553 760 l 336 727 l 336 412 q 477 499 423 456 q 510 445 543 499 q 336 336 467 412 l 336 -11 q 98 -119 347 -217 q 130 -54 65 -54 q 271 -11 282 -130 l 271 304 q 87 228 206 271 q 65 293 43 228 q 271 380 184 336 l 271 727 l 76 727 q 76 792 33 760 l 271 792 l 271 1074 q 336 1074 304 1118 m 814 1053 l 814 836 l 1031 836 q 1139 727 1150 836 l 1139 380 q 1204 -76 1150 -65 q 1248 184 1248 -109 q 1313 184 1280 228 q 1215 -163 1324 -152 q 1074 391 1074 -174 l 1074 705 q 1009 770 1085 770 l 814 770 q 792 336 825 543 q 977 0 922 119 q 911 -22 966 -65 q 770 250 846 109 q 543 -174 705 22 q 488 -130 488 -195 q 716 315 662 87 q 564 532 629 445 q 608 586 553 597 q 738 412 684 488 q 749 770 760 608 l 553 770 q 553 836 510 803 l 749 836 l 749 1053 q 814 1053 781 1096 z "},"批":{"ha":1389,"x_min":54,"x_max":1324,"o":"m 640 1042 l 640 651 l 868 651 q 868 586 911 618 l 640 586 l 640 -33 q 836 54 629 -109 q 879 0 901 65 q 575 -65 575 -228 l 575 1042 q 640 1042 608 1096 m 987 1042 l 987 564 q 1237 933 1150 738 q 1302 901 1291 966 q 987 477 1183 651 l 987 -43 q 1053 -109 987 -119 l 1161 -109 q 1248 152 1259 -119 q 1313 152 1280 195 q 1161 -174 1324 -206 l 1031 -174 q 922 -65 922 -184 l 922 1042 q 987 1042 955 1085 m 271 716 l 98 716 q 98 781 54 749 l 271 781 l 271 1042 q 336 1042 304 1085 l 336 781 l 488 781 q 488 716 532 749 l 336 716 l 336 401 q 477 488 412 445 q 510 434 532 499 q 336 326 445 380 l 336 -76 q 87 -130 347 -206 q 109 -65 54 -76 q 271 -54 282 -130 l 271 304 q 109 250 206 271 q 87 315 54 260 q 271 380 195 336 l 271 716 z "},"折":{"ha":1389,"x_min":22,"x_max":1367,"o":"m 369 1085 l 369 825 l 553 825 q 553 760 597 792 l 369 760 l 369 423 q 532 510 456 467 q 564 456 586 510 q 369 347 488 401 l 369 -33 q 87 -109 380 -217 q 119 -43 54 -43 q 304 -33 315 -130 l 304 315 q 87 239 174 260 q 76 304 22 260 q 304 391 184 336 l 304 760 l 87 760 q 87 825 43 792 l 304 825 l 304 1085 q 369 1085 336 1128 m 1204 1074 q 1215 1009 1259 1053 q 760 944 1009 955 q 694 890 694 944 l 694 651 l 1324 651 q 1324 586 1367 618 l 1074 586 l 1074 -163 q 1009 -163 1042 -217 l 1009 586 l 694 586 q 499 -174 705 109 q 445 -130 434 -195 q 629 575 640 130 l 629 901 q 749 1009 629 998 q 1204 1074 987 1020 z "},"握":{"ha":1389,"x_min":22,"x_max":1356,"o":"m 488 423 l 488 933 q 608 1053 488 1053 l 1139 1053 q 1248 944 1259 1053 l 1248 857 q 1139 749 1259 738 l 553 749 l 553 662 l 1270 662 q 1270 597 1324 629 l 846 597 q 727 347 792 445 l 1161 380 q 1053 521 1085 488 q 1107 564 1053 575 q 1313 271 1237 412 q 1259 239 1313 217 q 1204 326 1237 271 l 944 304 l 944 141 l 1248 141 q 1248 76 1291 109 l 944 76 l 944 -98 l 1313 -98 q 1313 -163 1356 -130 l 510 -163 q 510 -98 467 -130 l 879 -98 l 879 76 l 575 76 q 575 141 532 109 l 879 141 l 879 293 l 684 282 q 629 336 618 271 q 770 597 716 434 l 553 597 l 553 412 q 412 -152 575 43 q 358 -109 358 -174 q 488 423 499 65 m 1118 987 l 629 987 q 553 911 553 987 l 553 814 l 1118 814 q 1183 879 1194 803 l 1183 922 q 1118 987 1194 987 m 228 1074 q 293 1074 260 1118 l 293 792 l 423 792 q 423 727 467 760 l 293 727 l 293 434 l 412 499 q 434 434 467 488 l 293 358 l 293 -87 q 65 -152 315 -228 q 87 -87 22 -87 q 228 -87 250 -141 l 228 326 l 76 250 q 43 304 22 250 l 228 401 l 228 727 l 76 727 q 76 792 33 760 l 228 792 l 228 1074 z "},"摇":{"ha":1389,"x_min":11,"x_max":1367,"o":"m 293 1063 l 293 803 l 445 803 q 445 738 488 770 l 293 738 l 293 412 q 412 510 358 456 q 445 445 477 510 q 293 336 391 391 l 293 -54 q 76 -141 315 -217 q 98 -76 43 -87 q 228 -54 239 -141 l 228 293 q 76 217 174 260 q 43 271 11 217 q 228 369 152 326 l 228 738 l 76 738 q 76 803 33 770 l 228 803 l 228 1063 q 293 1063 260 1107 m 1226 1085 q 1248 1020 1291 1063 q 532 922 911 922 q 521 987 477 933 q 1226 1085 901 987 m 1194 922 q 1259 901 1248 966 q 1139 640 1215 749 q 1074 673 1074 608 q 1194 922 1150 781 m 890 879 q 944 673 933 749 q 879 662 911 608 q 825 857 868 727 q 890 879 836 911 m 684 640 q 738 608 738 662 q 694 543 716 564 l 1226 543 q 1226 477 1280 510 l 922 477 l 922 282 l 1324 282 q 1324 217 1367 250 l 922 217 l 922 -87 l 1096 -87 q 1183 -11 1194 -98 l 1183 130 q 1248 130 1215 174 l 1248 -33 q 1118 -152 1259 -163 l 640 -152 q 510 -22 510 -163 l 510 130 q 575 130 543 174 l 575 0 q 662 -87 575 -98 l 857 -87 l 857 217 l 477 217 q 477 282 423 250 l 857 282 l 857 477 l 651 477 q 499 336 575 391 q 467 391 434 336 q 684 640 564 467 m 553 825 q 608 868 543 890 q 705 684 673 770 q 640 662 684 629 q 553 825 597 760 z "},"文":{"ha":1389,"x_min":0,"x_max":1345,"o":"m 629 1053 q 694 1085 640 1118 q 760 901 727 1020 l 1302 901 q 1302 836 1345 868 l 1074 836 q 770 152 1020 445 q 1302 -119 1009 -33 q 1280 -184 1335 -174 q 716 98 977 -98 q 65 -184 445 -98 q 43 -119 0 -174 q 662 152 412 -33 q 336 836 412 401 l 98 836 q 98 901 43 868 l 684 901 q 629 1053 673 977 m 1009 836 l 412 836 q 716 195 477 434 q 1009 836 944 467 z "},"斟":{"ha":1389,"x_min":0,"x_max":1367,"o":"m 271 1085 l 271 977 l 618 977 l 618 1085 q 684 1085 651 1128 l 684 977 l 836 977 q 836 911 879 944 l 684 911 l 684 412 l 857 412 q 857 347 901 380 l 195 347 l 195 -22 q 315 -87 195 -98 l 792 -87 q 792 -152 836 -119 l 239 -152 q 130 -43 130 -163 l 130 347 l 43 347 q 43 412 0 380 l 206 412 l 206 911 l 98 911 q 98 977 54 944 l 206 977 l 206 1085 q 271 1085 239 1128 m 922 955 q 1107 694 1042 803 q 1042 662 1107 618 q 879 901 977 770 q 922 955 868 966 m 618 911 l 271 911 l 271 803 l 618 803 l 618 911 m 618 738 l 271 738 l 271 608 l 618 608 l 618 738 m 879 640 q 1063 380 1020 467 q 998 347 1063 304 q 825 597 955 423 q 879 640 814 662 m 618 543 l 271 543 l 271 412 l 618 412 l 618 543 m 391 271 q 456 250 445 326 q 326 -33 423 119 q 271 11 260 -54 q 391 271 358 152 m 1161 1063 q 1226 1063 1194 1118 l 1226 228 l 1324 260 q 1335 195 1367 239 l 1226 163 l 1226 -174 q 1161 -174 1194 -228 l 1161 152 l 836 54 q 814 119 760 65 l 1161 217 l 1161 1063 m 618 293 q 760 0 705 152 q 694 -22 749 -76 q 564 250 640 119 q 618 293 553 315 z "},"方":{"ha":1389,"x_min":11,"x_max":1367,"o":"m 673 1096 q 760 933 738 998 l 1313 933 q 1313 868 1367 901 l 510 868 q 488 629 499 727 l 1063 629 q 1204 499 1215 629 q 1161 43 1215 293 q 922 -195 1107 -184 q 564 -119 705 -184 q 597 -65 532 -65 q 922 -130 770 -130 q 1096 65 1053 -119 q 1139 488 1150 304 q 1053 564 1150 564 l 477 564 q 98 -184 412 76 q 54 -141 33 -195 q 445 868 423 174 l 54 868 q 54 933 11 901 l 694 933 q 618 1063 662 998 q 673 1096 618 1128 z "},"旗":{"ha":1389,"x_min":11,"x_max":1367,"o":"m 532 911 q 532 846 575 879 l 250 846 l 250 673 l 380 673 q 510 543 521 673 l 510 0 q 217 -109 521 -184 q 239 -43 184 -54 q 445 22 456 -109 l 445 521 q 358 608 456 608 l 250 608 q 76 -141 260 109 q 22 -98 11 -174 q 184 564 184 141 l 184 846 l 65 846 q 65 911 11 879 l 293 911 q 217 1053 271 987 q 282 1085 228 1107 q 369 911 347 987 l 532 911 m 770 825 l 770 738 l 1096 738 l 1096 825 q 1161 825 1128 868 l 1161 738 l 1259 738 q 1259 673 1302 705 l 1161 673 l 1161 174 l 1324 174 q 1324 109 1367 141 l 564 109 q 564 174 532 141 l 705 174 l 705 673 l 629 673 q 629 738 586 705 l 705 738 l 705 825 q 770 825 738 879 m 1096 673 l 770 673 l 770 553 l 1096 553 l 1096 673 m 1096 488 l 770 488 l 770 369 l 1096 369 l 1096 488 m 1096 304 l 770 304 l 770 174 l 1096 174 l 1096 304 m 814 76 q 868 33 879 98 q 597 -174 738 -109 q 575 -109 532 -163 q 814 76 705 -43 m 1020 43 q 1074 87 1009 98 q 1291 -141 1204 -33 q 1237 -174 1291 -206 q 1020 43 1128 -54 m 684 1096 q 749 1085 727 1139 q 727 977 738 1009 l 1291 977 q 1291 911 1335 944 l 705 911 q 553 673 640 781 q 499 705 488 640 q 684 1096 662 911 z "},"明":{"ha":1389,"x_min":109,"x_max":1291,"o":"m 825 1063 l 1161 1063 q 1280 933 1291 1063 l 1280 -87 q 1194 -184 1291 -174 q 944 -141 1118 -206 q 977 -76 922 -87 q 1215 -65 1237 -174 l 1215 260 l 781 260 q 456 -174 749 -33 q 434 -109 391 -174 q 716 315 716 33 l 716 933 q 825 1063 716 1063 m 217 1042 l 456 1042 q 564 901 575 1031 l 564 206 q 423 87 575 76 l 239 87 q 109 206 109 76 l 109 879 q 217 1042 109 1042 m 1150 998 l 857 998 q 781 922 781 998 l 781 694 l 1215 694 l 1215 922 q 1150 998 1226 998 m 434 977 l 250 977 q 174 879 174 977 l 174 586 l 499 586 l 499 901 q 434 977 510 977 m 1215 629 l 781 629 l 781 326 l 1215 326 l 1215 629 m 499 521 l 174 521 l 174 228 q 260 152 174 141 l 423 152 q 499 228 510 141 l 499 521 z "},"木":{"ha":1389,"x_min":33,"x_max":1335,"o":"m 727 1063 l 727 846 l 1291 846 q 1291 781 1335 814 l 727 781 l 727 738 q 1302 54 1009 282 q 1259 0 1324 -11 q 727 629 933 260 l 727 -174 q 662 -174 694 -228 l 662 629 q 98 0 423 206 q 54 54 33 0 q 662 749 412 282 l 662 781 l 98 781 q 98 846 54 814 l 662 846 l 662 1063 q 727 1063 694 1118 z "},"本":{"ha":1389,"x_min":33,"x_max":1356,"o":"m 705 1085 l 705 911 l 1291 911 q 1291 846 1335 879 l 716 846 q 1335 98 1009 336 q 1291 43 1356 43 q 705 749 933 326 l 705 152 l 1074 152 q 1074 87 1118 119 l 705 87 l 705 -195 q 640 -195 673 -239 l 640 87 l 293 87 q 293 152 250 119 l 640 152 l 640 727 q 98 43 434 282 q 54 98 33 43 q 629 846 391 326 l 76 846 q 76 911 33 868 l 640 911 l 640 1085 q 705 1085 673 1139 z "},"术":{"ha":1389,"x_min":43,"x_max":1324,"o":"m 890 998 q 933 1053 868 1063 q 1128 911 1031 998 q 1096 868 1139 868 q 890 998 966 955 m 705 1074 l 705 803 l 1270 803 q 1270 738 1313 770 l 716 738 q 1302 54 977 293 q 1259 0 1324 0 q 705 640 901 271 l 705 -174 q 640 -174 673 -228 l 640 618 q 119 22 467 260 q 76 76 43 11 q 629 738 434 304 l 109 738 q 109 803 65 760 l 640 803 l 640 1074 q 705 1074 673 1128 z "},"机":{"ha":1389,"x_min":22,"x_max":1356,"o":"m 347 1074 l 347 792 l 521 792 q 521 727 564 760 l 347 727 l 347 694 q 532 347 467 521 q 477 315 521 293 q 347 575 434 423 l 347 -163 q 282 -163 315 -217 l 282 564 q 98 163 228 391 q 43 195 43 141 q 260 727 206 488 l 65 727 q 65 792 22 760 l 282 792 l 282 1074 q 347 1074 315 1118 m 749 1031 l 966 1031 q 1085 911 1096 1031 l 1085 -22 q 1150 -87 1085 -98 l 1204 -87 q 1280 184 1291 -98 q 1345 184 1313 228 q 1226 -152 1356 -163 l 1128 -152 q 1020 -43 1020 -163 l 1020 901 q 955 966 1031 966 l 760 966 q 694 901 694 966 l 694 597 q 477 -195 716 22 q 423 -152 423 -217 q 629 586 651 54 l 629 911 q 749 1031 629 1031 z "},"杂":{"ha":1389,"x_min":22,"x_max":1335,"o":"m 553 1085 q 618 1085 586 1139 l 597 933 l 846 933 q 966 825 977 933 l 966 608 q 1031 543 966 532 l 1118 543 q 1204 694 1215 521 q 1270 694 1237 749 q 1128 477 1280 467 l 1009 477 q 901 586 911 467 l 901 803 q 836 868 911 868 l 586 868 q 174 456 510 564 q 152 521 98 467 q 521 868 445 608 l 206 868 q 206 933 163 901 l 532 933 l 553 1085 m 705 521 l 705 391 l 1291 391 q 1291 326 1335 358 l 705 326 l 705 -33 q 575 -195 716 -195 q 391 -152 488 -195 q 434 -87 369 -98 q 564 -130 499 -130 q 640 -33 651 -141 l 640 326 l 76 326 q 76 391 22 358 l 640 391 l 640 521 q 705 521 673 586 m 401 228 q 456 195 456 260 q 141 -141 380 22 q 109 -87 65 -152 q 401 228 336 76 m 879 184 q 922 239 857 239 q 1280 -98 1096 98 q 1237 -152 1302 -163 q 879 184 1074 33 z "},"杖":{"ha":1389,"x_min":33,"x_max":1367,"o":"m 1085 1074 l 1085 868 l 1291 868 q 1291 803 1335 836 l 1085 803 q 955 141 1096 358 q 1335 -130 1096 -33 q 1313 -195 1367 -184 q 911 76 1128 -152 q 532 -184 749 -109 q 510 -119 477 -174 q 857 130 727 -33 q 651 716 716 358 q 716 727 673 770 q 901 195 770 434 q 1020 803 1031 434 l 553 803 q 553 868 510 836 l 1020 868 l 1020 1074 q 1085 1074 1053 1128 m 271 1063 q 336 1063 304 1107 l 336 825 l 488 825 q 488 760 532 792 l 336 760 q 532 358 477 510 q 467 336 510 304 q 336 618 423 467 l 336 -174 q 271 -174 304 -228 l 271 553 q 87 184 174 293 q 33 228 33 174 q 260 760 195 456 l 98 760 q 98 825 43 792 l 271 825 l 271 1063 z "},"格":{"ha":1389,"x_min":33,"x_max":1356,"o":"m 336 1042 l 336 846 l 510 846 q 510 781 553 814 l 336 781 l 336 749 q 499 467 434 597 q 445 434 499 401 q 336 629 401 521 l 336 -130 q 271 -130 304 -184 l 271 618 q 109 228 206 412 q 54 260 54 206 q 250 781 217 608 l 76 781 q 76 846 33 814 l 271 846 l 271 1042 q 336 1042 304 1085 m 738 998 l 1085 998 q 1215 890 1259 998 q 966 597 1150 770 q 1324 336 1096 467 q 1291 282 1356 282 q 911 553 1118 369 q 488 293 684 380 q 456 347 423 293 q 868 608 684 456 q 684 868 792 694 q 553 651 608 727 q 510 694 499 640 q 694 1053 608 846 q 760 1042 738 1107 l 738 998 m 1085 933 l 716 933 q 922 651 814 770 q 1139 890 1031 749 q 1085 933 1172 933 m 727 315 l 1074 315 q 1204 184 1215 315 l 1204 -43 q 1074 -174 1215 -184 l 727 -174 q 597 -65 597 -184 l 597 174 q 727 315 597 315 m 1063 250 l 738 250 q 662 174 662 250 l 662 -43 q 738 -109 662 -119 l 1063 -109 q 1139 -33 1150 -119 l 1139 174 q 1063 250 1150 250 z "},"次":{"ha":1389,"x_min":22,"x_max":1335,"o":"m 597 1085 l 586 955 l 1172 955 q 1280 836 1280 955 q 1009 380 1237 532 q 966 434 944 369 q 1204 803 1150 553 q 1161 890 1215 890 l 575 890 q 358 499 532 640 q 315 543 304 488 q 532 1085 510 705 q 597 1085 564 1128 m 141 1020 q 293 640 250 836 q 228 618 271 575 q 87 987 195 803 q 141 1020 76 1042 m 499 477 q 553 434 564 510 q 87 -11 369 130 q 54 54 22 -11 q 499 477 336 206 m 770 825 q 836 825 803 879 l 836 456 q 1313 -141 1009 11 q 1270 -195 1335 -206 q 814 336 998 -54 q 217 -195 760 -11 q 195 -130 152 -184 q 770 467 749 33 l 770 825 z "},"此":{"ha":1389,"x_min":43,"x_max":1356,"o":"m 879 1063 l 879 586 q 1226 890 987 640 q 1280 846 1291 911 q 879 499 1096 640 l 879 11 q 987 -98 879 -109 l 1194 -98 q 1280 195 1291 -119 q 1345 195 1313 239 q 1215 -163 1356 -184 l 977 -163 q 814 11 814 -174 l 814 1063 q 879 1063 846 1118 m 488 1063 l 488 760 l 749 760 q 749 694 803 727 l 488 694 l 488 11 l 727 98 q 749 33 792 87 q 109 -174 434 -87 q 87 -109 43 -163 l 184 -87 l 184 868 q 250 868 217 922 l 250 -65 l 423 -11 l 423 1063 q 488 1063 456 1128 z "},"步":{"ha":1389,"x_min":22,"x_max":1367,"o":"m 412 445 q 467 412 467 477 q 206 87 391 217 q 174 141 152 87 q 412 445 336 271 m 1161 434 q 1226 412 1204 488 q 109 -195 1053 -195 q 109 -130 65 -163 q 1161 434 998 -130 m 749 543 l 749 54 q 684 54 716 -11 l 684 543 l 76 543 q 76 608 22 575 l 336 608 l 336 998 q 401 998 369 1053 l 401 608 l 684 608 l 684 1063 q 749 1063 716 1118 l 749 890 l 1183 890 q 1183 825 1237 857 l 749 825 l 749 608 l 1324 608 q 1324 543 1367 575 l 749 543 z "},"每":{"ha":1389,"x_min":22,"x_max":1367,"o":"m 391 1074 q 445 1042 445 1107 l 423 1009 l 1259 1009 q 1259 944 1313 977 l 380 944 q 141 684 260 792 q 98 738 65 673 q 391 1074 239 857 m 445 814 l 1074 814 q 1204 684 1215 803 l 1183 445 l 1302 445 q 1302 380 1367 412 l 1183 380 l 1139 33 l 1280 33 q 1280 -33 1345 0 l 1128 -33 q 987 -184 1085 -152 q 716 -174 868 -217 q 738 -109 673 -119 q 1053 -33 987 -195 l 347 -33 q 228 87 228 -43 l 271 380 l 87 380 q 87 445 22 412 l 282 445 l 304 673 q 445 814 326 814 m 1074 749 l 456 749 q 369 662 380 749 l 347 445 l 1118 445 l 1139 673 q 1074 749 1150 749 m 1118 380 l 336 380 l 304 109 q 369 33 304 22 l 1074 33 l 1118 380 m 521 336 q 836 130 738 206 q 792 87 846 65 q 488 282 640 184 q 521 336 467 336 m 553 651 q 586 705 532 705 q 868 532 716 629 q 836 477 901 477 q 553 651 705 553 z "},"民":{"ha":1389,"x_min":152,"x_max":1313,"o":"m 271 1053 l 1042 1053 q 1172 911 1183 1042 l 1172 770 q 1031 640 1183 629 l 760 640 q 792 401 770 532 l 1259 401 q 1259 336 1313 369 l 814 336 q 1183 -109 987 -130 q 1248 130 1248 -109 q 1313 130 1280 184 q 1194 -184 1313 -184 q 738 336 944 -217 l 217 336 l 217 -33 q 282 -98 217 -109 q 694 54 467 -65 q 716 -11 760 43 q 260 -174 456 -141 q 152 -54 152 -184 l 152 922 q 271 1053 152 1053 m 1031 987 l 293 987 q 217 901 217 987 l 217 705 l 1020 705 q 1107 781 1118 694 l 1107 911 q 1031 987 1118 987 m 684 640 l 217 640 l 217 401 l 716 401 q 684 640 694 543 z "},"活":{"ha":1389,"x_min":22,"x_max":1367,"o":"m 1259 1085 q 1270 1020 1324 1063 q 890 977 1085 987 l 890 749 l 1324 749 q 1324 684 1367 716 l 890 684 l 890 467 l 1118 467 q 1237 358 1248 467 l 1237 -54 q 1107 -163 1248 -174 l 608 -163 q 499 -54 499 -174 l 499 347 q 618 467 499 467 l 825 467 l 825 684 l 434 684 q 434 749 391 716 l 825 749 l 825 966 q 445 944 586 944 q 445 1009 401 977 q 1259 1085 933 1031 m 152 1074 q 369 868 282 966 q 326 825 380 814 q 109 1020 217 922 q 152 1074 87 1074 m 76 705 q 315 521 206 629 q 271 467 326 467 q 33 651 163 564 q 76 705 22 716 m 1107 401 l 629 401 q 564 336 564 401 l 564 -33 q 629 -98 564 -109 l 1096 -98 q 1172 -43 1183 -109 l 1172 347 q 1107 401 1183 401 m 326 369 q 391 358 369 412 q 163 -174 315 65 q 109 -141 98 -195 q 326 369 271 141 z "},"满":{"ha":1389,"x_min":22,"x_max":1324,"o":"m 564 1063 q 629 1063 597 1118 l 629 966 l 998 966 l 998 1074 q 1063 1074 1031 1128 l 1063 966 l 1280 966 q 1280 901 1324 933 l 1063 901 l 1063 792 q 998 792 1031 749 l 998 901 l 629 901 l 629 792 q 564 792 597 738 l 564 901 l 391 901 q 391 966 347 933 l 564 966 l 564 1063 m 141 1063 q 347 846 260 955 q 293 803 358 792 q 98 1009 206 911 q 141 1063 76 1074 m 412 727 l 1259 727 q 1259 662 1313 694 l 1042 662 l 1042 488 l 1128 488 q 1280 315 1291 488 l 1280 -65 q 1194 -195 1280 -174 q 1020 -163 1118 -206 q 1042 -98 966 -109 q 1215 -43 1226 -195 l 1215 326 q 1139 423 1215 423 l 1042 423 q 1031 315 1042 369 q 1183 65 1107 195 q 1118 33 1172 0 q 1009 217 1053 152 q 879 0 966 98 q 825 33 814 -22 q 977 423 966 206 l 716 423 q 694 326 705 369 q 836 130 792 206 q 781 98 836 76 q 673 250 727 174 q 553 22 629 130 q 499 54 488 0 q 651 423 629 260 l 532 423 q 456 336 456 423 l 456 -184 q 391 -184 423 -228 l 391 336 q 510 488 391 488 l 651 488 l 651 662 l 412 662 q 412 727 369 684 m 76 694 q 315 521 217 608 q 271 467 336 456 q 33 640 163 553 q 76 694 22 694 m 977 662 l 716 662 l 716 488 l 977 488 l 977 662 m 260 391 q 326 391 293 445 q 163 -152 293 109 q 98 -130 98 -195 q 260 391 217 87 z "},"火":{"ha":1389,"x_min":43,"x_max":1356,"o":"m 727 1074 l 727 488 q 1335 -141 879 98 q 1280 -195 1356 -206 q 705 369 868 22 q 98 -195 553 -11 q 76 -141 43 -184 q 662 499 618 119 l 662 1074 q 727 1074 694 1128 m 401 955 q 260 412 358 640 q 195 423 206 369 q 336 955 293 673 q 401 955 369 1009 m 1128 966 q 1194 955 1172 1009 q 1053 401 1150 673 q 987 423 1009 369 q 1128 966 1063 640 z "},"灵":{"ha":1389,"x_min":22,"x_max":1367,"o":"m 184 1074 l 1063 1074 q 1215 933 1226 1074 l 1215 684 q 1053 553 1226 543 l 184 553 q 184 618 141 586 l 1042 618 q 1150 705 1161 608 l 1150 792 l 239 792 q 239 857 195 825 l 1150 857 l 1150 922 q 1074 1009 1161 1009 l 184 1009 q 184 1074 141 1053 m 1096 488 q 1161 467 1139 532 q 1009 152 1118 326 q 955 195 955 130 q 1096 488 1053 336 m 380 456 q 271 163 336 304 q 206 184 206 109 q 315 467 282 336 q 380 456 358 521 m 640 499 q 705 499 673 543 l 705 304 q 1313 -141 911 0 q 1291 -206 1367 -195 q 684 228 868 -43 q 76 -206 575 -87 q 65 -141 22 -184 q 640 304 564 -22 l 640 499 z "},"点":{"ha":1389,"x_min":43,"x_max":1324,"o":"m 640 1074 l 640 933 l 1270 933 q 1270 868 1324 901 l 640 868 l 640 694 l 1053 694 q 1161 586 1172 694 l 1161 304 q 1053 195 1172 184 l 293 195 q 184 304 184 184 l 184 586 q 293 694 184 694 l 575 694 l 575 1074 q 640 1074 608 1128 m 1031 629 l 315 629 q 250 564 250 629 l 250 326 q 315 260 250 250 l 1031 260 q 1096 326 1107 250 l 1096 564 q 1031 629 1107 629 m 1161 152 q 1313 -130 1259 11 q 1259 -174 1324 -195 q 1107 119 1194 -22 q 1161 152 1107 174 m 228 141 q 282 109 282 163 q 109 -195 228 -65 q 65 -152 43 -206 q 228 141 163 -33 m 543 130 q 586 -174 575 -22 q 521 -174 553 -228 q 477 119 510 -22 q 543 130 499 184 m 868 141 q 944 -152 922 -22 q 879 -163 922 -228 q 803 119 857 -33 q 868 141 814 174 z "},"牌":{"ha":1389,"x_min":65,"x_max":1367,"o":"m 879 1096 q 944 1085 933 1139 q 911 977 933 1031 l 1161 977 q 1270 868 1280 977 l 1270 543 q 1161 434 1280 423 l 901 434 q 770 217 868 326 l 987 217 l 987 347 q 1053 347 1020 401 l 1053 217 l 1313 217 q 1313 152 1367 184 l 1053 152 l 1053 -152 q 987 -152 1020 -195 l 987 152 l 543 152 q 543 217 488 184 l 684 217 q 836 434 781 304 l 705 434 q 597 543 597 423 l 597 868 q 705 977 597 977 l 836 977 q 879 1096 857 1020 m 901 911 l 727 911 q 662 846 662 911 l 662 738 l 901 738 l 901 911 m 1139 911 l 966 911 l 966 738 l 1204 738 l 1204 846 q 1139 911 1215 911 m 901 673 l 662 673 l 662 564 q 727 499 662 488 l 857 499 q 901 673 890 597 m 1204 673 l 966 673 q 922 499 955 608 l 1139 499 q 1204 564 1215 488 l 1204 673 m 141 1020 q 206 1020 174 1063 l 206 716 l 358 716 l 358 1074 q 423 1074 391 1118 l 423 716 l 553 716 q 553 651 597 684 l 206 651 l 206 412 l 336 412 q 467 282 477 412 l 467 -130 q 401 -130 434 -174 l 401 260 q 315 347 412 347 l 206 347 q 119 -163 217 22 q 65 -130 65 -184 q 141 347 152 22 l 141 1020 z "},"物":{"ha":1389,"x_min":22,"x_max":1313,"o":"m 738 1053 l 716 933 l 1194 933 q 1302 814 1313 933 l 1270 22 q 1161 -174 1270 -141 q 868 -119 987 -206 q 911 -65 846 -65 q 1128 -109 1020 -141 q 1204 43 1215 -98 l 1237 792 q 1172 868 1248 868 l 1128 868 q 651 -141 1139 184 q 608 -87 597 -141 q 1063 868 1085 239 l 911 868 q 532 109 922 391 q 488 163 467 98 q 846 868 868 445 l 705 868 q 564 564 640 673 q 510 608 499 553 q 673 1063 651 814 q 738 1053 716 1118 m 315 781 l 184 781 q 109 445 163 586 q 43 467 43 401 q 141 1042 130 673 q 206 1042 184 1096 q 195 846 206 944 l 315 846 l 315 1085 q 380 1085 347 1128 l 380 846 l 532 846 q 532 781 575 814 l 380 781 l 380 391 q 510 510 456 445 q 553 467 564 521 q 380 315 477 380 l 380 -174 q 315 -174 347 -217 l 315 271 q 98 152 228 206 q 76 217 22 163 q 315 347 206 271 l 315 781 z "},"猎":{"ha":1389,"x_min":33,"x_max":1367,"o":"m 749 1063 l 749 911 l 1053 911 l 1053 1063 q 1118 1063 1085 1118 l 1118 911 l 1291 911 q 1291 846 1335 879 l 1118 846 l 1118 608 l 1313 608 q 1313 543 1367 575 l 467 543 q 467 608 423 575 l 684 608 l 684 846 l 510 846 q 510 911 467 879 l 684 911 l 684 1063 q 749 1063 716 1118 m 1053 846 l 749 846 l 749 608 l 1053 608 l 1053 846 m 1085 391 l 705 391 q 640 315 640 391 l 640 195 l 1161 195 l 1161 304 q 1085 391 1172 391 m 1161 130 l 640 130 l 640 -11 q 727 -87 640 -98 l 1074 -87 q 1161 -11 1172 -98 l 1161 130 m 575 315 q 694 456 586 456 l 1107 456 q 1226 336 1226 456 l 1226 -33 q 1063 -152 1237 -163 l 705 -152 q 575 -43 575 -163 l 575 315 m 174 1020 q 293 857 250 933 q 391 1020 358 944 q 456 998 445 1074 q 326 792 391 868 q 445 0 499 401 q 282 -174 423 -163 q 87 -119 195 -174 q 119 -65 65 -65 q 380 11 358 -184 q 369 456 412 228 q 98 141 250 260 q 65 195 33 141 q 347 543 217 315 q 282 738 326 640 q 98 564 228 662 q 54 608 43 553 q 250 792 174 705 q 119 987 206 879 q 174 1020 119 1042 z "},"玉":{"ha":1389,"x_min":54,"x_max":1335,"o":"m 141 998 l 1226 998 q 1226 933 1270 966 l 727 933 l 727 499 l 1204 499 q 1204 434 1248 467 l 727 434 l 727 -87 l 1270 -87 q 1270 -152 1335 -119 l 98 -152 q 98 -87 54 -119 l 662 -87 l 662 434 l 163 434 q 163 499 119 467 l 662 499 l 662 933 l 141 933 q 141 998 98 966 m 901 347 q 1183 54 1074 195 q 1128 11 1194 -11 q 846 304 1031 130 q 901 347 836 369 z "},"玩":{"ha":1389,"x_min":11,"x_max":1335,"o":"m 98 998 l 488 998 q 488 933 532 966 l 315 933 l 315 543 l 467 543 q 467 477 510 510 l 315 477 l 315 98 q 456 184 380 130 q 488 130 510 174 q 76 -87 315 0 q 54 -22 11 -76 q 250 65 141 11 l 250 477 l 98 477 q 98 543 54 510 l 250 543 l 250 933 l 98 933 q 98 998 54 966 m 597 1020 l 1161 1020 q 1161 955 1204 987 l 597 955 q 597 1020 553 987 m 532 629 l 1270 629 q 1270 564 1313 597 l 1031 564 l 1031 -43 q 1096 -109 1031 -119 l 1161 -109 q 1248 174 1270 -130 q 1313 174 1280 206 q 1172 -174 1335 -195 l 1074 -174 q 966 -65 966 -174 l 966 564 l 792 564 q 358 -174 814 -119 q 347 -109 315 -152 q 727 564 749 -65 l 532 564 q 532 629 488 597 z "},"生":{"ha":1389,"x_min":43,"x_max":1356,"o":"m 684 1053 q 749 1053 716 1096 l 749 792 l 1226 792 q 1226 727 1270 760 l 749 727 l 749 358 l 1204 358 q 1204 293 1248 326 l 749 293 l 749 -98 l 1313 -98 q 1313 -163 1356 -130 l 76 -163 q 76 -98 43 -130 l 684 -98 l 684 293 l 195 293 q 195 358 152 326 l 684 358 l 684 727 l 271 727 q 130 434 217 575 q 76 477 65 401 q 271 998 239 727 q 336 987 315 1053 q 293 792 326 922 l 684 792 l 684 1053 z "},"留":{"ha":1389,"x_min":98,"x_max":1280,"o":"m 629 1085 q 640 1020 684 1063 q 239 966 401 987 q 163 901 163 966 l 163 640 q 239 575 163 553 q 499 738 369 608 q 434 868 477 792 q 488 911 434 933 q 629 575 608 651 q 575 543 640 510 q 521 673 543 629 q 217 510 380 543 q 98 629 98 488 l 98 890 q 217 1031 98 1031 q 629 1085 358 1042 m 727 1063 l 1139 1063 q 1270 933 1280 1063 q 1204 510 1280 618 q 944 488 1128 423 q 966 553 911 543 q 1161 564 1128 488 q 1204 922 1215 662 q 1128 998 1215 998 l 922 998 q 651 445 966 575 q 618 499 586 445 q 857 998 879 629 l 727 998 q 727 1063 684 1031 m 282 412 l 1074 412 q 1204 282 1215 412 l 1204 -43 q 1053 -174 1215 -184 l 293 -174 q 163 -54 163 -184 l 163 282 q 282 412 163 412 m 651 347 l 304 347 q 228 282 228 347 l 228 174 l 651 174 l 651 347 m 1063 347 l 716 347 l 716 174 l 1139 174 l 1139 282 q 1063 347 1139 347 m 651 109 l 228 109 l 228 -33 q 304 -109 228 -119 l 651 -109 l 651 109 m 1139 109 l 716 109 l 716 -109 l 1053 -109 q 1139 -33 1150 -119 l 1139 109 z "},"直":{"ha":1389,"x_min":11,"x_max":1367,"o":"m 694 1074 l 684 966 l 1302 966 q 1302 901 1345 933 l 673 901 l 651 749 l 1063 749 q 1172 640 1183 749 l 1172 -109 l 1324 -109 q 1324 -174 1367 -141 l 98 -174 q 98 -109 43 -141 l 228 -109 l 228 640 q 336 749 228 749 l 586 749 l 608 901 l 65 901 q 65 966 11 933 l 618 966 l 629 1074 q 694 1074 662 1118 m 1042 684 l 358 684 q 293 618 293 684 l 293 543 l 1107 543 l 1107 618 q 1042 684 1118 684 m 1107 477 l 293 477 l 293 326 l 1107 326 l 1107 477 m 1107 260 l 293 260 l 293 109 l 1107 109 l 1107 260 m 1107 43 l 293 43 l 293 -109 l 1107 -109 l 1107 43 z "},"眨":{"ha":1389,"x_min":87,"x_max":1367,"o":"m 543 727 l 1139 727 q 1259 586 1313 716 q 803 33 1128 304 q 1313 -130 998 -109 q 1302 -195 1367 -174 q 727 0 977 -195 q 532 -109 640 43 q 477 -65 467 -141 q 738 76 608 119 q 1183 597 1063 336 q 1128 662 1215 662 l 543 662 q 543 727 488 694 m 195 1031 l 326 1031 q 434 922 445 1020 l 434 -22 q 315 -141 445 -152 l 195 -141 q 87 -33 87 -152 l 87 922 q 195 1031 98 1031 m 304 966 l 217 966 q 152 901 152 966 l 152 662 l 369 662 l 369 901 q 304 966 380 966 m 369 597 l 152 597 l 152 293 l 369 293 l 369 597 m 369 228 l 152 228 l 152 -11 q 217 -76 152 -87 l 304 -76 q 369 -11 380 -87 l 369 228 m 1270 1085 q 1280 1020 1324 1063 q 521 944 944 955 q 510 1009 467 966 q 1270 1085 901 1020 m 868 922 q 1009 792 966 836 q 966 749 1031 738 q 825 879 901 814 q 868 922 814 933 z "},"眼":{"ha":1389,"x_min":109,"x_max":1335,"o":"m 195 1031 l 358 1031 q 456 922 477 1031 l 456 -11 q 358 -119 467 -130 l 206 -119 q 109 -22 109 -130 l 109 922 q 195 1031 109 1031 m 694 1031 l 1128 1031 q 1237 911 1259 1031 l 1237 553 q 1128 445 1248 434 l 890 445 q 1020 152 933 260 q 1226 369 1150 260 q 1280 326 1280 380 q 1063 98 1183 195 q 1313 -119 1204 -54 q 1270 -174 1335 -174 q 825 445 879 87 l 651 445 l 651 -54 q 694 -87 651 -109 q 911 0 760 -76 q 944 -65 966 -11 q 662 -174 760 -152 q 586 -109 586 -184 l 586 922 q 694 1031 586 1031 m 347 966 l 228 966 q 174 911 174 966 l 174 684 l 391 684 l 391 911 q 347 966 401 966 m 1107 966 l 716 966 q 651 901 651 966 l 651 770 l 1172 770 l 1172 901 q 1107 966 1183 966 m 1172 705 l 651 705 l 651 510 l 1107 510 q 1172 575 1183 499 l 1172 705 m 391 618 l 174 618 l 174 293 l 391 293 l 391 618 m 391 228 l 174 228 l 174 0 q 228 -54 174 -65 l 336 -54 q 391 11 401 -65 l 391 228 z "},"示":{"ha":1389,"x_min":65,"x_max":1345,"o":"m 217 1031 l 1194 1031 q 1194 966 1237 998 l 217 966 q 217 1031 174 998 m 109 684 l 1302 684 q 1302 618 1345 651 l 760 618 l 760 -87 q 380 -119 770 -260 q 423 -54 369 -54 q 694 -54 727 -184 l 694 618 l 109 618 q 109 684 65 651 m 369 521 q 434 499 412 553 q 141 -98 326 141 q 87 -54 76 -119 q 369 521 260 174 m 1031 510 q 1313 -54 1139 358 q 1248 -87 1291 -119 q 977 467 1128 228 q 1031 510 977 532 z "},"福":{"ha":1389,"x_min":11,"x_max":1356,"o":"m 553 1031 l 1313 1031 q 1313 966 1356 998 l 553 966 q 553 1031 510 998 m 727 879 l 1107 879 q 1237 760 1248 879 l 1237 651 q 1118 553 1248 543 l 727 553 q 597 651 597 543 l 597 760 q 727 879 597 879 m 1096 814 l 727 814 q 662 749 662 814 l 662 673 q 727 618 662 608 l 1107 618 q 1172 662 1183 608 l 1172 760 q 1096 814 1183 814 m 673 467 l 1161 467 q 1280 358 1291 467 l 1280 -43 q 1150 -163 1291 -174 l 684 -163 q 553 -54 553 -174 l 553 347 q 673 467 553 456 m 879 401 l 694 401 q 618 336 618 401 l 618 195 l 879 195 l 879 401 m 1150 401 l 944 401 l 944 195 l 1215 195 l 1215 336 q 1150 401 1226 401 m 879 130 l 618 130 l 618 -33 q 694 -98 618 -109 l 879 -98 l 879 130 m 1215 130 l 944 130 l 944 -98 l 1139 -98 q 1215 -33 1226 -109 l 1215 130 m 239 1085 q 369 944 293 1042 q 326 901 380 890 q 195 1031 260 977 q 239 1085 174 1096 m 76 857 l 380 857 q 488 770 499 857 q 326 499 467 662 q 521 304 456 391 q 467 260 532 239 q 315 423 401 347 l 315 -163 q 250 -163 282 -195 l 250 412 q 76 250 152 304 q 43 304 11 250 q 401 716 315 543 q 358 792 445 792 l 76 792 q 76 857 22 825 z "},"秒":{"ha":1389,"x_min":11,"x_max":1335,"o":"m 879 1063 q 944 1063 911 1118 l 944 152 q 879 152 911 98 l 879 1063 m 499 1053 q 510 987 564 1031 q 336 955 423 966 l 336 716 l 543 716 q 543 651 597 684 l 336 651 l 336 618 q 488 315 445 445 q 434 293 488 260 q 336 499 391 391 l 336 -163 q 271 -163 304 -228 l 271 445 q 65 119 195 282 q 22 163 11 98 q 271 651 239 467 l 87 651 q 87 716 22 684 l 271 716 l 271 944 q 141 933 217 933 q 130 998 87 955 q 499 1053 326 1009 m 1150 922 q 1335 358 1270 640 q 1270 347 1324 293 q 1085 901 1194 662 q 1150 922 1096 955 m 662 911 q 727 901 705 955 q 553 326 673 543 q 499 358 499 293 q 662 911 629 608 m 1150 423 q 1215 423 1183 467 q 543 -195 1183 -130 q 543 -130 488 -163 q 1150 423 1107 -76 z "},"称":{"ha":1389,"x_min":11,"x_max":1411,"o":"m 760 1031 q 716 890 738 955 l 1226 890 q 1259 553 1411 879 q 1194 575 1204 510 q 1204 825 1324 825 l 977 825 l 977 -65 q 694 -130 987 -228 q 716 -65 662 -76 q 911 -43 922 -141 l 911 825 l 694 825 q 564 597 640 684 q 521 640 510 586 q 694 1042 640 792 q 760 1031 738 1096 m 694 510 q 760 499 738 564 q 553 11 694 206 q 499 54 488 -11 q 694 510 629 228 m 1107 488 q 1172 510 1118 553 q 1345 54 1270 293 q 1280 33 1335 -22 q 1107 488 1215 228 m 488 1074 q 510 1020 543 1074 q 347 966 445 987 l 347 749 l 499 749 q 499 684 543 716 l 347 684 l 347 640 q 521 358 456 477 q 467 326 521 293 q 347 521 391 456 l 347 -141 q 282 -141 315 -184 l 282 510 q 76 163 206 336 q 22 195 11 130 q 282 684 206 456 l 87 684 q 87 749 43 716 l 282 749 l 282 955 q 109 933 141 933 q 109 998 54 966 q 488 1074 326 1020 z "},"立":{"ha":1389,"x_min":54,"x_max":1345,"o":"m 684 1053 q 760 814 738 901 l 1291 814 q 1291 749 1345 781 l 119 749 q 119 814 76 770 l 684 814 q 618 1031 662 922 q 684 1053 629 1107 m 1074 684 q 966 -119 1053 228 l 1291 -119 q 1291 -184 1345 -152 l 98 -184 q 98 -119 54 -152 l 901 -119 q 1009 684 987 228 q 1074 684 1031 738 m 336 662 q 488 -76 456 239 q 423 -76 456 -141 q 271 640 380 260 q 336 662 282 705 z "},"章":{"ha":1389,"x_min":11,"x_max":1356,"o":"m 694 1096 q 738 998 716 1053 l 1226 998 q 1226 933 1270 966 l 1031 933 l 933 738 l 1313 738 q 1313 673 1356 705 l 54 673 q 54 738 11 705 l 467 738 l 401 933 l 141 933 q 141 998 98 966 l 662 998 q 629 1074 651 1042 q 694 1096 640 1128 m 955 933 l 467 933 l 532 738 l 857 738 l 955 933 m 282 586 l 1063 586 q 1183 477 1194 586 l 1183 239 q 1074 130 1194 119 l 727 130 l 727 22 l 1302 22 q 1302 -43 1345 -11 l 727 -43 l 727 -174 q 662 -174 694 -239 l 662 -43 l 76 -43 q 76 22 33 -11 l 662 22 l 662 130 l 271 130 q 163 239 163 119 l 163 467 q 282 586 163 586 m 1053 521 l 293 521 q 228 456 228 521 l 228 391 l 1118 391 l 1118 456 q 1053 521 1128 521 m 1118 326 l 228 326 l 228 260 q 293 195 228 184 l 1053 195 q 1118 260 1128 184 l 1118 326 z "},"符":{"ha":1389,"x_min":11,"x_max":1367,"o":"m 1031 673 q 1096 673 1063 716 l 1096 564 l 1313 564 q 1313 499 1367 532 l 1096 499 l 1096 -43 q 987 -184 1107 -174 q 651 -119 814 -195 q 673 -54 608 -65 q 1031 -33 1053 -195 l 1031 499 l 401 499 q 401 564 358 532 l 1031 564 l 1031 673 m 282 1063 q 347 1053 326 1107 l 315 977 l 662 977 q 662 911 716 944 l 467 911 q 521 727 499 825 q 456 705 510 662 q 401 911 445 760 l 282 911 q 152 738 239 836 q 98 770 87 716 q 282 1063 228 922 m 304 684 q 369 662 358 727 q 293 499 336 575 l 293 -174 q 228 -174 260 -228 l 228 401 q 54 228 163 304 q 22 282 11 228 q 304 684 228 456 m 553 391 q 608 423 553 456 q 814 76 705 293 q 760 43 814 11 q 553 391 651 250 m 825 1074 q 879 1042 879 1107 l 846 977 l 1291 977 q 1291 911 1345 944 l 998 911 q 1053 727 1042 803 q 987 716 1031 673 q 922 911 966 803 l 814 911 q 684 727 738 781 q 629 760 629 705 q 825 1074 727 879 z "},"第":{"ha":1389,"x_min":11,"x_max":1345,"o":"m 1139 694 q 1248 586 1259 694 l 1248 521 q 1139 412 1259 401 l 727 412 l 727 282 l 1183 282 q 1291 174 1302 282 l 1280 -11 q 1096 -174 1248 -152 q 857 -130 998 -184 q 879 -65 825 -87 q 1096 -109 1009 -119 q 1215 0 1194 -87 l 1226 152 q 1161 217 1237 217 l 727 217 l 727 -174 q 662 -174 694 -228 l 662 174 q 76 -184 477 -54 q 54 -119 11 -174 q 618 217 434 0 l 206 217 q 98 326 98 206 l 98 369 q 206 477 98 477 l 662 477 l 662 629 l 119 629 q 119 694 76 662 l 1139 694 m 1118 629 l 727 629 l 727 477 l 1118 477 q 1183 543 1194 467 l 1183 564 q 1118 629 1194 629 m 662 412 l 228 412 q 163 358 163 412 l 163 336 q 228 282 163 271 l 662 282 l 662 412 m 825 1085 q 890 1074 868 1128 q 857 977 879 1042 l 1291 977 q 1291 911 1345 944 l 1031 911 q 1053 749 1053 836 q 987 749 1020 694 q 966 911 987 825 l 836 911 q 705 727 770 792 q 651 770 640 705 q 825 1085 770 879 m 250 1085 q 315 1063 293 1118 q 282 977 304 1009 l 684 977 q 684 911 738 944 l 456 911 q 477 749 477 846 q 412 738 445 684 q 391 911 412 825 l 260 911 q 109 738 217 814 q 65 781 54 727 q 250 1085 217 901 z "},"等":{"ha":1389,"x_min":33,"x_max":1356,"o":"m 705 760 l 705 694 l 1183 694 q 1183 629 1226 662 l 705 629 l 705 477 l 1302 477 q 1302 412 1345 445 l 1074 412 l 1074 282 l 1313 282 q 1313 217 1356 250 l 1074 217 l 1074 -76 q 955 -195 1085 -206 q 684 -141 825 -206 q 705 -76 651 -87 q 1009 -65 1042 -184 l 1009 217 l 98 217 q 98 282 54 250 l 1009 282 l 1009 412 l 109 412 q 109 477 76 445 l 640 477 l 640 629 l 206 629 q 206 694 163 662 l 640 694 l 640 760 q 705 760 673 803 m 401 163 q 618 -33 499 98 q 564 -76 618 -87 q 358 109 477 33 q 401 163 347 163 m 250 1096 q 315 1074 304 1128 l 282 998 l 640 998 q 640 933 684 966 l 423 933 q 467 770 456 857 q 401 760 434 716 q 358 933 391 846 l 250 933 q 98 770 195 846 q 43 814 33 749 q 250 1096 184 911 m 770 1096 q 836 1074 825 1128 l 803 998 l 1248 998 q 1248 933 1291 966 l 987 933 q 1042 760 1031 846 q 977 749 1009 694 q 922 933 955 846 l 770 933 q 651 803 727 857 q 608 846 597 792 q 770 1096 727 955 z "},"级":{"ha":1389,"x_min":22,"x_max":1345,"o":"m 282 1074 q 347 1053 336 1118 q 141 662 260 846 l 347 673 q 445 857 401 770 q 510 846 488 901 q 184 315 380 553 q 445 358 326 336 q 456 293 499 336 q 130 239 282 260 q 87 304 54 239 q 315 608 195 423 l 109 597 q 76 684 33 597 q 282 1074 217 901 m 477 1063 l 1063 1063 q 1194 944 1226 1063 l 1128 705 q 1161 651 1107 640 l 1194 651 q 1291 543 1313 651 q 1063 98 1237 304 q 1324 -119 1194 -33 q 1280 -174 1345 -184 q 1009 43 1183 -119 q 543 -195 781 -130 q 532 -130 488 -174 q 966 98 781 -54 q 727 586 814 293 q 380 -184 694 109 q 336 -141 326 -195 q 673 825 694 195 l 673 998 l 477 998 q 477 1063 434 1031 m 1053 998 l 738 998 l 738 792 q 1020 152 846 358 q 1215 521 1183 358 q 1183 586 1237 586 l 1139 586 q 1053 694 1009 575 l 1118 933 q 1053 998 1139 998 m 434 109 q 456 54 488 109 q 76 -65 304 -11 q 65 0 22 -43 q 434 109 206 33 z "},"继":{"ha":1389,"x_min":11,"x_max":1378,"o":"m 955 1042 l 955 586 l 1280 586 q 1280 521 1335 553 l 955 521 q 1270 98 1139 271 q 1215 54 1280 33 q 955 401 1085 228 l 955 -22 q 890 -22 922 -76 l 890 401 q 629 54 792 228 q 586 98 575 43 q 868 521 781 315 l 608 521 q 608 586 564 553 l 890 586 l 890 1042 q 955 1042 922 1085 m 326 1009 q 163 651 271 857 q 195 597 130 586 l 326 608 q 412 781 369 694 q 467 760 456 814 q 184 260 380 532 l 423 315 q 434 250 477 293 q 109 184 271 206 q 98 260 43 195 q 293 543 184 358 l 109 532 q 87 640 33 543 q 260 1020 206 879 q 326 1009 315 1074 m 1194 922 q 1248 890 1248 944 q 1074 629 1194 781 q 1020 662 1020 608 q 1194 922 1128 814 m 618 901 q 684 922 629 966 q 814 662 770 760 q 760 629 814 608 q 618 901 705 738 m 499 998 q 564 998 532 1053 l 564 0 q 640 -65 564 -76 l 1324 -65 q 1324 -130 1378 -109 l 618 -130 q 499 -22 499 -141 l 499 998 m 434 43 q 445 -22 488 33 q 65 -119 293 -76 q 54 -54 11 -98 q 434 43 228 -22 z "},"续":{"ha":1389,"x_min":33,"x_max":1356,"o":"m 857 1074 q 922 1074 890 1118 l 922 987 l 1226 987 q 1226 922 1270 955 l 922 922 l 922 770 l 1194 770 q 1248 488 1356 770 q 1183 510 1204 456 q 1194 705 1259 705 l 510 705 q 510 770 467 738 l 857 770 l 857 922 l 532 922 q 532 987 488 955 l 857 987 l 857 1074 m 260 1042 q 326 1020 304 1074 q 163 629 250 781 l 326 651 q 401 836 380 760 q 467 814 456 868 q 184 282 336 456 q 456 336 315 304 q 467 271 499 315 q 130 206 282 228 q 87 282 33 195 q 304 586 184 358 l 130 564 q 87 640 33 553 q 260 1042 184 770 m 684 673 q 879 488 792 586 q 836 434 890 423 q 629 629 749 532 q 684 673 629 684 m 1031 640 q 998 271 1031 423 l 1291 271 q 1291 206 1335 239 l 987 206 q 521 -184 857 -109 q 499 -119 467 -174 q 911 206 803 -43 l 532 206 q 532 271 488 239 l 933 271 q 966 640 966 445 q 1031 640 987 684 m 586 521 q 781 358 684 456 q 738 304 792 304 q 543 467 629 412 q 586 521 521 521 m 1053 119 q 1313 -130 1215 -11 q 1259 -174 1324 -195 q 1009 65 1161 -65 q 1053 119 998 119 m 499 98 q 521 33 553 87 q 87 -76 260 -54 q 65 -11 33 -65 q 499 98 293 22 z "},"翻":{"ha":1389,"x_min":22,"x_max":1291,"o":"m 575 1085 q 597 1031 629 1074 q 391 977 510 998 l 391 749 l 662 749 q 662 684 716 716 l 434 684 q 651 467 553 575 q 597 434 651 401 q 391 640 499 532 l 391 423 q 326 423 358 369 l 326 618 q 87 401 217 488 q 54 456 22 401 q 293 684 195 564 l 87 684 q 87 749 33 716 l 326 749 l 326 966 q 119 944 239 955 q 109 1009 65 966 q 575 1085 369 1031 m 651 1042 l 803 1042 q 933 922 944 1042 l 933 -98 q 673 -141 922 -217 q 694 -76 640 -98 q 868 -65 868 -141 l 868 911 q 792 977 879 977 l 651 977 q 651 1042 597 1009 m 640 846 q 694 879 640 901 q 846 629 770 792 q 781 608 836 553 q 640 846 738 705 m 1042 879 q 1183 618 1139 749 q 1118 597 1161 553 q 987 846 1063 727 q 1042 879 987 901 m 1128 477 q 1194 456 1183 521 q 1042 141 1150 315 q 987 184 977 119 q 1128 477 1085 347 m 792 477 q 857 467 836 532 q 705 163 792 293 q 651 195 651 130 q 792 477 749 358 m 326 326 l 239 326 q 174 260 174 326 l 174 152 l 326 152 l 326 326 m 477 326 l 391 326 l 391 152 l 543 152 l 543 260 q 477 326 553 326 m 326 87 l 174 87 l 174 -43 q 239 -109 174 -119 l 326 -109 l 326 87 m 543 87 l 391 87 l 391 -109 l 477 -109 q 543 -43 553 -119 l 543 87 m 174 901 q 228 933 174 955 q 315 803 271 879 q 260 770 304 738 q 174 901 228 825 m 553 966 q 608 933 608 998 q 477 770 564 857 q 434 814 423 760 q 553 966 499 879 m 977 1042 l 1150 1042 q 1280 911 1291 1042 l 1280 -98 q 1009 -152 1270 -239 q 1031 -87 966 -109 q 1215 -76 1237 -163 l 1215 901 q 1128 977 1226 977 l 977 977 q 977 1042 933 1009 m 228 391 l 488 391 q 608 271 618 391 l 608 -54 q 477 -174 618 -184 l 239 -174 q 109 -65 109 -184 l 109 271 q 228 391 109 391 z "},"者":{"ha":1389,"x_min":22,"x_max":1367,"o":"m 694 1063 l 694 933 l 1063 933 l 1139 1020 q 1204 987 1204 1053 q 922 694 1074 814 l 1324 694 q 1324 629 1367 662 l 846 629 q 553 434 694 510 l 1042 434 q 1150 326 1161 434 l 1150 -54 q 1031 -174 1161 -184 l 456 -174 q 347 -65 347 -184 l 347 326 q 87 217 228 271 q 65 282 22 228 q 727 629 434 412 l 109 629 q 109 694 65 662 l 629 694 l 629 868 l 250 868 q 250 933 184 901 l 629 933 l 629 1063 q 694 1063 662 1107 m 1009 868 l 694 868 l 694 694 l 814 694 q 1009 868 901 760 m 1020 369 l 477 369 q 412 304 412 369 l 412 174 l 1085 174 l 1085 304 q 1020 369 1096 369 m 1085 109 l 412 109 l 412 -43 q 477 -109 412 -119 l 1020 -109 q 1085 -43 1096 -119 l 1085 109 z "},"耙":{"ha":1389,"x_min":22,"x_max":1345,"o":"m 380 1085 l 380 933 l 586 933 q 586 868 640 901 l 380 868 l 380 727 l 575 727 q 575 662 629 694 l 380 662 l 380 499 l 597 499 q 597 434 662 467 l 401 434 q 618 98 543 250 q 564 65 629 33 q 380 347 477 217 l 380 -174 q 315 -174 347 -228 l 315 293 q 87 -22 239 119 q 43 22 33 -33 q 304 434 206 184 l 76 434 q 76 499 22 467 l 315 499 l 315 662 l 141 662 q 141 727 87 694 l 315 727 l 315 868 l 98 868 q 98 933 43 901 l 315 933 l 315 1085 q 380 1085 347 1139 m 814 1042 l 1161 1042 q 1291 911 1302 1042 l 1291 543 q 1161 412 1302 401 l 727 412 l 727 -11 q 836 -98 727 -109 l 1172 -98 q 1270 174 1280 -109 q 1335 174 1302 228 q 1183 -163 1345 -184 l 814 -163 q 662 -33 662 -174 l 662 911 q 814 1042 662 1042 m 944 977 l 836 977 q 727 890 727 977 l 727 477 l 944 477 l 944 977 m 1139 977 l 1009 977 l 1009 477 l 1139 477 q 1226 564 1237 467 l 1226 890 q 1139 977 1237 977 z "},"至":{"ha":1389,"x_min":54,"x_max":1324,"o":"m 109 1020 l 1237 1020 q 1237 955 1280 987 l 597 955 q 282 575 467 738 l 1053 618 q 857 836 955 738 q 911 879 857 901 q 1280 434 1128 651 q 1226 391 1291 369 q 1096 553 1139 510 l 716 532 l 716 260 l 1194 260 q 1194 195 1237 228 l 716 195 l 716 -109 l 1280 -109 q 1280 -174 1324 -141 l 87 -174 q 87 -109 54 -141 l 651 -109 l 651 195 l 174 195 q 174 260 119 228 l 651 260 l 651 532 l 228 510 q 184 575 141 510 q 521 955 391 749 l 109 955 q 109 1020 65 987 z "},"舞":{"ha":1389,"x_min":33,"x_max":1356,"o":"m 282 1085 q 347 1063 336 1118 l 315 998 l 1270 998 q 1270 933 1313 966 l 1139 933 l 1139 760 l 1302 760 q 1302 694 1345 727 l 1139 694 l 1139 521 l 1270 521 q 1270 456 1302 488 l 1107 456 l 1107 326 l 1291 326 q 1291 260 1335 293 l 1107 260 l 1107 43 l 1313 43 q 1313 -22 1356 11 l 1107 -22 l 1107 -174 q 1042 -174 1074 -228 l 1042 -22 l 760 -22 q 694 76 673 -33 l 760 228 q 825 206 814 260 l 770 87 q 803 43 760 33 l 1042 43 l 1042 260 l 727 260 q 727 326 684 293 l 1042 326 l 1042 456 l 391 456 l 369 391 l 543 391 q 640 271 640 391 q 87 -174 553 -174 q 87 -109 43 -152 q 401 -22 260 -119 q 239 141 326 76 q 282 195 250 195 q 456 22 369 119 q 575 271 543 109 q 532 326 575 315 l 336 326 q 87 119 239 184 q 54 174 33 119 q 326 456 260 271 l 98 456 q 98 521 54 488 l 228 521 l 228 694 l 76 694 q 76 760 33 727 l 228 760 l 228 901 q 109 803 174 846 q 76 857 54 803 q 282 1085 228 966 m 510 933 l 293 933 l 293 760 l 510 760 l 510 933 m 792 933 l 575 933 l 575 760 l 792 760 l 792 933 m 1074 933 l 857 933 l 857 760 l 1074 760 l 1074 933 m 510 694 l 293 694 l 293 521 l 510 521 l 510 694 m 792 694 l 575 694 l 575 521 l 792 521 l 792 694 m 1074 694 l 857 694 l 857 521 l 1074 521 l 1074 694 z "},"艺":{"ha":1389,"x_min":33,"x_max":1389,"o":"m 467 1074 l 467 944 l 901 944 l 901 1074 q 966 1074 933 1118 l 966 944 l 1291 944 q 1291 879 1335 911 l 966 879 l 966 749 q 901 749 933 705 l 901 879 l 467 879 l 467 749 q 401 749 434 705 l 401 879 l 76 879 q 76 944 33 911 l 401 944 l 401 1074 q 467 1074 434 1118 m 184 684 l 1107 684 q 694 336 1389 597 q 260 54 336 195 q 477 -119 217 -109 l 1074 -119 q 1226 206 1237 -141 q 1291 206 1259 250 q 1085 -184 1302 -217 l 434 -184 q 206 -76 271 -195 q 217 119 163 33 q 673 401 293 250 q 1053 618 1215 608 l 184 618 q 184 684 130 651 z "},"芙":{"ha":1389,"x_min":22,"x_max":1367,"o":"m 445 1085 l 445 977 l 944 977 l 944 1085 q 1009 1085 966 1139 l 1009 977 l 1291 977 q 1291 911 1345 944 l 1009 911 l 1009 760 q 944 760 977 705 l 944 911 l 445 911 l 445 760 q 380 760 412 705 l 380 911 l 76 911 q 76 977 22 944 l 380 977 l 380 1085 q 445 1085 412 1139 m 727 825 l 727 673 l 1226 673 q 1226 608 1280 640 l 727 608 q 705 358 727 477 l 1313 358 q 1313 293 1367 326 l 770 293 q 1302 -119 1020 0 q 1270 -174 1324 -174 q 694 293 1009 -87 q 109 -174 553 -65 q 87 -119 65 -163 q 629 293 488 -11 l 76 293 q 76 358 22 326 l 640 358 q 662 608 662 477 l 141 608 q 141 673 87 640 l 662 673 l 662 825 q 727 825 694 879 z "},"花":{"ha":1389,"x_min":33,"x_max":1335,"o":"m 477 1074 l 477 922 l 868 922 l 868 1074 q 933 1074 901 1118 l 933 922 l 1280 922 q 1280 857 1324 890 l 933 857 l 933 770 q 868 770 901 727 l 868 857 l 477 857 l 477 770 q 412 770 445 727 l 412 857 l 87 857 q 87 922 33 890 l 412 922 l 412 1074 q 477 1074 445 1118 m 825 684 l 825 401 q 1118 640 998 521 q 1161 597 1172 651 q 825 326 1053 477 l 825 -65 q 901 -119 825 -130 l 1150 -119 q 1259 163 1270 -130 q 1324 163 1291 206 q 1161 -184 1335 -195 l 890 -184 q 760 -76 760 -195 l 760 282 q 553 163 662 217 q 521 217 499 163 q 760 358 640 282 l 760 684 q 825 684 792 738 m 434 716 q 488 684 488 738 q 369 456 445 586 l 369 -184 q 304 -184 336 -228 l 304 369 q 109 163 195 228 q 65 206 54 152 q 434 716 315 434 z "},"莲":{"ha":1389,"x_min":33,"x_max":1356,"o":"m 401 1063 q 467 1063 434 1107 l 467 955 l 944 955 l 944 1063 q 1009 1063 977 1118 l 1009 955 l 1313 955 q 1313 890 1356 911 l 1009 890 l 1009 803 q 944 803 977 760 l 944 890 l 467 890 l 467 803 q 401 803 434 749 l 401 890 l 119 890 q 119 955 76 922 l 401 955 l 401 1063 m 803 814 l 760 716 l 1226 716 q 1226 651 1270 684 l 738 651 l 618 434 q 651 391 597 380 l 836 391 l 836 543 q 901 543 868 586 l 901 391 l 1204 391 q 1204 326 1259 358 l 901 326 l 901 195 l 1291 195 q 1291 130 1345 163 l 901 130 l 901 -87 q 836 -87 868 -141 l 836 130 l 401 130 q 401 195 358 163 l 836 195 l 836 326 l 629 326 q 532 423 499 315 l 662 651 l 401 651 q 401 716 358 684 l 684 716 l 738 836 q 803 814 792 868 m 217 781 q 347 586 271 716 q 293 543 347 532 q 163 738 217 684 q 217 781 163 792 m 76 456 l 239 456 q 336 358 347 456 l 336 33 q 662 -130 477 -141 l 1313 -130 q 1313 -195 1356 -163 l 640 -195 q 304 -43 456 -206 q 130 -195 239 -141 q 109 -130 65 -184 q 271 152 282 -33 l 271 347 q 228 391 282 391 l 76 391 q 76 456 33 423 z "},"获":{"ha":1389,"x_min":33,"x_max":1324,"o":"m 488 727 q 358 553 445 651 q 467 -87 510 336 q 369 -195 445 -163 q 174 -184 260 -217 q 195 -119 130 -130 q 401 -65 380 -174 q 401 271 423 65 q 98 0 304 98 q 65 54 33 0 q 380 358 304 174 q 315 510 358 445 q 109 369 239 434 q 76 423 54 358 q 282 564 195 477 q 141 738 217 662 q 184 781 130 792 q 326 608 271 705 q 445 770 401 694 q 488 727 499 781 m 836 781 q 901 781 868 825 l 901 543 l 1270 543 q 1270 477 1313 510 l 911 477 q 1302 -141 1063 43 q 1270 -195 1324 -195 q 879 380 1020 -22 q 553 -195 814 43 q 510 -141 488 -206 q 836 477 781 109 l 532 477 q 532 543 488 510 l 836 543 l 836 781 m 1042 781 q 1237 618 1172 694 q 1194 575 1248 564 q 1009 727 1096 662 q 1042 781 977 770 m 423 1085 q 488 1085 467 1128 l 488 977 l 901 977 l 901 1085 q 966 1085 933 1128 l 966 977 l 1270 977 q 1270 911 1313 944 l 966 911 l 966 836 q 901 836 933 792 l 901 911 l 488 911 l 488 836 q 423 836 456 792 l 423 911 l 98 911 q 98 977 54 944 l 423 977 l 423 1085 z "},"营":{"ha":1389,"x_min":65,"x_max":1335,"o":"m 477 1063 l 477 933 l 890 933 l 890 1063 q 955 1063 922 1107 l 955 933 l 1259 933 q 1259 868 1302 901 l 955 868 l 955 760 q 890 760 922 716 l 890 868 l 477 868 l 477 760 q 412 760 445 705 l 412 868 l 109 868 q 109 933 65 901 l 412 933 l 412 1063 q 477 1063 445 1118 m 250 694 l 1215 694 q 1324 586 1335 694 q 1259 412 1313 488 q 1194 445 1194 380 q 1194 629 1313 629 l 239 629 q 174 564 174 629 l 174 412 q 109 412 141 369 l 109 586 q 250 694 109 694 m 369 521 l 1031 521 q 1139 412 1150 521 l 1139 347 q 1031 239 1150 228 l 369 239 q 260 347 260 228 l 260 412 q 369 521 260 521 m 1074 391 q 1009 456 1085 456 l 391 456 q 326 391 326 456 l 326 369 q 391 304 326 293 l 1009 304 q 1074 369 1085 293 l 1074 391 m 282 152 l 1096 152 q 1204 43 1215 152 l 1204 -43 q 1085 -152 1215 -163 l 282 -152 q 195 -43 195 -163 l 195 43 q 282 152 195 152 m 1074 87 l 315 87 q 260 22 260 87 l 260 -22 q 315 -87 260 -98 l 1074 -87 q 1139 -22 1150 -98 l 1139 22 q 1074 87 1150 87 z "},"蓉":{"ha":1389,"x_min":11,"x_max":1367,"o":"m 369 1063 q 434 1063 401 1118 l 434 966 l 955 966 l 955 1074 q 1020 1074 987 1118 l 1020 966 l 1302 966 q 1302 901 1345 933 l 1020 901 l 1020 814 q 955 814 987 770 l 955 901 l 434 901 l 434 814 q 369 814 401 770 l 369 901 l 109 901 q 109 966 65 933 l 369 966 l 369 1063 m 694 868 q 738 770 727 803 l 1215 770 q 1291 521 1356 770 q 1226 532 1248 477 q 1194 705 1280 705 l 217 705 q 152 640 152 705 l 152 510 q 87 510 119 467 l 87 662 q 195 770 87 770 l 662 770 q 629 846 651 814 q 694 868 640 901 m 467 662 q 510 608 532 673 q 184 412 369 499 q 163 477 119 423 q 467 662 326 553 m 911 651 q 1237 477 1096 575 q 1204 423 1270 423 q 890 586 1009 532 q 911 651 846 640 m 651 553 q 760 553 694 586 q 1324 228 1031 315 q 1313 163 1367 184 q 738 488 998 250 q 673 488 705 510 q 76 163 391 250 q 65 228 11 184 q 651 553 369 315 m 1042 163 l 369 163 q 304 98 304 163 l 304 -54 q 369 -119 304 -130 l 1042 -119 q 1107 -54 1118 -130 l 1107 98 q 1042 163 1118 163 m 239 119 q 347 228 239 228 l 1042 228 q 1172 119 1183 217 l 1172 -76 q 1063 -184 1183 -195 l 347 -184 q 239 -76 239 -195 l 239 119 z "},"藏":{"ha":1389,"x_min":22,"x_max":1345,"o":"m 445 803 l 879 803 l 879 846 q 944 846 911 890 l 944 803 l 1096 803 q 1042 879 1074 836 q 1107 901 1053 933 q 1204 727 1172 814 q 1150 694 1215 673 l 1128 738 l 944 738 q 1020 184 944 467 q 1118 553 1085 315 q 1183 553 1150 608 q 1053 98 1150 293 q 1226 -119 1139 -76 q 1270 109 1280 -119 q 1335 109 1302 163 q 1226 -195 1345 -217 q 1009 43 1118 -163 q 836 -174 944 -65 q 792 -130 770 -184 q 977 119 911 -11 q 879 738 890 358 l 467 738 q 380 651 380 738 l 380 358 q 260 -119 391 76 q 206 -87 206 -141 q 315 347 326 98 l 228 347 q 87 -54 239 119 q 43 -11 22 -65 q 163 347 174 152 l 65 347 q 65 412 22 380 l 315 412 l 315 543 l 228 543 q 119 651 119 532 l 119 803 q 184 803 152 857 l 184 673 q 250 608 184 597 l 315 608 l 315 673 q 445 803 315 803 m 846 966 l 456 966 l 456 890 q 391 890 423 836 l 391 966 l 76 966 q 76 1031 33 998 l 391 1031 l 391 1096 q 456 1096 423 1128 l 456 1031 l 846 1031 l 846 1096 q 911 1096 879 1139 l 911 1031 l 1226 1031 q 1226 966 1270 998 l 911 966 l 911 890 q 846 890 879 846 l 846 966 m 629 608 l 575 608 q 499 543 510 608 l 499 456 l 629 456 l 629 608 m 792 673 q 792 608 857 640 l 694 608 l 694 456 l 716 456 q 836 347 846 456 l 836 282 q 716 174 846 163 l 694 174 l 694 22 l 825 22 q 825 -43 868 -11 l 553 -43 q 434 65 445 -54 l 434 564 q 553 673 445 673 l 792 673 m 770 326 q 684 391 781 391 l 499 391 l 499 239 l 684 239 q 770 304 781 228 l 770 326 m 629 174 l 499 174 l 499 87 q 575 22 499 11 l 629 22 l 629 174 z "},"虎":{"ha":1389,"x_min":54,"x_max":1378,"o":"m 760 1085 l 760 998 l 1204 998 q 1204 933 1248 966 l 760 933 l 760 803 l 1194 803 q 1259 510 1378 803 q 1194 532 1204 477 q 1194 738 1280 738 l 727 738 q 749 684 760 705 l 749 608 l 1031 629 q 1031 564 1085 597 l 749 543 l 749 445 q 803 391 749 380 l 1031 391 q 1107 510 1107 380 q 1172 499 1150 553 q 1031 326 1172 315 l 792 326 q 684 412 684 315 l 684 532 l 336 510 q 336 575 282 543 l 684 597 l 684 684 q 705 738 684 716 l 315 738 q 250 673 250 738 l 250 380 q 109 -195 260 43 q 54 -163 54 -228 q 184 380 195 65 l 184 684 q 315 803 184 803 l 694 803 l 694 1085 q 760 1085 727 1128 m 629 260 l 825 260 q 944 152 955 260 l 944 -54 q 1009 -109 944 -119 l 1161 -109 q 1248 87 1237 -119 q 1313 87 1280 130 q 1172 -174 1302 -184 l 987 -174 q 879 -65 879 -184 l 879 141 q 814 195 890 195 l 640 195 q 575 141 575 195 q 228 -195 564 -119 q 217 -141 184 -184 q 510 152 521 -54 q 629 260 510 260 z "},"融":{"ha":1389,"x_min":65,"x_max":1356,"o":"m 109 1042 l 738 1042 q 738 977 781 1009 l 109 977 q 109 1042 65 1009 m 239 879 l 608 879 q 716 770 727 879 l 716 705 q 608 597 727 586 l 239 597 q 130 705 130 586 l 130 770 q 239 879 130 879 m 586 814 l 260 814 q 195 749 195 814 l 195 727 q 260 662 195 651 l 586 662 q 651 727 651 651 l 651 749 q 586 814 662 814 m 195 499 l 651 499 q 760 391 770 499 l 760 -65 q 510 -141 760 -217 q 532 -76 477 -87 q 694 -54 705 -141 l 694 369 q 629 434 705 434 l 217 434 q 152 369 152 434 l 152 -163 q 87 -163 119 -206 l 87 391 q 195 499 87 499 m 250 369 q 304 401 250 423 q 380 282 336 358 q 326 250 380 217 q 250 369 293 315 m 543 401 q 597 380 597 434 q 521 250 564 315 q 467 282 467 217 q 543 401 510 336 m 228 217 l 618 217 q 618 152 662 184 l 456 152 l 456 -87 q 391 -87 423 -141 l 391 152 l 228 152 q 228 217 184 184 m 1107 1063 l 1107 933 l 1194 933 q 1302 825 1313 933 l 1302 336 q 1194 217 1313 206 l 1107 217 l 1107 -11 l 1237 11 q 1183 130 1215 65 q 1248 152 1204 195 q 1356 -119 1302 43 q 1291 -141 1345 -184 l 1259 -54 l 814 -119 q 803 -54 760 -98 l 1042 -22 l 1042 217 l 955 217 q 846 326 846 206 l 846 825 q 955 933 846 922 l 1042 933 l 1042 1063 q 1107 1063 1074 1128 m 1042 868 l 977 868 q 911 803 911 868 l 911 347 q 977 282 911 271 l 1042 282 l 1042 868 m 1172 868 l 1107 868 l 1107 282 l 1172 282 q 1237 347 1248 271 l 1237 803 q 1172 868 1248 868 z "},"袋":{"ha":1389,"x_min":11,"x_max":1367,"o":"m 749 1085 q 770 933 749 1009 l 1248 955 q 1248 890 1302 922 l 792 868 q 1161 521 933 543 q 1248 716 1237 510 q 1313 716 1280 770 q 1161 456 1302 434 q 727 857 879 477 l 380 836 q 380 901 326 868 l 705 922 q 684 1074 684 1009 q 749 1085 705 1139 m 423 1074 q 315 901 391 987 l 315 477 q 250 477 282 423 l 250 825 q 98 727 174 760 q 65 781 43 727 q 358 1085 260 879 q 423 1074 401 1139 m 640 586 q 738 434 694 521 l 1313 434 q 1313 369 1356 401 l 749 369 q 890 163 792 260 q 1215 315 1063 217 q 1259 260 1291 326 q 944 109 1107 174 q 1324 -87 1096 -22 q 1313 -152 1367 -130 q 684 347 868 -33 q 445 152 575 228 l 445 -87 q 749 -22 434 -163 q 770 -87 814 -33 q 477 -184 608 -163 q 380 -109 380 -206 l 380 119 q 98 33 271 65 q 87 98 54 54 q 608 369 412 152 l 76 369 q 76 434 11 401 l 662 434 q 586 553 640 477 q 640 586 575 618 m 922 1063 q 955 1118 890 1107 q 1128 1009 1053 1085 q 1074 977 1139 955 q 922 1063 998 1031 z "},"装":{"ha":1389,"x_min":43,"x_max":1356,"o":"m 477 1053 q 543 1053 521 1096 l 543 423 q 477 423 499 369 l 477 1053 m 944 1053 l 944 879 l 1248 879 q 1248 814 1291 846 l 944 814 l 944 597 l 1204 597 q 1204 532 1259 564 l 662 532 q 662 597 608 553 l 879 597 l 879 814 l 618 814 q 618 879 575 836 l 879 879 l 879 1053 q 944 1053 911 1096 m 195 1009 q 358 857 282 944 q 304 814 369 792 q 152 955 239 890 q 195 1009 130 1009 m 380 749 q 434 705 434 770 q 217 445 369 597 q 163 488 152 423 q 380 749 304 618 m 673 488 q 760 369 738 434 l 1291 369 q 1291 304 1345 336 l 770 304 q 890 98 814 184 q 1150 260 1042 174 q 1194 206 1215 271 q 933 43 1096 119 q 1313 -130 1096 -109 q 1302 -195 1356 -174 q 705 304 846 -130 l 629 304 q 456 152 521 195 l 456 -65 q 749 -22 445 -163 q 770 -87 814 -33 q 510 -174 662 -141 q 391 -87 391 -195 l 391 119 q 109 0 195 22 q 98 65 43 11 q 532 304 380 152 l 98 304 q 98 369 54 336 l 684 369 q 618 456 662 412 q 673 488 618 510 z "},"覆":{"ha":1389,"x_min":43,"x_max":1367,"o":"m 109 1085 l 1259 1085 q 1259 1020 1313 1053 l 911 1020 l 911 955 l 1118 955 q 1237 857 1248 955 l 1237 825 q 1118 727 1248 716 l 271 727 q 152 814 152 716 l 152 846 q 271 955 152 955 l 477 955 l 477 1020 l 109 1020 q 109 1085 65 1053 m 846 1020 l 543 1020 l 543 955 l 846 955 l 846 1020 m 477 890 l 282 890 q 217 836 217 890 q 282 792 217 781 l 477 792 l 477 890 m 846 890 l 543 890 l 543 792 l 846 792 l 846 890 m 1107 890 l 911 890 l 911 792 l 1107 792 q 1172 836 1183 781 q 1107 890 1183 890 m 629 543 l 1107 543 q 1226 434 1226 543 l 1226 347 q 1107 239 1237 228 l 727 239 l 684 184 l 1085 184 q 1172 109 1215 184 q 955 -43 1107 33 q 1335 -141 1139 -119 q 1313 -195 1367 -184 q 879 -76 1074 -174 q 401 -195 651 -163 q 391 -141 347 -174 q 803 -43 608 -109 q 608 98 705 11 q 445 -22 532 22 q 412 33 391 -22 q 651 239 564 130 l 618 239 q 510 347 510 228 l 510 445 q 629 543 510 543 m 326 488 q 380 467 380 521 q 282 282 336 358 l 282 -174 q 217 -174 250 -228 l 217 195 q 109 87 163 130 q 65 130 43 87 q 326 488 228 293 m 1096 477 l 629 477 q 575 423 575 477 l 1161 423 q 1096 477 1172 477 m 1161 369 l 575 369 q 640 304 575 293 l 1096 304 q 1161 369 1172 293 m 1063 119 l 684 119 q 879 -11 738 65 q 1063 119 1128 109 m 293 684 q 358 651 347 716 q 141 391 260 510 q 98 445 76 391 q 293 684 217 564 m 532 705 q 586 684 586 738 l 575 662 l 1248 662 q 1248 597 1302 629 l 532 597 l 456 499 q 401 532 401 477 q 532 705 456 586 z "},"计":{"ha":1389,"x_min":33,"x_max":1356,"o":"m 955 1074 l 955 597 l 1302 597 q 1302 532 1356 564 l 955 532 l 955 -184 q 890 -184 922 -239 l 890 532 l 499 532 q 499 597 456 564 l 890 597 l 890 1074 q 955 1074 922 1128 m 282 1063 q 456 857 391 944 q 401 814 467 781 q 228 1020 326 911 q 282 1063 217 1085 m 87 727 l 260 727 q 369 618 380 727 l 369 -43 q 564 65 369 -119 q 608 22 629 87 q 380 -152 499 -87 q 304 -76 304 -195 l 304 608 q 250 662 315 662 l 87 662 q 87 727 33 694 z "},"设":{"ha":1389,"x_min":33,"x_max":1356,"o":"m 792 1063 l 1009 1063 q 1118 955 1128 1063 l 1118 716 q 1183 651 1118 640 l 1259 651 q 1259 586 1313 618 l 1161 586 q 1053 705 1053 575 l 1053 933 q 987 998 1063 998 l 814 998 q 749 933 749 998 l 749 879 q 586 586 760 694 q 553 640 521 586 q 684 879 694 727 l 684 955 q 792 1063 684 1063 m 206 1020 q 391 803 282 944 q 336 770 401 738 q 152 977 239 879 q 206 1020 152 1042 m 76 673 l 228 673 q 336 564 347 673 l 336 0 q 499 152 336 -76 q 553 109 564 184 q 347 -98 423 -65 q 271 -43 271 -130 l 271 543 q 206 608 282 608 l 76 608 q 76 673 33 640 m 640 543 l 1085 543 q 1194 423 1215 543 q 977 76 1161 282 q 1313 -109 1128 -43 q 1291 -174 1356 -163 q 922 33 1107 -109 q 543 -174 716 -119 q 521 -109 488 -163 q 868 76 738 -33 q 662 477 727 228 l 640 477 q 640 543 597 510 m 922 119 q 1118 412 1063 250 q 1063 477 1139 477 l 727 477 q 922 119 803 228 z "},"质":{"ha":1389,"x_min":43,"x_max":1313,"o":"m 1226 1074 q 1237 1009 1291 1053 q 803 977 1096 987 l 792 814 l 1259 814 q 1259 749 1313 781 l 792 749 l 781 597 l 1096 597 q 1204 488 1215 597 l 1204 54 q 1139 54 1172 11 l 1139 467 q 1074 532 1150 532 l 467 532 q 401 467 401 532 l 401 54 q 336 54 369 11 l 336 488 q 445 597 347 586 l 716 597 l 727 749 l 282 749 q 282 814 228 781 l 727 814 l 738 977 q 293 966 608 966 q 228 890 228 966 l 228 358 q 109 -174 239 54 q 54 -130 43 -195 q 163 358 174 98 l 163 922 q 282 1031 174 1031 q 1226 1074 846 1031 m 792 423 q 228 -184 836 -130 q 228 -119 184 -152 q 727 423 760 -65 q 792 423 760 456 m 846 119 q 1280 -130 1096 11 q 1237 -184 1302 -184 q 814 54 1020 -33 q 846 119 770 109 z "},"路":{"ha":1389,"x_min":11,"x_max":1378,"o":"m 738 1063 q 803 1042 803 1107 q 760 955 781 998 l 1085 955 q 1237 857 1270 955 q 1009 564 1194 727 q 1335 380 1161 456 q 1313 326 1378 336 q 955 521 1139 391 q 608 347 738 391 q 586 412 543 358 q 901 564 738 456 q 694 825 770 684 q 597 684 640 738 q 543 716 543 651 q 738 1063 673 901 m 239 1042 l 391 1042 q 521 911 532 1042 l 521 694 q 412 564 532 553 l 369 564 l 369 326 l 543 326 q 543 260 597 293 l 369 260 l 369 -43 l 564 -11 q 575 -76 629 -43 q 76 -163 271 -130 q 54 -98 11 -152 l 130 -87 l 130 434 q 195 434 163 488 l 195 -76 l 304 -54 l 304 564 l 250 564 q 109 694 109 553 l 109 890 q 239 1042 109 1042 m 380 977 l 250 977 q 174 890 174 977 l 174 705 q 260 629 174 618 l 380 629 q 456 705 467 618 l 456 901 q 380 977 467 977 m 1107 890 l 727 890 q 955 608 836 705 q 1161 846 1107 738 q 1107 890 1183 890 m 781 326 l 1074 326 q 1215 184 1226 326 l 1215 -22 q 1042 -174 1226 -184 l 803 -174 q 651 -54 651 -184 l 651 174 q 781 326 651 326 m 1074 260 l 792 260 q 716 184 716 260 l 716 -43 q 792 -109 716 -119 l 1063 -109 q 1150 -33 1161 -119 l 1150 174 q 1074 260 1161 260 z "},"跳":{"ha":1389,"x_min":22,"x_max":1324,"o":"m 836 1063 l 836 315 q 575 -174 857 -22 q 532 -119 521 -184 q 770 315 792 22 q 564 130 651 184 q 521 184 510 119 q 770 423 662 271 l 770 1063 q 836 1063 803 1107 m 1009 1063 l 1009 662 q 1204 922 1107 749 q 1259 890 1248 944 q 1009 575 1150 684 l 1009 456 q 1270 195 1183 293 q 1226 141 1291 130 q 1009 358 1107 271 l 1009 -43 q 1074 -109 1009 -119 l 1183 -109 q 1248 87 1259 -130 q 1313 87 1280 130 q 1194 -174 1324 -195 l 1053 -174 q 944 -54 944 -184 l 944 1063 q 1009 1063 977 1107 m 239 1063 l 391 1063 q 510 933 532 1063 l 510 684 q 401 564 521 553 l 358 564 l 358 326 l 553 326 q 553 260 597 293 l 358 260 l 358 -43 q 543 22 456 -11 q 553 -54 597 -11 q 76 -174 206 -163 q 65 -98 22 -152 l 141 -87 l 141 434 q 206 434 184 477 l 206 -76 l 293 -54 l 293 564 l 217 564 q 119 694 119 553 l 119 944 q 239 1063 119 1063 m 391 998 l 250 998 q 184 933 184 998 l 184 694 q 239 629 184 618 l 380 629 q 445 694 456 618 l 445 933 q 391 998 456 998 m 618 933 q 749 564 684 803 q 684 543 727 499 q 564 901 651 684 q 618 933 575 955 z "},"轻":{"ha":1389,"x_min":11,"x_max":1367,"o":"m 347 1085 q 412 1074 391 1128 l 358 922 l 586 922 q 586 857 629 890 l 336 857 q 184 521 282 738 q 228 477 152 467 l 347 477 l 347 738 q 412 738 380 781 l 412 477 l 543 477 q 543 412 597 445 l 412 412 l 412 195 q 553 239 499 217 q 575 174 618 228 q 412 130 510 152 l 412 -195 q 347 -195 380 -250 l 347 119 q 76 87 195 98 q 76 152 33 119 q 347 184 217 163 l 347 412 l 174 412 q 98 510 54 401 q 260 857 217 749 l 65 857 q 65 922 11 890 l 282 922 l 347 1085 m 618 326 l 1248 326 q 1248 260 1291 293 l 987 260 l 987 -87 l 1313 -87 q 1313 -152 1367 -119 l 553 -152 q 553 -87 510 -119 l 922 -87 l 922 260 l 618 260 q 618 326 575 293 m 662 998 l 1118 998 q 1215 901 1259 998 q 987 651 1161 803 q 1335 423 1118 575 q 1302 369 1356 358 q 944 608 1128 488 q 640 391 770 467 q 597 445 575 380 q 1128 890 890 618 q 1118 933 1172 933 l 662 933 q 662 998 618 966 z "},"达":{"ha":1389,"x_min":43,"x_max":1367,"o":"m 879 1063 l 879 825 l 1270 825 q 1270 760 1324 792 l 879 760 q 488 22 868 347 q 445 65 434 11 q 814 760 803 391 l 477 760 q 477 825 423 792 l 814 825 l 814 1063 q 879 1063 846 1118 m 228 998 q 358 760 304 879 q 293 727 347 684 q 174 955 228 890 q 228 998 174 1020 m 98 608 l 228 608 q 336 499 347 608 l 336 109 q 716 -87 499 -98 l 1313 -87 q 1313 -152 1367 -119 l 716 -152 q 315 33 488 -163 q 119 -141 250 -54 q 76 -87 54 -141 q 271 98 228 0 l 271 488 q 217 543 282 543 l 98 543 q 98 608 43 575 m 911 456 q 966 499 911 532 q 1291 65 1128 304 q 1237 22 1302 -11 q 911 456 1063 282 z "},"连":{"ha":1389,"x_min":22,"x_max":1367,"o":"m 760 1074 q 825 1042 825 1107 q 770 933 792 977 l 1280 933 q 1280 868 1324 901 l 749 868 q 608 618 684 738 q 640 564 575 553 l 846 564 l 846 781 q 911 781 879 836 l 911 564 l 1215 564 q 1215 499 1259 532 l 911 499 l 911 326 l 1302 326 q 1302 260 1356 293 l 911 260 l 911 -65 q 846 -65 879 -119 l 846 260 l 391 260 q 391 326 347 293 l 846 326 l 846 499 l 597 499 q 510 597 456 488 q 673 868 597 727 l 412 868 q 412 933 369 911 l 694 933 q 760 1074 727 998 m 65 629 l 206 629 q 326 488 336 629 l 326 87 q 749 -109 488 -119 l 1324 -109 q 1324 -174 1367 -141 l 738 -174 q 304 11 445 -163 q 119 -184 250 -87 q 76 -130 65 -184 q 260 130 271 11 l 260 488 q 195 564 271 564 l 65 564 q 65 629 22 597 m 184 1053 q 336 792 260 944 q 282 749 336 738 q 130 1020 195 922 q 184 1053 141 1063 z "},"遗":{"ha":1389,"x_min":22,"x_max":1345,"o":"m 803 1074 q 868 1074 836 1118 l 868 1009 l 1096 1009 q 1226 922 1237 1009 l 1226 857 q 1096 770 1237 760 l 868 770 l 868 705 l 1280 705 q 1280 640 1324 673 l 391 640 q 391 705 347 673 l 803 705 l 803 770 l 586 770 q 456 857 456 760 l 456 922 q 586 1009 456 1009 l 803 1009 l 803 1074 m 803 944 l 608 944 q 521 901 521 944 l 521 879 q 608 836 521 825 l 803 836 l 803 944 m 1074 944 l 868 944 l 868 836 l 1074 836 q 1161 879 1172 825 l 1161 901 q 1074 944 1172 944 m 65 597 l 195 597 q 326 467 336 597 l 326 98 q 662 -98 477 -109 l 1302 -98 q 1302 -163 1345 -130 l 662 -163 q 304 22 477 -184 q 109 -152 260 -76 q 76 -98 54 -152 q 260 76 239 0 l 260 445 q 174 532 271 532 l 65 532 q 65 597 22 564 m 618 575 l 1074 575 q 1204 445 1215 575 l 1204 141 q 1139 141 1172 87 l 1139 423 q 1053 510 1150 510 l 640 510 q 553 423 553 510 l 553 141 q 488 141 521 98 l 488 467 q 618 575 488 575 m 803 423 q 868 423 836 477 l 868 304 q 521 -33 890 43 q 499 33 467 -22 q 803 304 825 98 l 803 423 m 922 130 q 966 184 911 195 q 1204 0 1096 98 q 1161 -54 1215 -65 q 922 130 1053 33 m 184 1063 q 347 825 282 944 q 293 781 347 770 q 130 1020 217 911 q 184 1063 119 1074 z "},"酒":{"ha":1389,"x_min":54,"x_max":1313,"o":"m 152 1031 q 195 1085 130 1096 q 391 901 304 998 q 347 857 412 836 q 152 1031 250 955 m 412 1063 l 1280 1063 q 1280 998 1313 1031 l 1020 998 l 1020 825 l 1183 825 q 1302 716 1313 825 l 1302 -65 q 1172 -174 1313 -184 l 543 -174 q 434 -65 434 -184 l 434 705 q 543 825 445 825 l 694 825 l 694 998 l 412 998 q 412 1063 369 1031 m 955 998 l 760 998 l 760 825 l 955 825 l 955 998 m 694 760 l 564 760 q 499 694 499 760 l 499 152 l 1237 152 l 1237 315 l 1085 315 q 955 445 955 304 l 955 760 l 760 760 q 597 282 770 445 q 564 336 532 282 q 694 760 716 499 m 1172 760 l 1020 760 l 1020 434 q 1085 380 1020 369 l 1237 380 l 1237 694 q 1172 760 1248 760 m 119 694 q 326 510 239 597 q 282 467 347 445 q 76 640 184 553 q 119 694 54 705 m 293 326 q 358 315 347 380 q 130 -109 282 109 q 76 -76 65 -141 q 293 326 228 152 m 1237 87 l 499 87 l 499 -43 q 564 -109 499 -119 l 1172 -109 q 1237 -43 1248 -119 l 1237 87 z "},"里":{"ha":1389,"x_min":54,"x_max":1313,"o":"m 293 1074 l 1074 1074 q 1204 966 1215 1074 l 1204 488 q 1096 358 1215 347 l 727 358 l 727 184 l 1226 184 q 1226 119 1270 152 l 727 119 l 727 -98 l 1270 -98 q 1270 -163 1313 -130 l 98 -163 q 98 -98 54 -130 l 662 -98 l 662 119 l 163 119 q 163 184 119 141 l 662 184 l 662 358 l 282 358 q 163 467 163 347 l 163 966 q 293 1074 163 1074 m 662 1009 l 293 1009 q 228 944 228 1009 l 228 770 l 662 770 l 662 1009 m 1074 1009 l 727 1009 l 727 770 l 1139 770 l 1139 955 q 1074 1009 1150 1009 m 662 705 l 228 705 l 228 488 q 293 423 228 412 l 662 423 l 662 705 m 1139 705 l 727 705 l 727 423 l 1085 423 q 1139 477 1150 412 l 1139 705 z "},"重":{"ha":1389,"x_min":43,"x_max":1324,"o":"m 1139 1063 q 1150 998 1194 1031 q 716 944 1009 966 l 716 836 l 1280 836 q 1280 770 1324 803 l 716 770 l 716 662 l 1085 662 q 1194 553 1204 662 l 1194 271 q 1085 163 1204 152 l 716 163 l 716 54 l 1215 54 q 1215 -11 1259 22 l 716 -11 l 716 -119 l 1280 -119 q 1280 -184 1324 -152 l 98 -184 q 98 -119 54 -152 l 651 -119 l 651 -11 l 174 -11 q 174 54 130 22 l 651 54 l 651 163 l 282 163 q 174 271 174 152 l 174 553 q 282 662 184 662 l 651 662 l 651 770 l 98 770 q 98 836 43 803 l 651 836 l 651 944 l 217 944 q 217 1009 174 977 q 1139 1063 803 998 m 651 597 l 304 597 q 239 532 239 597 l 239 445 l 651 445 l 651 597 m 1063 597 l 716 597 l 716 445 l 1128 445 l 1128 532 q 1063 597 1139 597 m 651 380 l 239 380 l 239 293 q 304 228 239 217 l 651 228 l 651 380 m 1128 380 l 716 380 l 716 228 l 1063 228 q 1128 293 1139 217 l 1128 380 z "},"金":{"ha":1389,"x_min":22,"x_max":1356,"o":"m 651 1074 q 727 1074 684 1107 q 1313 705 1031 803 q 1291 640 1356 651 q 705 998 1009 738 q 662 987 684 1020 q 87 662 412 749 q 76 727 22 684 q 651 1074 401 814 m 250 684 l 1118 684 q 1118 618 1172 651 l 727 618 l 727 423 l 1204 423 q 1204 358 1248 391 l 727 358 l 727 -98 l 901 -98 q 1053 293 987 87 q 1118 282 1096 336 q 977 -98 1053 76 l 1248 -98 q 1248 -163 1291 -130 l 119 -163 q 119 -98 76 -130 l 401 -98 q 260 282 369 43 q 326 304 282 336 q 477 -98 412 119 l 662 -98 l 662 358 l 163 358 q 163 423 109 391 l 662 423 l 662 618 l 250 618 q 250 684 206 651 z "},"鎏":{"ha":1389,"x_min":22,"x_max":1356,"o":"m 879 1085 l 944 998 l 1291 998 q 1291 933 1335 966 l 836 933 q 749 825 673 825 l 1074 846 l 1053 868 q 1096 911 1042 922 q 1215 770 1172 857 q 1161 738 1215 716 l 1118 803 l 684 770 q 608 825 586 770 q 749 933 662 857 l 532 933 q 532 998 499 966 l 857 998 l 814 1063 q 879 1085 836 1118 m 445 966 q 412 911 477 911 q 152 998 293 966 q 174 1063 119 1053 q 445 966 304 1042 m 911 499 q 846 499 879 456 l 846 738 q 911 738 879 781 l 911 499 m 109 857 q 412 781 271 836 q 391 716 445 727 q 87 792 260 760 q 109 857 54 836 m 1063 749 q 1128 749 1096 781 l 1128 575 q 1194 521 1128 510 q 1248 651 1259 510 q 1313 651 1280 684 q 1194 456 1313 434 q 1063 553 1063 445 l 1063 749 m 456 662 q 488 597 521 651 q 98 423 239 456 q 65 477 43 423 q 456 662 293 553 m 651 467 q 760 467 705 499 q 1324 304 1063 315 q 1313 239 1356 260 q 1009 293 1139 250 q 1009 239 1053 271 l 727 239 l 727 152 l 1215 152 q 1215 87 1270 119 l 1107 87 q 998 -130 1053 -43 l 1291 -130 q 1291 -195 1335 -163 l 76 -195 q 76 -130 33 -163 l 401 -130 q 293 87 380 -43 l 195 87 q 195 152 152 119 l 662 152 l 662 239 l 380 239 q 380 304 336 260 q 65 250 228 260 q 65 315 22 282 q 651 467 369 336 m 662 401 q 391 304 553 347 l 987 304 q 749 401 879 336 q 662 401 694 434 m 662 87 l 369 87 q 477 -130 423 11 l 662 -130 l 662 87 m 1031 87 l 727 87 l 727 -130 l 911 -130 q 1031 87 987 -33 m 629 727 q 694 727 662 770 q 543 467 716 510 q 510 521 488 467 q 629 727 651 553 z "},"钉":{"ha":1389,"x_min":33,"x_max":1356,"o":"m 141 673 l 532 673 q 532 608 575 640 l 336 608 l 336 391 l 553 391 q 553 326 608 358 l 336 326 l 336 -43 q 564 54 336 -109 q 597 0 618 54 q 271 -65 293 -239 l 271 326 l 87 326 q 87 391 43 369 l 271 391 l 271 608 l 141 608 q 141 673 98 640 m 662 998 l 1302 998 q 1302 933 1356 966 l 1161 933 l 1161 -33 q 727 -119 1183 -228 q 749 -54 684 -65 q 1096 -11 1118 -152 l 1096 933 l 662 933 q 662 998 608 966 m 217 1085 q 282 1063 271 1118 q 239 911 271 998 l 597 911 q 597 846 651 879 l 217 846 q 98 651 141 705 q 54 705 33 640 q 217 1085 174 879 z "},"铜":{"ha":1389,"x_min":43,"x_max":1291,"o":"m 184 1074 q 250 1063 228 1107 l 228 944 l 510 944 q 510 879 553 911 l 206 879 q 98 684 152 749 q 43 716 43 662 q 184 1074 174 901 m 662 1053 l 1172 1053 q 1280 933 1291 1053 l 1280 -65 q 1172 -174 1280 -163 q 944 -141 1053 -174 q 966 -76 911 -98 q 1215 -54 1226 -152 l 1215 922 q 1150 987 1226 987 l 684 987 q 618 911 618 987 l 618 -163 q 553 -163 586 -206 l 553 933 q 662 1053 553 1053 m 705 857 l 1128 857 q 1128 792 1172 825 l 705 792 q 705 857 662 825 m 141 684 l 467 684 q 467 618 510 651 l 336 618 l 336 401 l 488 401 q 488 336 532 369 l 336 336 l 336 -33 q 445 43 336 -76 q 510 11 521 87 q 347 -130 434 -87 q 271 -76 271 -163 l 271 336 l 98 336 q 98 401 54 369 l 271 401 l 271 618 l 141 618 q 141 684 98 651 m 836 662 l 998 662 q 1107 543 1118 662 l 1107 163 q 998 54 1118 43 l 836 54 q 727 174 727 43 l 727 553 q 836 662 738 662 m 977 597 l 857 597 q 792 532 792 597 l 792 195 q 857 119 792 109 l 977 119 q 1042 184 1053 109 l 1042 532 q 977 597 1053 597 z "},"间":{"ha":1389,"x_min":130,"x_max":1270,"o":"m 163 1053 q 217 1085 163 1118 q 347 890 293 998 q 293 857 347 825 q 163 1053 228 966 m 521 1020 l 1128 1020 q 1259 890 1270 1020 l 1259 -76 q 922 -152 1237 -260 q 944 -87 890 -98 q 1194 -54 1194 -184 l 1194 879 q 1118 955 1204 955 l 521 955 q 521 1020 477 987 m 195 803 l 195 -174 q 130 -174 163 -228 l 130 803 q 195 803 163 846 m 488 738 l 901 738 q 1020 618 1031 738 l 1020 141 q 901 22 1031 0 l 488 22 q 369 141 369 11 l 369 608 q 488 738 369 738 m 890 673 l 499 673 q 434 608 434 673 l 434 434 l 955 434 l 955 608 q 890 673 966 673 m 955 369 l 434 369 l 434 152 q 499 87 434 76 l 890 87 q 955 152 966 76 l 955 369 z "},"闽":{"ha":1389,"x_min":130,"x_max":1291,"o":"m 195 1031 q 250 1074 195 1096 q 369 857 347 922 q 315 825 369 781 q 195 1031 271 911 m 456 1031 l 1139 1031 q 1280 901 1291 1031 l 1280 -76 q 1194 -174 1280 -163 q 955 -130 1085 -174 q 987 -65 911 -54 q 1215 -54 1226 -152 l 1215 879 q 1139 966 1226 966 l 456 966 q 456 1031 412 998 m 694 814 l 694 705 l 922 705 q 1042 586 1053 705 l 1042 423 q 911 293 1053 282 l 694 293 l 694 87 q 966 119 814 98 q 901 217 933 174 q 966 250 901 293 q 1107 22 1063 98 q 1042 0 1096 -33 q 998 65 1020 43 q 271 -11 651 11 q 271 54 217 22 q 629 87 499 65 l 629 293 l 456 293 q 326 401 336 282 l 326 564 q 445 705 326 694 l 629 705 l 629 814 q 694 814 662 868 m 130 792 q 195 792 163 857 l 195 -163 q 130 -163 163 -228 l 130 792 m 629 640 l 456 640 q 391 553 391 640 l 391 423 q 467 358 391 347 l 629 358 l 629 640 m 911 640 l 694 640 l 694 358 l 901 358 q 977 434 987 347 l 977 564 q 911 640 987 640 z "},"限":{"ha":1389,"x_min":98,"x_max":1335,"o":"m 206 1053 l 336 1053 q 445 944 456 1053 q 369 673 434 846 q 369 608 347 640 q 456 228 510 369 q 163 174 412 130 l 163 -163 q 98 -163 130 -206 l 98 944 q 206 1053 98 1053 m 662 1053 l 1096 1053 q 1204 944 1215 1053 l 1204 532 q 1096 423 1215 412 l 836 423 q 955 163 868 271 q 1215 369 1128 271 q 1259 315 1270 369 q 998 109 1194 239 q 1302 -119 1150 -54 q 1280 -184 1335 -174 q 770 423 857 22 l 618 423 l 618 -54 q 662 -109 618 -119 q 901 -43 760 -98 q 922 -109 955 -54 q 618 -184 716 -184 q 553 -76 553 -184 l 553 944 q 662 1053 553 1053 m 315 987 l 228 987 q 163 922 163 987 l 163 239 q 401 271 401 195 q 315 575 434 380 q 304 684 282 618 q 380 922 358 803 q 315 987 401 987 m 1074 987 l 684 987 q 618 922 618 987 l 618 770 l 1139 770 l 1139 922 q 1074 987 1150 987 m 1139 705 l 618 705 l 618 488 l 1074 488 q 1139 553 1150 477 l 1139 705 z "},"隐":{"ha":1389,"x_min":109,"x_max":1345,"o":"m 694 1085 q 760 1063 749 1128 l 738 1009 l 1031 1009 q 998 749 1204 1009 l 1128 749 q 1237 575 1248 749 l 1237 391 q 1118 293 1248 282 l 543 293 q 543 358 488 326 l 1107 358 q 1172 401 1183 347 l 1172 488 l 543 488 q 543 553 488 521 l 1172 553 l 1172 597 q 1107 684 1183 684 l 564 684 q 564 749 521 716 l 922 749 q 1009 944 1085 944 l 705 944 q 575 770 651 846 q 521 814 510 749 q 694 1085 640 933 m 217 1053 l 358 1053 q 445 955 445 1053 q 358 673 412 803 q 358 586 326 629 q 456 293 456 412 q 206 163 445 87 q 217 239 174 206 q 391 304 391 152 q 282 575 369 434 q 282 673 260 618 q 369 944 347 814 q 336 987 380 987 l 228 987 q 174 933 174 987 l 174 -184 q 109 -184 141 -228 l 109 944 q 217 1053 109 1053 m 521 206 q 586 184 575 260 q 423 -119 532 22 q 380 -65 358 -141 q 521 206 477 76 m 879 250 q 966 22 944 98 q 901 0 944 -43 q 814 228 879 76 q 879 250 825 293 m 651 184 q 716 184 684 239 l 716 -54 q 781 -119 716 -130 l 998 -119 q 1096 33 1107 -130 q 1161 33 1128 87 q 1009 -184 1172 -184 l 770 -184 q 651 -65 651 -195 l 651 184 m 1139 184 q 1194 228 1128 250 q 1345 -33 1280 98 q 1291 -76 1345 -98 q 1139 184 1226 54 z "},"雏":{"ha":1389,"x_min":54,"x_max":1356,"o":"m 282 1074 q 336 1053 336 1107 l 304 955 l 467 955 q 564 868 586 955 q 423 586 521 727 l 477 586 q 597 488 608 586 l 597 -22 q 477 -130 608 -141 l 119 -130 q 119 -65 65 -98 l 467 -65 q 532 -11 543 -76 l 532 217 l 130 217 q 130 282 76 250 l 532 282 l 532 467 q 467 521 543 521 l 119 521 q 119 586 76 553 l 347 586 q 488 846 445 705 q 445 890 510 890 l 271 890 q 109 618 228 770 q 65 662 54 597 q 282 1074 206 846 m 792 1042 q 857 1031 836 1096 q 781 846 836 955 l 1009 846 q 944 1020 977 955 q 998 1042 955 1074 q 1074 846 1053 955 l 1313 846 q 1313 781 1356 814 l 1074 781 l 1074 543 l 1291 543 q 1291 477 1335 510 l 1074 477 l 1074 239 l 1291 239 q 1291 174 1335 217 l 1074 174 l 1074 -65 l 1313 -65 q 1313 -130 1356 -98 l 770 -130 l 770 -174 q 705 -174 738 -217 l 705 716 q 629 618 673 662 q 586 662 564 597 q 792 1042 705 792 m 1009 781 l 770 781 l 770 543 l 1009 543 l 1009 781 m 1009 477 l 770 477 l 770 239 l 1009 239 l 1009 477 m 1009 174 l 770 174 l 770 -65 l 1009 -65 l 1009 174 z "},"霄":{"ha":1389,"x_min":98,"x_max":1356,"o":"m 206 1074 l 1161 1074 q 1161 1009 1204 1042 l 727 1009 l 727 922 l 1215 922 q 1335 814 1356 922 q 1270 618 1313 684 q 1204 640 1215 586 q 1237 857 1302 857 l 727 857 l 727 618 q 662 618 694 586 l 662 857 l 228 857 q 163 792 163 857 l 163 662 q 98 662 130 618 l 98 814 q 206 922 98 922 l 662 922 l 662 1009 l 206 1009 q 206 1074 163 1042 m 271 792 l 553 792 q 553 727 597 760 l 271 727 q 271 792 228 760 m 836 792 l 1118 792 q 1118 727 1161 760 l 836 727 q 836 792 803 760 m 271 662 l 553 662 q 553 597 597 629 l 271 597 q 271 662 228 629 m 836 662 l 1118 662 q 1118 597 1150 629 l 836 597 q 836 662 792 629 m 412 553 q 543 391 467 499 l 662 391 l 662 564 q 727 564 694 608 l 727 391 l 857 391 q 987 553 944 477 q 1042 510 1042 564 q 944 391 987 434 l 1053 391 q 1161 282 1183 391 l 1161 -54 q 1053 -195 1172 -184 q 825 -163 944 -206 q 857 -98 803 -98 q 1096 -65 1118 -184 l 1096 22 l 271 22 l 271 -174 q 206 -174 239 -217 l 206 282 q 315 391 206 391 l 456 391 q 358 510 401 467 q 412 553 358 564 m 1031 326 l 336 326 q 271 260 271 326 l 271 239 l 1096 239 l 1096 260 q 1031 326 1107 326 m 1096 174 l 271 174 l 271 87 l 1096 87 l 1096 174 z "},"青":{"ha":1389,"x_min":54,"x_max":1313,"o":"m 640 1096 q 705 1096 673 1139 l 705 1009 l 1204 1009 q 1204 944 1248 977 l 705 944 l 705 836 l 1139 836 q 1139 770 1183 803 l 705 770 l 705 662 l 1270 662 q 1270 597 1313 629 l 98 597 q 98 662 54 629 l 640 662 l 640 770 l 206 770 q 206 836 163 803 l 640 836 l 640 944 l 141 944 q 141 1009 98 977 l 640 1009 l 640 1096 m 336 510 l 1031 510 q 1150 401 1161 510 l 1150 -109 q 1031 -195 1139 -184 q 825 -163 944 -195 q 846 -98 792 -119 q 1085 -87 1074 -163 l 1085 76 l 282 76 l 282 -174 q 217 -174 250 -228 l 217 391 q 336 510 217 510 m 1020 445 l 347 445 q 282 380 282 445 l 282 326 l 1085 326 l 1085 380 q 1020 445 1096 445 m 1085 260 l 282 260 l 282 141 l 1085 141 l 1085 260 z "},"非":{"ha":1389,"x_min":33,"x_max":1335,"o":"m 836 1074 l 836 922 l 1226 922 q 1226 857 1280 890 l 836 857 l 836 553 l 1226 553 q 1226 488 1280 521 l 836 488 l 836 163 l 1291 163 q 1291 98 1335 130 l 836 98 l 836 -184 q 770 -184 803 -228 l 770 1074 q 836 1074 803 1118 m 575 1053 l 575 -184 q 510 -184 543 -228 l 510 98 l 87 98 q 87 163 33 130 l 510 163 l 510 477 l 130 477 q 130 543 76 510 l 510 543 l 510 857 l 119 857 q 119 922 76 890 l 510 922 l 510 1053 q 575 1053 543 1107 z "},"额":{"ha":1389,"x_min":22,"x_max":1345,"o":"m 434 1085 q 456 955 445 1042 l 640 955 q 684 694 792 933 q 618 705 640 640 q 608 890 705 890 l 206 890 q 163 846 163 890 l 163 694 q 98 694 130 640 l 98 836 q 206 955 98 955 l 391 955 q 369 1063 380 1020 q 434 1085 391 1118 m 727 1020 l 1291 1020 q 1291 955 1345 987 l 1053 955 l 1031 803 l 1150 803 q 1270 694 1280 803 l 1270 152 q 1204 152 1248 109 l 1204 673 q 1139 738 1215 738 l 879 738 q 814 673 814 738 l 814 174 q 749 174 781 130 l 749 673 q 857 803 749 803 l 966 803 l 987 955 l 727 955 q 727 1020 673 987 m 293 260 l 499 260 q 618 152 629 260 l 618 -65 q 510 -174 629 -184 l 293 -174 q 184 -65 184 -184 l 184 130 q 293 260 184 260 m 87 184 q 54 250 22 184 q 380 467 239 315 q 239 597 315 532 q 119 499 195 543 q 87 553 65 499 q 282 825 239 640 q 347 803 336 868 l 488 803 q 586 694 618 803 q 467 477 553 586 q 694 293 575 401 q 651 239 716 228 q 434 423 553 336 q 87 184 293 271 m 499 738 l 326 738 q 282 651 304 684 q 423 521 347 586 q 499 738 564 738 m 966 651 q 1031 651 998 705 l 1031 456 q 716 -184 1063 22 q 673 -130 651 -195 q 966 456 998 65 l 966 651 m 488 195 l 315 195 q 250 130 250 195 l 250 -43 q 315 -109 250 -119 l 488 -109 q 553 -43 564 -119 l 553 130 q 488 195 564 195 m 1107 141 q 1302 -119 1215 33 q 1248 -163 1313 -184 q 1053 98 1161 -22 q 1107 141 1053 152 z "},"风":{"ha":1389,"x_min":43,"x_max":1356,"o":"m 293 1063 l 1020 1063 q 1161 922 1172 1063 l 1161 293 q 1226 -76 1172 -54 q 1291 163 1291 -141 q 1356 163 1324 206 q 1237 -174 1356 -184 q 1096 282 1085 -130 l 1096 911 q 1009 998 1107 998 l 315 998 q 228 911 228 998 l 228 532 q 98 -174 239 65 q 43 -141 43 -195 q 163 532 174 119 l 163 922 q 293 1063 163 1063 m 922 911 q 987 890 977 955 q 749 412 901 640 q 1053 0 922 195 q 987 -33 1042 -76 q 705 347 836 184 q 293 -65 499 87 q 260 -11 239 -65 q 662 401 499 184 q 315 836 543 575 q 380 868 326 901 q 705 467 543 673 q 922 911 846 684 z "},"饰":{"ha":1389,"x_min":43,"x_max":1345,"o":"m 738 1085 q 803 1063 781 1118 l 770 955 l 1302 955 q 1302 890 1345 922 l 987 890 l 987 651 l 1172 651 q 1280 543 1291 651 l 1280 11 q 1074 -54 1280 -119 q 1096 11 1042 -11 q 1215 22 1226 -43 l 1215 521 q 1150 586 1226 586 l 987 586 l 987 -174 q 922 -174 955 -228 l 922 586 l 760 586 q 694 521 694 586 l 694 -43 q 629 -43 662 -98 l 629 543 q 738 651 629 651 l 922 651 l 922 890 l 749 890 q 640 662 705 760 q 586 705 586 640 q 738 1085 673 814 m 271 1031 q 250 911 271 987 l 488 911 q 532 608 673 911 q 467 629 477 564 q 488 846 575 846 l 228 846 q 98 597 184 705 q 43 629 43 575 q 206 1042 163 803 q 271 1031 250 1085 m 282 705 q 347 705 315 749 l 347 -11 q 423 -33 347 -87 q 532 65 499 22 q 575 11 586 65 q 369 -130 456 -109 q 282 -33 282 -163 l 282 705 z "},"首":{"ha":1389,"x_min":22,"x_max":1356,"o":"m 868 879 q 1020 1107 944 977 q 1085 1063 1085 1128 q 966 879 1042 977 l 1313 879 q 1313 814 1356 846 l 716 814 l 673 684 l 1042 684 q 1150 575 1161 684 l 1150 -76 q 1042 -184 1161 -195 l 347 -184 q 239 -76 239 -206 l 239 575 q 347 684 239 684 l 608 684 l 651 814 l 76 814 q 76 879 22 846 l 868 879 m 477 890 q 336 1053 380 1009 q 391 1107 336 1118 q 532 933 467 1031 q 477 890 532 879 m 1020 618 l 369 618 q 304 553 304 618 l 304 423 l 1085 423 l 1085 553 q 1020 618 1096 618 m 1085 358 l 304 358 l 304 163 l 1085 163 l 1085 358 m 1085 98 l 304 98 l 304 -54 q 369 -119 304 -130 l 1020 -119 q 1085 -54 1096 -130 l 1085 98 z "},"高":{"ha":1389,"x_min":43,"x_max":1335,"o":"m 608 1074 q 673 1096 618 1139 q 738 955 716 1009 l 1291 955 q 1291 890 1335 922 l 98 890 q 98 955 43 922 l 662 955 q 608 1074 640 1020 m 412 803 l 977 803 q 1096 684 1107 803 l 1096 608 q 977 499 1107 488 l 412 499 q 293 608 293 488 l 293 684 q 412 803 293 803 m 966 738 l 423 738 q 358 673 358 738 l 358 629 q 423 564 358 553 l 966 564 q 1031 629 1042 553 l 1031 673 q 966 738 1042 738 m 260 412 l 1096 412 q 1248 271 1259 412 l 1248 -87 q 987 -174 1215 -260 q 1009 -109 944 -119 q 1183 -76 1172 -184 l 1183 250 q 1074 347 1194 347 l 271 347 q 206 282 206 347 l 206 -195 q 141 -195 174 -239 l 141 293 q 260 412 141 412 m 499 260 l 890 260 q 1009 141 1020 260 l 1009 22 q 879 -87 1020 -98 l 499 -87 q 380 33 380 -98 l 380 141 q 499 260 380 260 m 879 195 l 510 195 q 445 130 445 195 l 445 43 q 521 -22 445 -33 l 868 -22 q 944 43 955 -33 l 944 130 q 879 195 955 195 z "},"！":{"ha":1389,"x_min":293,"x_max":488,"o":"m 477 792 l 412 206 q 369 206 391 184 l 304 792 q 391 911 315 911 q 477 792 488 911 m 423 98 q 467 -11 488 54 q 358 -54 434 -76 q 315 54 293 -11 q 423 98 347 119 z "},"（":{"ha":1389,"x_min":846,"x_max":1270,"o":"m 1270 1031 q 1085 803 1161 944 q 1009 532 1031 694 q 1009 260 987 434 q 1107 -22 1031 87 q 1248 -206 1172 -130 q 1020 -43 1128 -184 q 890 250 911 119 q 890 586 846 423 q 1042 879 933 760 q 1270 1031 1150 987 z "},"）":{"ha":1389,"x_min":206,"x_max":597,"o":"m 206 1031 q 575 564 510 901 q 575 250 597 412 q 206 -206 488 -119 q 445 282 423 -11 q 445 553 467 423 q 206 1031 412 825 z "},"，":{"ha":1389,"x_min":109,"x_max":369,"o":"m 141 76 q 239 119 174 119 q 336 76 304 119 q 326 -65 369 11 q 119 -239 250 -184 q 195 -130 174 -174 q 195 -65 217 -65 q 152 -33 152 -43 q 141 76 109 11 z "},"：":{"ha":1389,"x_min":326,"x_max":477,"o":"m 401 597 q 477 521 467 586 q 401 445 467 456 q 326 521 336 456 q 401 597 336 586 m 401 98 q 477 22 467 87 q 401 -54 467 -43 q 326 22 336 -43 q 401 98 336 87 z "}}}
